<?xml version="1.0" standalone="no"?><!DOCTYPE svg PUBLIC "-//W3C//DTD SVG 1.1//EN" "http://www.w3.org/Graphics/SVG/1.1/DTD/svg11.dtd"><svg height="9123" node-id="1" sillyvg="true" template-height="9123" template-width="11799" version="1.1" viewBox="0 0 11799 9123" width="11799" xmlns="http://www.w3.org/2000/svg" xmlns:xlink="http://www.w3.org/1999/xlink"><defs node-id="110"></defs><path d="M 11798.30 8057.05 L 0.00 8057.05 L 0.00 8062.95 L 11798.30 8062.95 L 11798.30 8057.05 Z" fill="#e6e6e6" fill-rule="nonzero" node-id="112" stroke="none" target-height="5.9003906" target-width="11798.3" target-x="0" target-y="8057.05"></path><path d="M 1790.98 8283.58 L 1540.62 8283.58 L 1540.62 8289.48 L 1790.98 8289.48 L 1790.98 8283.58 Z" fill="#e6e6e6" fill-rule="nonzero" node-id="114" stroke="none" target-height="5.9003906" target-width="250.35999" target-x="1540.62" target-y="8283.58"></path><path d="M 2982.37 8280.75 L 1964.18 8280.75 L 1964.18 8286.65 L 2982.37 8286.65 L 2982.37 8280.75 Z" fill="#e6e6e6" fill-rule="nonzero" node-id="116" stroke="none" target-height="5.9003906" target-width="1018.19006" target-x="1964.18" target-y="8280.75"></path><path d="M 3452.89 8417.38 L 2647.07 8417.38 L 2647.07 8423.27 L 3452.89 8423.27 L 3452.89 8417.38 Z" fill="#e6e6e6" fill-rule="nonzero" node-id="118" stroke="none" target-height="5.8896484" target-width="805.8198" target-x="2647.07" target-y="8417.38"></path><path d="M 5430.05 8234.50 L 3634.11 8234.50 L 3634.11 8240.40 L 5430.05 8240.40 L 5430.05 8234.50 Z" fill="#e6e6e6" fill-rule="nonzero" node-id="120" stroke="none" target-height="5.9003906" target-width="1795.9397" target-x="3634.11" target-y="8234.5"></path><path d="M 9515.80 8334.08 L 8243.00 8334.08 L 8243.00 8339.98 L 9515.80 8339.98 L 9515.80 8334.08 Z" fill="#e6e6e6" fill-rule="nonzero" node-id="122" stroke="none" target-height="5.9003906" target-width="1272.7998" target-x="8243" target-y="8334.08"></path><path d="M 8112.04 8334.08 L 7932.23 8334.08 L 7932.23 8339.98 L 8112.04 8339.98 L 8112.04 8334.08 Z" fill="#e6e6e6" fill-rule="nonzero" node-id="124" stroke="none" target-height="5.9003906" target-width="179.81006" target-x="7932.23" target-y="8334.08"></path><path d="M 10139.90 8231.43 L 8891.90 8231.43 L 8891.90 8237.33 L 10139.90 8237.33 L 10139.90 8231.43 Z" fill="#e6e6e6" fill-rule="nonzero" node-id="126" stroke="none" target-height="5.9003906" target-width="1248" target-x="8891.9" target-y="8231.43"></path><path d="M 5592.39 7004.65 L 1036.13 7004.65 C 1000.43 7004.58 966.22 6990.36 941.00 6965.10 C 915.79 6939.84 901.62 6905.60 901.62 6869.91 L 901.62 465.09 C 901.94 429.60 916.24 395.67 941.42 370.66 C 966.60 345.65 1000.64 331.59 1036.13 331.53 L 5592.39 331.53 C 5628.13 331.53 5662.40 345.73 5687.67 371.00 C 5712.93 396.26 5727.13 430.53 5727.13 466.27 L 5727.13 6869.91 C 5727.13 6905.64 5712.93 6939.92 5687.67 6965.18 C 5662.40 6990.45 5628.13 7004.65 5592.39 7004.65 Z M 1036.13 336.25 C 1002.00 336.31 969.29 349.92 945.18 374.07 C 921.07 398.22 907.52 430.96 907.52 465.09 L 907.52 6869.91 C 907.52 6904.04 921.07 6936.77 945.18 6960.93 C 969.29 6985.08 1002.00 6998.68 1036.13 6998.75 L 5592.39 6998.75 C 5626.54 6998.69 5659.28 6985.09 5683.42 6960.94 C 5707.57 6936.79 5721.17 6904.06 5721.23 6869.91 L 5721.23 465.09 C 5721.17 430.94 5707.57 398.20 5683.42 374.06 C 5659.28 349.91 5626.54 336.31 5592.39 336.25 L 1036.13 336.25 Z" fill="#e6e6e6" fill-rule="nonzero" node-id="128" stroke="none" target-height="6673.119" target-width="4825.505" target-x="901.625" target-y="331.531"></path><path d="M 10696.60 7004.65 L 6140.07 7004.65 C 6104.35 7004.58 6070.12 6990.37 6044.86 6965.11 C 6019.61 6939.86 6005.39 6905.63 6005.33 6869.91 L 6005.33 465.09 C 6005.70 429.58 6020.06 395.64 6045.28 370.64 C 6070.50 345.64 6104.56 331.59 6140.07 331.53 L 10696.60 331.53 C 10732.00 331.65 10766.00 345.74 10791.10 370.74 C 10816.30 395.74 10830.50 429.64 10830.80 465.09 L 10830.80 6869.91 C 10830.80 6905.56 10816.70 6939.76 10791.50 6965.02 C 10766.40 6990.27 10732.20 7004.52 10696.60 7004.65 Z M 6140.07 336.25 C 6105.92 336.31 6073.18 349.91 6049.04 374.06 C 6024.89 398.20 6011.29 430.94 6011.23 465.09 L 6011.23 6869.91 C 6011.29 6904.06 6024.89 6936.79 6049.04 6960.94 C 6073.18 6985.09 6105.92 6998.69 6140.07 6998.75 L 10696.60 6998.75 C 10730.70 6998.69 10763.50 6985.09 10787.60 6960.94 C 10811.80 6936.79 10825.30 6904.06 10825.40 6869.91 L 10825.40 465.09 C 10825.30 430.94 10811.80 398.20 10787.60 374.06 C 10763.50 349.91 10730.70 336.31 10696.60 336.25 L 6140.07 336.25 Z" fill="#e6e6e6" fill-rule="nonzero" node-id="130" stroke="none" target-height="6673.119" target-width="4825.4697" target-x="6005.33" target-y="331.531"></path><path d="M 7289.93 8057.06 L 4777.37 8057.06 C 4885.12 7650.29 4917.91 7227.31 4874.11 6808.80 C 4819.13 6267.25 4639.56 5723.35 4335.64 5201.16 L 6847.97 5201.16 C 7151.89 5722.88 7331.46 6267.25 7386.68 6808.80 C 7430.46 7227.31 7397.68 7650.29 7289.93 8057.06 Z" fill="#e0e0e0" fill-rule="nonzero" node-id="132" stroke="none" target-height="2855.9" target-width="3094.8198" target-x="4335.64" target-y="5201.16"></path><path d="M 7234.95 8057.06 L 4722.39 8057.06 C 4830.14 7650.29 4862.93 7227.31 4819.13 6808.80 C 4764.15 6267.25 4584.58 5723.35 4280.66 5201.16 L 6792.99 5201.16 C 7096.91 5722.88 7276.48 6267.25 7331.70 6808.80 C 7375.48 7227.31 7342.70 7650.29 7234.95 8057.06 Z" fill="#f5f5f5" fill-rule="nonzero" node-id="134" stroke="none" target-height="2855.9" target-width="3094.8198" target-x="4280.66" target-y="5201.16"></path><path d="M 7331.70 6808.80 L 4819.13 6808.80 C 4764.15 6267.25 4584.58 5723.35 4280.66 5201.16 L 6792.99 5201.16 C 7096.91 5722.88 7276.48 6267.25 7331.70 6808.80 Z" fill="#e0e0e0" fill-rule="nonzero" node-id="136" stroke="none" target-height="1607.6396" target-width="3051.04" target-x="4280.66" target-y="5201.16"></path><path d="M 9732.88 1303.00 L 1977.63 1303.00 C 1844.70 1303.00 1736.94 1410.76 1736.94 1543.69 L 1736.94 6323.89 C 1736.94 6456.81 1844.70 6564.57 1977.63 6564.57 L 9732.88 6564.57 C 9865.81 6564.57 9973.57 6456.81 9973.57 6323.89 L 9973.57 1543.69 C 9973.57 1410.76 9865.81 1303.00 9732.88 1303.00 Z" fill="#e0e0e0" fill-rule="nonzero" node-id="138" stroke="none" target-height="5261.57" target-width="8236.631" target-x="1736.94" target-y="1303"></path><path d="M 9689.94 1303.00 L 1934.68 1303.00 C 1801.76 1303.00 1694.00 1410.76 1694.00 1543.69 L 1694.00 6323.89 C 1694.00 6456.81 1801.76 6564.57 1934.68 6564.57 L 9689.94 6564.57 C 9822.87 6564.57 9930.62 6456.81 9930.62 6323.89 L 9930.62 1543.69 C 9930.62 1410.76 9822.87 1303.00 9689.94 1303.00 Z" fill="#ebebeb" fill-rule="nonzero" node-id="140" stroke="none" target-height="5261.57" target-width="8236.62" target-x="1694" target-y="1303"></path><path d="M 9930.62 1579.55 L 1694.00 1579.55 L 1694.00 5742.94 L 9930.62 5742.94 L 9930.62 1579.55 Z" fill="#ffffff" fill-rule="nonzero" node-id="142" stroke="none" target-height="4163.3896" target-width="8236.62" target-x="1694" target-y="1579.55"></path><path d="M 6944.24 7858.84 L 4076.31 7858.84 C 4023.62 7858.84 3973.08 7879.78 3935.82 7917.04 C 3898.56 7954.30 3877.63 8004.83 3877.63 8057.53 L 7142.92 8057.53 C 7142.92 8004.83 7121.99 7954.30 7084.73 7917.04 C 7047.47 7879.78 6996.94 7858.84 6944.24 7858.84 Z" fill="#f5f5f5" fill-rule="nonzero" node-id="144" stroke="none" target-height="198.68994" target-width="3265.29" target-x="3877.63" target-y="7858.84"></path><path d="M 7627.60 7858.84 L 7114.14 7858.84 C 7061.44 7858.84 7010.91 7879.78 6973.65 7917.04 C 6936.39 7954.30 6915.45 8004.83 6915.45 8057.53 L 7826.28 8057.53 C 7826.28 8004.83 7805.35 7954.30 7768.09 7917.04 C 7730.83 7879.78 7680.29 7858.84 7627.60 7858.84 Z" fill="#e0e0e0" fill-rule="nonzero" node-id="146" stroke="none" target-height="198.68994" target-width="910.8296" target-x="6915.45" target-y="7858.84"></path><path d="M 4607.94 4610.30 L 9463.41 4610.30 C 9520.10 4610.30 9566.06 4564.34 9566.06 4507.66 L 9566.06 854.67 C 9566.06 797.98 9520.10 752.02 9463.41 752.02 L 4607.94 752.02 C 4551.25 752.02 4505.30 797.98 4505.30 854.67 L 4505.30 4507.66 C 4505.30 4564.34 4551.25 4610.30 4607.94 4610.30 Z" fill="#e0e0e0" fill-rule="nonzero" node-id="148" stroke="none" target-height="3858.2778" target-width="5060.76" target-x="4505.3" target-y="752.022"></path><path d="M 4580.81 4610.30 L 9436.28 4610.30 C 9492.97 4610.30 9538.92 4564.34 9538.92 4507.66 L 9538.92 854.67 C 9538.92 797.98 9492.97 752.02 9436.28 752.02 L 4580.81 752.02 C 4524.12 752.02 4478.16 797.98 4478.16 854.67 L 4478.16 4507.66 C 4478.16 4564.34 4524.12 4610.30 4580.81 4610.30 Z" fill="#ebebeb" fill-rule="nonzero" node-id="150" stroke="none" target-height="3858.2778" target-width="5060.76" target-x="4478.16" target-y="752.022"></path><path d="M 9538.92 1017.48 L 9538.92 4508.13 C 9538.86 4535.33 9528.02 4561.40 9508.79 4580.64 C 9489.55 4599.88 9463.48 4610.71 9436.28 4610.77 L 4580.81 4610.77 C 4553.60 4610.71 4527.53 4599.88 4508.29 4580.64 C 4489.06 4561.40 4478.22 4535.33 4478.16 4508.13 L 4478.16 1017.48 L 9538.92 1017.48 Z" fill="#f0f0f0" fill-rule="nonzero" node-id="152" stroke="none" target-height="3593.29" target-width="5060.76" target-x="4478.16" target-y="1017.48"></path><path d="M 9520.04 1153.87 L 4497.27 1153.87 L 4497.27 4473.68 L 9520.04 4473.68 L 9520.04 1153.87 Z" fill="#ffffff" fill-rule="nonzero" node-id="154" stroke="none" target-height="3319.81" target-width="5022.77" target-x="4497.27" target-y="1153.87"></path><path d="M 9259.07 885.34 C 9259.07 896.12 9262.26 906.66 9268.25 915.63 C 9274.24 924.59 9282.75 931.58 9292.72 935.70 C 9302.68 939.83 9313.63 940.91 9324.21 938.80 C 9334.78 936.70 9344.49 931.51 9352.12 923.89 C 9359.74 916.26 9364.93 906.55 9367.03 895.98 C 9369.14 885.40 9368.06 874.45 9363.93 864.49 C 9359.81 854.52 9352.82 846.01 9343.86 840.02 C 9334.89 834.03 9324.36 830.84 9313.57 830.84 C 9299.12 830.84 9285.25 836.58 9275.03 846.80 C 9264.81 857.02 9259.07 870.89 9259.07 885.34 Z" fill="#ffffff" fill-rule="nonzero" node-id="156" stroke="none" target-height="110.07202" target-width="110.069336" target-x="9259.07" target-y="830.836"></path><path d="M 9065.57 885.34 C 9065.57 896.12 9068.77 906.66 9074.76 915.63 C 9080.75 924.59 9089.26 931.58 9099.22 935.70 C 9109.18 939.83 9120.14 940.91 9130.72 938.80 C 9141.29 936.70 9151.00 931.51 9158.63 923.89 C 9166.25 916.26 9171.44 906.55 9173.54 895.98 C 9175.65 885.40 9174.57 874.45 9170.44 864.49 C 9166.32 854.52 9159.33 846.01 9150.37 840.02 C 9141.40 834.03 9130.86 830.84 9120.08 830.84 C 9105.63 830.84 9091.76 836.58 9081.54 846.80 C 9071.32 857.02 9065.57 870.89 9065.57 885.34 Z" fill="#ffffff" fill-rule="nonzero" node-id="158" stroke="none" target-height="110.07202" target-width="110.08008" target-x="9065.57" target-y="830.836"></path><path d="M 8872.32 885.34 C 8872.32 896.12 8875.51 906.66 8881.50 915.63 C 8887.49 924.59 8896.01 931.58 8905.97 935.70 C 8915.93 939.83 8926.89 940.91 8937.46 938.80 C 8948.03 936.70 8957.75 931.51 8965.37 923.89 C 8972.99 916.26 8978.18 906.55 8980.29 895.98 C 8982.39 885.40 8981.31 874.45 8977.18 864.49 C 8973.06 854.52 8966.07 846.01 8957.11 840.02 C 8948.14 834.03 8937.61 830.84 8926.83 830.84 C 8912.37 830.84 8898.50 836.58 8888.28 846.80 C 8878.06 857.02 8872.32 870.89 8872.32 885.34 Z" fill="#ffffff" fill-rule="nonzero" node-id="160" stroke="none" target-height="110.07202" target-width="110.069336" target-x="8872.32" target-y="830.836"></path><path d="M 4478.16 1024.09 L 9538.92 1024.09 L 9538.92 1010.40 L 4478.16 1010.40 L 4478.16 1024.09 Z" fill="#e0e0e0" fill-rule="nonzero" node-id="162" stroke="none" target-height="13.689941" target-width="5060.76" target-x="4478.16" target-y="1010.4"></path><path d="M 4117.61 5100.40 L 8973.08 5100.40 C 9029.77 5100.40 9075.72 5054.45 9075.72 4997.76 L 9075.72 1344.77 C 9075.72 1288.08 9029.77 1242.12 8973.08 1242.12 L 4117.61 1242.12 C 4060.92 1242.12 4014.96 1288.08 4014.96 1344.77 L 4014.96 4997.76 C 4014.96 5054.45 4060.92 5100.40 4117.61 5100.40 Z" fill="#e0e0e0" fill-rule="nonzero" node-id="164" stroke="none" target-height="3858.2798" target-width="5060.76" target-x="4014.96" target-y="1242.12"></path><path d="M 4090.47 5100.40 L 8945.94 5100.40 C 9002.63 5100.40 9048.58 5054.45 9048.58 4997.76 L 9048.58 1344.77 C 9048.58 1288.08 9002.63 1242.12 8945.94 1242.12 L 4090.47 1242.12 C 4033.78 1242.12 3987.82 1288.08 3987.82 1344.77 L 3987.82 4997.76 C 3987.82 5054.45 4033.78 5100.40 4090.47 5100.40 Z" fill="#ebebeb" fill-rule="nonzero" node-id="166" stroke="none" target-height="3858.2798" target-width="5060.76" target-x="3987.82" target-y="1242.12"></path><path d="M 9048.58 1507.82 L 9048.58 4997.76 C 9048.52 5025.00 9037.66 5051.11 9018.37 5070.35 C 8999.08 5089.59 8972.95 5100.40 8945.70 5100.40 L 4090.47 5100.40 C 4063.27 5100.34 4037.19 5089.50 4017.96 5070.27 C 3998.72 5051.03 3987.89 5024.96 3987.82 4997.76 L 3987.82 1507.82 L 9048.58 1507.82 Z" fill="#f0f0f0" fill-rule="nonzero" node-id="168" stroke="none" target-height="3592.58" target-width="5060.76" target-x="3987.82" target-y="1507.82"></path><path d="M 9029.47 1644.21 L 4006.70 1644.21 L 4006.70 4964.02 L 9029.47 4964.02 L 9029.47 1644.21 Z" fill="#ffffff" fill-rule="nonzero" node-id="170" stroke="none" target-height="3319.81" target-width="5022.7695" target-x="4006.7" target-y="1644.21"></path><path d="M 8823.24 1430.19 C 8853.34 1430.19 8877.75 1405.78 8877.75 1375.68 C 8877.75 1345.58 8853.34 1321.17 8823.24 1321.17 C 8793.13 1321.17 8768.73 1345.58 8768.73 1375.68 C 8768.73 1405.78 8793.13 1430.19 8823.24 1430.19 Z" fill="#ffffff" fill-rule="nonzero" node-id="172" stroke="none" target-height="109.0199" target-width="109.01953" target-x="8768.73" target-y="1321.17"></path><path d="M 8575.00 1375.68 C 8574.95 1386.52 8578.13 1397.12 8584.11 1406.16 C 8590.10 1415.19 8598.63 1422.25 8608.63 1426.42 C 8618.63 1430.60 8629.64 1431.72 8640.28 1429.64 C 8650.91 1427.55 8660.69 1422.36 8668.37 1414.71 C 8676.05 1407.06 8681.29 1397.31 8683.42 1386.68 C 8685.55 1376.06 8684.48 1365.04 8680.34 1355.02 C 8676.21 1345.00 8669.19 1336.44 8660.18 1330.41 C 8651.18 1324.39 8640.58 1321.17 8629.74 1321.17 C 8615.27 1321.17 8601.38 1326.91 8591.12 1337.12 C 8580.86 1347.34 8575.06 1361.20 8575.00 1375.68 Z" fill="#ffffff" fill-rule="nonzero" node-id="174" stroke="none" target-height="110.54993" target-width="110.59961" target-x="8574.95" target-y="1321.17"></path><path d="M 8436.25 1430.19 C 8466.36 1430.19 8490.76 1405.78 8490.76 1375.68 C 8490.76 1345.58 8466.36 1321.17 8436.25 1321.17 C 8406.15 1321.17 8381.74 1345.58 8381.74 1375.68 C 8381.74 1405.78 8406.15 1430.19 8436.25 1430.19 Z" fill="#ffffff" fill-rule="nonzero" node-id="176" stroke="none" target-height="109.0199" target-width="109.01953" target-x="8381.74" target-y="1321.17"></path><path d="M 3987.82 1514.43 L 9048.58 1514.43 L 9048.58 1500.74 L 3987.82 1500.74 L 3987.82 1514.43 Z" fill="#e0e0e0" fill-rule="nonzero" node-id="178" stroke="none" target-height="13.690063" target-width="5060.76" target-x="3987.82" target-y="1500.74"></path><path d="M 8167.02 3241.46 C 7983.67 3241.46 7894.95 3054.58 7808.82 2874.06 C 7725.52 2698.98 7646.95 2533.56 7493.33 2533.56 C 7339.72 2533.56 7261.14 2698.74 7177.85 2874.06 C 7091.96 3054.58 7003.00 3241.46 6819.65 3241.46 C 6636.31 3241.46 6547.58 3054.58 6461.69 2874.06 C 6378.39 2698.98 6299.58 2533.56 6146.20 2533.56 C 5992.83 2533.56 5914.01 2698.74 5830.72 2874.06 C 5744.83 3054.58 5655.87 3241.46 5472.76 3241.46 C 5289.65 3241.46 5200.45 3054.58 5114.56 2874.06 C 5031.27 2698.98 4952.69 2533.56 4799.07 2533.56 C 4645.46 2533.56 4566.88 2698.74 4483.59 2874.06 C 4397.70 3054.58 4308.97 3241.46 4125.63 3241.46 C 3942.28 3241.46 3853.56 3054.58 3767.43 2874.06 C 3684.37 2698.98 3605.56 2533.56 3452.18 2533.56 C 3298.80 2533.56 3219.99 2698.74 3136.69 2874.06 C 3050.80 3054.58 2962.08 3241.46 2778.73 3241.46 C 2595.39 3241.46 2506.67 3054.58 2420.77 2874.06 C 2337.48 2698.98 2258.67 2533.56 2105.29 2533.56 L 2105.29 2486.37 C 2288.63 2486.37 2377.36 2673.26 2463.25 2853.77 C 2546.54 3028.86 2625.36 3194.27 2778.73 3194.27 C 2932.11 3194.27 3010.93 3029.09 3094.22 2853.77 C 3180.11 2673.26 3268.84 2486.37 3452.18 2486.37 C 3635.53 2486.37 3724.25 2673.26 3810.14 2853.77 C 3893.44 3028.86 3972.01 3194.27 4125.63 3194.27 C 4279.24 3194.27 4357.82 3029.09 4441.11 2853.77 C 4527.01 2673.26 4615.73 2486.37 4799.07 2486.37 C 4982.42 2486.37 5071.14 2673.26 5157.27 2853.77 C 5240.57 3028.86 5319.14 3194.27 5472.76 3194.27 C 5626.37 3194.27 5704.71 3029.09 5788.01 2853.77 C 5874.14 2673.26 5962.86 2486.37 6146.20 2486.37 C 6329.55 2486.37 6418.27 2673.26 6504.40 2853.77 C 6587.70 3028.86 6666.27 3194.27 6819.65 3194.27 C 6973.03 3194.27 7052.08 3029.09 7135.37 2853.77 C 7221.27 2673.26 7309.99 2486.37 7493.33 2486.37 C 7676.68 2486.37 7765.64 2673.26 7851.53 2853.77 C 7934.83 3028.86 8013.64 3194.27 8167.02 3194.27 L 8167.02 3241.46 Z" fill="#fafafa" fill-rule="nonzero" node-id="180" stroke="none" target-height="755.08984" target-width="6061.73" target-x="2105.29" target-y="2486.37"></path><path d="M 8167.02 4327.14 C 7983.67 4327.14 7894.95 4140.49 7808.82 3959.74 C 7725.52 3784.66 7646.95 3619.24 7493.33 3619.24 C 7339.72 3619.24 7261.14 3784.42 7177.85 3959.74 C 7091.96 4140.49 7003.00 4327.14 6819.65 4327.14 C 6636.31 4327.14 6547.58 4140.49 6461.69 3959.74 C 6378.39 3784.66 6299.58 3619.24 6146.20 3619.24 C 5992.83 3619.24 5914.01 3784.42 5830.72 3959.74 C 5744.83 4140.49 5655.87 4327.14 5472.76 4327.14 C 5289.65 4327.14 5200.45 4140.49 5114.56 3959.74 C 5031.27 3784.66 4952.69 3619.24 4799.07 3619.24 C 4645.46 3619.24 4566.88 3784.42 4483.59 3959.74 C 4397.70 4140.49 4308.97 4327.14 4125.63 4327.14 C 3942.28 4327.14 3853.56 4140.49 3767.43 3959.74 C 3684.37 3784.66 3605.56 3619.24 3452.18 3619.24 C 3298.80 3619.24 3219.99 3784.42 3136.69 3959.74 C 3050.80 4140.49 2962.08 4327.14 2778.73 4327.14 C 2595.39 4327.14 2506.67 4140.49 2420.77 3959.74 C 2337.48 3784.66 2258.67 3619.24 2105.29 3619.24 L 2105.29 3572.05 C 2288.63 3572.05 2377.36 3758.94 2463.25 3939.45 C 2546.54 4114.54 2625.36 4279.95 2778.73 4279.95 C 2932.11 4279.95 3010.93 4114.77 3094.22 3939.45 C 3180.11 3758.94 3268.84 3572.05 3452.18 3572.05 C 3635.53 3572.05 3724.25 3758.94 3810.14 3939.45 C 3893.44 4114.54 3972.01 4279.95 4125.63 4279.95 C 4279.24 4279.95 4357.82 4114.77 4441.11 3939.45 C 4527.01 3758.94 4615.73 3572.05 4799.07 3572.05 C 4982.42 3572.05 5071.14 3758.94 5157.27 3939.45 C 5240.57 4114.54 5319.14 4279.95 5472.76 4279.95 C 5626.37 4279.95 5704.71 4114.77 5788.01 3939.45 C 5874.14 3758.94 5962.86 3572.05 6146.20 3572.05 C 6329.55 3572.05 6418.27 3758.94 6504.40 3939.45 C 6587.70 4114.54 6666.27 4279.95 6819.65 4279.95 C 6973.03 4279.95 7052.08 4114.77 7135.37 3939.45 C 7221.27 3758.94 7309.99 3572.05 7493.33 3572.05 C 7676.68 3572.05 7765.64 3758.94 7851.53 3939.45 C 7934.83 4114.54 8013.64 4279.95 8167.02 4279.95 L 8167.02 4327.14 Z" fill="#fafafa" fill-rule="nonzero" node-id="182" stroke="none" target-height="755.0901" target-width="6061.73" target-x="2105.29" target-y="3572.05"></path><path d="M 5899.15 9122.68 C 8425.93 9122.68 10474.30 9003.08 10474.30 8855.56 C 10474.30 8708.04 8425.93 8588.45 5899.15 8588.45 C 3372.37 8588.45 1324.00 8708.04 1324.00 8855.56 C 1324.00 9003.08 3372.37 9122.68 5899.15 9122.68 Z" fill="#f5f5f5" fill-rule="nonzero" node-id="184" stroke="none" target-height="534.2295" target-width="9150.3" target-x="1324" target-y="8588.45"></path><path d="M 7385.73 1627.93 L 6128.03 1627.93 C 6083.72 1627.94 6040.44 1641.29 6003.82 1666.25 C 5967.20 1691.21 5938.95 1726.61 5922.74 1767.85 L 5810.66 2051.01 L 7703.34 2051.01 L 7591.26 1767.85 C 7575.04 1726.57 7546.75 1691.14 7510.08 1666.18 C 7473.42 1641.22 7430.09 1627.89 7385.73 1627.93 Z" fill="#429cfd" fill-rule="nonzero" node-id="186" stroke="none" target-height="423.12" target-width="1892.6797" target-x="5810.66" target-y="1627.89"></path><g node-id="377"><path d="M 7385.73 1627.93 L 6128.03 1627.93 C 6083.72 1627.94 6040.44 1641.29 6003.82 1666.25 C 5967.20 1691.21 5938.95 1726.61 5922.74 1767.85 L 5810.66 2051.01 L 7703.34 2051.01 L 7591.26 1767.85 C 7575.04 1726.57 7546.75 1691.14 7510.08 1666.18 C 7473.42 1641.22 7430.09 1627.89 7385.73 1627.93 Z" fill="#ffffff" fill-opacity="0.4" fill-rule="nonzero" group-id="1" node-id="190" stroke="none" target-height="423.12" target-width="1892.6797" target-x="5810.66" target-y="1627.89"></path></g><path d="M 3815.10 1627.93 L 2557.40 1627.93 C 2513.05 1627.92 2469.73 1641.26 2433.07 1666.22 C 2396.42 1691.18 2368.12 1726.59 2351.87 1767.85 L 2239.79 2051.01 L 4132.71 2051.01 L 4020.62 1767.85 C 4004.37 1726.59 3976.08 1691.18 3939.42 1666.22 C 3902.76 1641.26 3859.44 1627.92 3815.10 1627.93 Z" fill="#429cfd" fill-rule="nonzero" node-id="193" stroke="none" target-height="423.08997" target-width="1892.9199" target-x="2239.79" target-y="1627.92"></path><path d="M 3815.10 1627.93 L 2557.40 1627.93 C 2513.05 1627.92 2469.73 1641.26 2433.07 1666.22 C 2396.42 1691.18 2368.12 1726.59 2351.87 1767.85 L 2239.79 2051.01 L 4132.71 2051.01 L 4020.62 1767.85 C 4004.37 1726.59 3976.08 1691.18 3939.42 1666.22 C 3902.76 1641.26 3859.44 1627.92 3815.10 1627.93 Z" fill="#000000" fill-opacity="0.2" fill-rule="nonzero" group-id="2" node-id="197" stroke="none" target-height="423.08997" target-width="1892.9199" target-x="2239.79" target-y="1627.92"></path><path d="M 9597.44 2019.87 L 5905.75 2019.87 L 5806.18 1767.85 C 5789.90 1726.61 5761.60 1691.22 5724.95 1666.26 C 5688.30 1641.31 5644.99 1627.95 5600.65 1627.93 L 4342.95 1627.93 C 4298.60 1627.89 4255.26 1641.22 4218.60 1666.18 C 4181.94 1691.14 4153.65 1726.57 4137.43 1767.85 L 4037.85 2019.87 L 2200.85 2019.87 C 2132.50 2020.24 2067.06 2047.55 2018.73 2095.89 C 1970.40 2144.22 1943.08 2209.66 1942.71 2278.01 L 1942.71 7203.09 C 1943.08 7271.44 1970.40 7336.89 2018.73 7385.22 C 2067.06 7433.55 2132.50 7460.87 2200.85 7461.24 L 9597.44 7461.24 C 9665.79 7460.87 9731.24 7433.55 9779.57 7385.22 C 9827.90 7336.89 9855.22 7271.44 9855.59 7203.09 L 9855.59 2278.01 C 9855.22 2209.66 9827.90 2144.22 9779.57 2095.89 C 9731.24 2047.55 9665.79 2020.24 9597.44 2019.87 Z" fill="#429cfd" fill-rule="nonzero" node-id="200" stroke="none" target-height="5833.35" target-width="7912.88" target-x="1942.71" target-y="1627.89"></path><path d="M 9690.41 7208.05 L 9690.41 2763.87 C 9690.41 2715.26 9651.01 2675.85 9602.40 2675.85 L 2196.13 2675.85 C 2147.53 2675.85 2108.12 2715.26 2108.12 2763.87 L 2108.12 7208.05 C 2108.12 7256.66 2147.53 7296.06 2196.13 7296.06 L 9602.40 7296.06 C 9651.01 7296.06 9690.41 7256.66 9690.41 7208.05 Z" fill="#ffffff" fill-rule="nonzero" node-id="202" stroke="none" target-height="4620.21" target-width="7582.29" target-x="2108.12" target-y="2675.85"></path><path d="M 5980.79 3897.68 L 4714.36 3897.68 L 4714.36 4273.11 L 5980.79 4273.11 L 5980.79 3897.68 Z" fill="#429cfd" fill-rule="nonzero" node-id="204" stroke="none" target-height="375.42993" target-width="1266.4302" target-x="4714.36" target-y="3897.68"></path><path d="M 7083.93 3897.68 L 6195.05 3897.68 L 6195.05 4273.11 L 7083.93 4273.11 L 7083.93 3897.68 Z" fill="#429cfd" fill-rule="nonzero" node-id="206" stroke="none" target-height="375.42993" target-width="888.8804" target-x="6195.05" target-y="3897.68"></path><path d="M 1883.72 3628.45 L 1860.12 3628.45 L 1860.12 4085.51 L 1883.72 4085.51 L 1883.72 3628.45 Z" fill="#429cfd" fill-rule="nonzero" node-id="208" stroke="none" target-height="457.06006" target-width="23.599976" target-x="1860.12" target-y="3628.45"></path><path d="M 1883.72 4258.95 L 1860.12 4258.95 L 1860.12 4426.72 L 1883.72 4426.72 L 1883.72 4258.95 Z" fill="#429cfd" fill-rule="nonzero" node-id="210" stroke="none" target-height="167.77002" target-width="23.599976" target-x="1860.12" target-y="4258.95"></path><path d="M 3186.48 2829.46 L 2784.16 2829.46 L 2784.16 2919.13 L 3186.48 2919.13 L 3186.48 2829.46 Z" fill="#429cfd" fill-rule="nonzero" node-id="212" stroke="none" target-height="89.66992" target-width="402.32007" target-x="2784.16" target-y="2829.46"></path><path d="M 2672.55 2829.46 L 2270.23 2829.46 L 2270.23 2919.13 L 2672.55 2919.13 L 2672.55 2829.46 Z" fill="#429cfd" fill-rule="nonzero" node-id="214" stroke="none" target-height="89.66992" target-width="402.32007" target-x="2270.23" target-y="2829.46"></path><path d="M 7845.87 5326.45 L 3952.43 5326.45 L 3952.43 4610.06 L 7845.87 4610.06 L 7845.87 5326.45 Z M 3976.03 5302.86 L 7822.27 5302.86 L 7822.27 4633.66 L 3976.03 4633.66 L 3976.03 5302.86 Z" fill="#429cfd" fill-rule="nonzero" node-id="216" stroke="none" target-height="716.39014" target-width="3893.4402" target-x="3952.43" target-y="4610.06"></path><path d="M 4109.82 4789.16 L 4086.22 4789.16 L 4086.22 5147.59 L 4109.82 5147.59 L 4109.82 4789.16 Z" fill="#429cfd" fill-rule="nonzero" node-id="218" stroke="none" target-height="358.4297" target-width="23.599854" target-x="4086.22" target-y="4789.16"></path><path d="M 6908.61 5554.63 L 4889.69 5554.63 L 4889.69 5644.30 L 6908.61 5644.30 L 6908.61 5554.63 Z" fill="#429cfd" fill-rule="nonzero" node-id="220" stroke="none" target-height="89.66992" target-width="2018.9199" target-x="4889.69" target-y="5554.63"></path><path d="M 7411.22 5104.88 C 7382.57 5104.91 7354.37 5097.87 7329.10 5084.39 C 7303.82 5070.91 7282.27 5051.40 7266.34 5027.60 C 7250.40 5003.80 7240.59 4976.43 7237.76 4947.93 C 7234.94 4919.43 7239.18 4890.67 7250.13 4864.20 C 7261.07 4837.73 7278.38 4814.37 7300.51 4796.19 C 7322.64 4778.00 7348.91 4765.56 7377.00 4759.96 C 7405.09 4754.36 7434.13 4755.77 7461.54 4764.08 C 7488.96 4772.38 7513.90 4787.32 7534.16 4807.57 C 7558.51 4831.91 7575.10 4862.92 7581.84 4896.69 C 7588.57 4930.46 7585.14 4965.46 7571.98 4997.28 C 7558.83 5029.10 7536.53 5056.31 7507.92 5075.46 C 7479.30 5094.61 7445.65 5104.85 7411.22 5104.88 Z M 7411.22 4803.79 C 7381.84 4803.74 7353.36 4813.89 7330.63 4832.48 C 7307.90 4851.08 7292.32 4876.99 7286.54 4905.79 C 7280.77 4934.59 7285.16 4964.50 7298.97 4990.43 C 7312.78 5016.35 7335.16 5036.68 7362.28 5047.96 C 7389.40 5059.24 7419.59 5060.76 7447.71 5052.27 C 7475.83 5043.78 7500.14 5025.80 7516.49 5001.40 C 7532.83 4977.00 7540.22 4947.68 7537.37 4918.44 C 7534.53 4889.21 7521.63 4861.87 7500.88 4841.07 C 7477.12 4817.25 7444.87 4803.84 7411.22 4803.79 Z" fill="#429cfd" fill-rule="nonzero" node-id="222" stroke="none" target-height="350.5503" target-width="353.62988" target-x="7234.94" target-y="4754.36"></path><path d="M 7636.80 5179.92 C 7633.70 5179.94 7630.62 5179.34 7627.74 5178.17 C 7624.87 5177.00 7622.25 5175.27 7620.05 5173.08 L 7500.88 5053.92 C 7496.44 5049.47 7493.94 5043.45 7493.94 5037.16 C 7493.94 5030.88 7496.44 5024.85 7500.88 5020.41 C 7505.33 5015.97 7511.35 5013.47 7517.64 5013.47 C 7523.92 5013.47 7529.95 5015.97 7534.39 5020.41 L 7653.55 5139.81 C 7657.95 5144.23 7660.42 5150.21 7660.42 5156.44 C 7660.42 5162.68 7657.95 5168.66 7653.55 5173.08 C 7651.35 5175.27 7648.73 5177.00 7645.86 5178.17 C 7642.98 5179.34 7639.91 5179.94 7636.80 5179.92 Z" fill="#429cfd" fill-rule="nonzero" node-id="224" stroke="none" target-height="166.46973" target-width="166.47998" target-x="7493.94" target-y="5013.47"></path><path d="M 7845.87 5326.45 L 3952.43 5326.45 L 3952.43 4610.06 L 7845.87 4610.06 L 7845.87 5326.45 Z M 3976.03 5302.86 L 7822.27 5302.86 L 7822.27 4633.66 L 3976.03 4633.66 L 3976.03 5302.86 Z" fill="#ffffff" fill-opacity="0.6" fill-rule="nonzero" group-id="3" node-id="228" stroke="none" target-height="716.39014" target-width="3893.4402" target-x="3952.43" target-y="4610.06"></path><path d="M 4109.82 4789.16 L 4086.22 4789.16 L 4086.22 5147.59 L 4109.82 5147.59 L 4109.82 4789.16 Z" fill="#ffffff" fill-opacity="0.6" fill-rule="nonzero" group-id="4" node-id="233" stroke="none" target-height="358.4297" target-width="23.599854" target-x="4086.22" target-y="4789.16"></path><path d="M 6908.61 5554.63 L 4889.69 5554.63 L 4889.69 5644.30 L 6908.61 5644.30 L 6908.61 5554.63 Z" fill="#ffffff" fill-opacity="0.6" fill-rule="nonzero" group-id="5" node-id="238" stroke="none" target-height="89.66992" target-width="2018.9199" target-x="4889.69" target-y="5554.63"></path><path d="M 3186.48 2829.46 L 2784.16 2829.46 L 2784.16 2919.13 L 3186.48 2919.13 L 3186.48 2829.46 Z" fill="#ffffff" fill-opacity="0.6" fill-rule="nonzero" group-id="6" node-id="243" stroke="none" target-height="89.66992" target-width="402.32007" target-x="2784.16" target-y="2829.46"></path><path d="M 2672.55 2829.46 L 2270.23 2829.46 L 2270.23 2919.13 L 2672.55 2919.13 L 2672.55 2829.46 Z" fill="#ffffff" fill-opacity="0.6" fill-rule="nonzero" group-id="7" node-id="248" stroke="none" target-height="89.66992" target-width="402.32007" target-x="2270.23" target-y="2829.46"></path><path d="M 7411.22 5104.88 C 7382.57 5104.91 7354.37 5097.87 7329.10 5084.39 C 7303.82 5070.91 7282.27 5051.40 7266.34 5027.60 C 7250.40 5003.80 7240.59 4976.43 7237.76 4947.93 C 7234.94 4919.43 7239.18 4890.67 7250.13 4864.20 C 7261.07 4837.73 7278.38 4814.37 7300.51 4796.19 C 7322.64 4778.00 7348.91 4765.56 7377.00 4759.96 C 7405.09 4754.36 7434.13 4755.77 7461.54 4764.08 C 7488.96 4772.38 7513.90 4787.32 7534.16 4807.57 C 7558.51 4831.91 7575.10 4862.92 7581.84 4896.69 C 7588.57 4930.46 7585.14 4965.46 7571.98 4997.28 C 7558.83 5029.10 7536.53 5056.31 7507.92 5075.46 C 7479.30 5094.61 7445.65 5104.85 7411.22 5104.88 Z M 7411.22 4803.79 C 7381.84 4803.74 7353.36 4813.89 7330.63 4832.48 C 7307.90 4851.08 7292.32 4876.99 7286.54 4905.79 C 7280.77 4934.59 7285.16 4964.50 7298.97 4990.43 C 7312.78 5016.35 7335.16 5036.68 7362.28 5047.96 C 7389.40 5059.24 7419.59 5060.76 7447.71 5052.27 C 7475.83 5043.78 7500.14 5025.80 7516.49 5001.40 C 7532.83 4977.00 7540.22 4947.68 7537.37 4918.44 C 7534.53 4889.21 7521.63 4861.87 7500.88 4841.07 C 7477.12 4817.25 7444.87 4803.84 7411.22 4803.79 Z" fill="#ffffff" fill-opacity="0.6" fill-rule="nonzero" group-id="8" node-id="253" stroke="none" target-height="350.5503" target-width="353.62988" target-x="7234.94" target-y="4754.36"></path><path d="M 7636.80 5179.92 C 7633.70 5179.94 7630.62 5179.34 7627.74 5178.17 C 7624.87 5177.00 7622.25 5175.27 7620.05 5173.08 L 7500.89 5053.92 C 7496.44 5049.47 7493.95 5043.45 7493.95 5037.16 C 7493.95 5030.88 7496.44 5024.85 7500.89 5020.41 C 7505.33 5015.97 7511.35 5013.47 7517.64 5013.47 C 7523.92 5013.47 7529.95 5015.97 7534.39 5020.41 L 7653.55 5139.81 C 7657.95 5144.23 7660.42 5150.21 7660.42 5156.44 C 7660.42 5162.68 7657.95 5168.66 7653.55 5173.08 C 7651.35 5175.27 7648.73 5177.00 7645.86 5178.17 C 7642.98 5179.34 7639.91 5179.94 7636.80 5179.92 Z" fill="#ffffff" fill-opacity="0.6" fill-rule="nonzero" group-id="8" node-id="255" stroke="none" target-height="166.46973" target-width="166.46973" target-x="7493.95" target-y="5013.47"></path><path d="M 8668.44 2527.66 C 8644.85 2645.65 8597.65 2881.61 8679.06 2960.66 C 8679.06 2960.66 8647.21 3078.64 8429.17 3078.64 C 8189.43 3078.64 8314.73 2960.66 8314.73 2960.66 C 8445.46 2929.51 8442.15 2832.53 8419.26 2741.21 L 8668.44 2527.66 Z" fill="#e4897b" fill-rule="nonzero" node-id="258" stroke="none" target-height="550.98" target-width="489.6294" target-x="8189.43" target-y="2527.66"></path><path d="M 8301.04 2999.13 C 8268.72 3003.84 8298.68 2929.99 8312.13 2922.20 C 8343.05 2903.79 8736.87 2866.75 8732.39 2908.28 C 8729.72 2932.87 8718.93 2955.87 8701.71 2973.64 C 8683.54 2986.15 8584.44 2953.58 8301.04 2999.13 Z" fill="#429cfd" fill-rule="nonzero" node-id="260" stroke="none" target-height="137.09009" target-width="468.1504" target-x="8268.72" target-y="2866.75"></path><path d="M 8301.04 2999.13 C 8268.72 3003.84 8298.68 2929.99 8312.13 2922.20 C 8343.05 2903.79 8736.87 2866.75 8732.39 2908.28 C 8729.72 2932.87 8718.93 2955.87 8701.71 2973.64 C 8683.54 2986.15 8584.44 2953.58 8301.04 2999.13 Z" fill="#ffffff" fill-opacity="0.6" fill-rule="nonzero" group-id="9" node-id="264" stroke="none" target-height="137.09009" target-width="468.1504" target-x="8268.72" target-y="2866.75"></path><path d="M 9108.28 3235.56 C 9120.55 3282.76 9134.00 3334.67 9148.63 3384.22 C 9163.26 3433.77 9177.19 3484.74 9192.52 3534.77 C 9207.86 3584.79 9223.44 3635.29 9239.72 3685.08 L 9263.31 3760.11 L 9269.45 3778.76 L 9271.81 3785.36 C 9272.17 3786.73 9272.65 3788.08 9273.22 3789.37 C 9276.10 3796.14 9279.74 3802.55 9284.08 3808.49 C 9310.24 3842.12 9342.21 3870.81 9378.47 3893.20 C 9420.10 3920.63 9463.54 3945.23 9508.48 3966.82 C 9602.06 4011.84 9698.00 4051.78 9795.89 4086.46 L 9772.29 4183.91 C 9662.78 4167.30 9555.03 4140.60 9450.43 4104.15 C 9396.35 4085.27 9343.74 4062.40 9293.04 4035.72 C 9235.63 4006.19 9184.25 3966.17 9141.56 3917.74 C 9129.15 3902.77 9118.31 3886.56 9109.23 3869.37 C 9106.63 3864.88 9104.51 3860.16 9102.15 3855.21 L 9097.19 3843.17 L 9089.17 3824.30 C 9078.55 3799.28 9067.93 3774.27 9058.02 3748.79 C 9038.20 3698.06 9018.38 3647.32 9000.92 3595.65 C 8983.46 3543.97 8966.00 3492.29 8950.19 3439.91 L 8928.01 3360.62 C 8920.69 3333.49 8914.56 3308.00 8908.18 3278.27 L 9108.28 3235.56 Z" fill="#e4897b" fill-rule="nonzero" node-id="267" stroke="none" target-height="948.3501" target-width="887.70996" target-x="8908.18" target-y="3235.56"></path><path d="M 9189.93 3319.09 L 8991.48 3477.19 L 8872.32 3571.58 C 8872.32 3571.58 8859.81 3538.30 8844.71 3490.64 C 8815.92 3398.61 8778.40 3252.79 8804.36 3185.77 C 8845.18 3079.59 8922.34 2983.79 9020.03 3005.02 C 9102.15 3023.66 9189.93 3319.09 9189.93 3319.09 Z" fill="#429cfd" fill-rule="nonzero" node-id="269" stroke="none" target-height="587.79004" target-width="411.5293" target-x="8778.4" target-y="2983.79"></path><path d="M 9189.93 3319.09 L 8991.48 3477.19 L 8872.32 3571.58 C 8872.32 3571.58 8859.81 3538.30 8844.71 3490.64 C 8815.92 3398.61 8778.40 3252.79 8804.36 3185.77 C 8845.18 3079.59 8922.34 2983.79 9020.03 3005.02 C 9102.15 3023.66 9189.93 3319.09 9189.93 3319.09 Z" fill="#ffffff" fill-opacity="0.2" fill-rule="nonzero" group-id="10" node-id="273" stroke="none" target-height="587.79004" target-width="411.5293" target-x="8778.4" target-y="2983.79"></path><path d="M 8991.48 3477.19 L 8872.32 3571.58 C 8872.32 3571.58 8859.81 3538.31 8844.71 3490.64 L 8915.50 3140.23 L 8991.48 3477.19 Z" fill="#000000" fill-opacity="0.1" fill-rule="nonzero" group-id="11" node-id="278" stroke="none" target-height="431.3501" target-width="146.77051" target-x="8844.71" target-y="3140.23"></path><path d="M 7980.60 3011.39 C 7980.60 3011.39 7886.22 3044.43 8074.99 4204.20 L 8877.27 4204.20 C 8863.82 3877.62 8863.35 3676.11 9018.85 3005.49 C 8906.43 2982.30 8792.48 2967.32 8677.88 2960.66 C 8556.60 2951.92 8434.84 2951.92 8313.55 2960.66 C 8158.05 2974.35 7980.60 3011.39 7980.60 3011.39 Z" fill="#429cfd" fill-rule="nonzero" node-id="281" stroke="none" target-height="1252.2803" target-width="1132.6294" target-x="7886.22" target-y="2951.92"></path><path d="M 7980.60 3011.39 C 7980.60 3011.39 7886.22 3044.43 8074.99 4204.20 L 8877.27 4204.20 C 8863.82 3877.62 8863.35 3676.11 9018.85 3005.49 C 8906.43 2982.30 8792.48 2967.32 8677.88 2960.66 C 8556.60 2951.92 8434.84 2951.92 8313.55 2960.66 C 8158.05 2974.35 7980.60 3011.39 7980.60 3011.39 Z" fill="#ffffff" fill-opacity="0.2" fill-rule="nonzero" group-id="12" node-id="285" stroke="none" target-height="1252.2803" target-width="1132.6294" target-x="7886.22" target-y="2951.92"></path><path d="M 9916.94 4231.81 L 9855.59 4356.87 L 9815.00 4224.97 L 9904.67 4101.56 L 9916.94 4231.81 Z" fill="#e4897b" fill-rule="nonzero" node-id="288" stroke="none" target-height="255.31006" target-width="101.94043" target-x="9815" target-y="4101.56"></path><path d="M 7613.91 8652.39 L 7421.36 8607.80 L 7511.50 8158.75 L 7704.05 8203.35 L 7613.91 8652.39 Z" fill="#e4897b" fill-rule="nonzero" node-id="290" stroke="none" target-height="493.63965" target-width="282.68994" target-x="7421.36" target-y="8158.75"></path><path d="M 8915.74 8653.81 L 8718.00 8653.81 L 8733.57 8196.04 L 8931.31 8196.04 L 8915.74 8653.81 Z" fill="#e4897b" fill-rule="nonzero" node-id="292" stroke="none" target-height="457.76953" target-width="213.30957" target-x="8718" target-y="8196.04"></path><path d="M 7511.50 8158.99 L 7463.13 8399.44 L 7657.56 8434.84 L 7704.29 8203.59 L 7511.50 8158.99 Z" fill="#ce6f64" fill-rule="nonzero" node-id="294" stroke="none" target-height="275.8496" target-width="241.16016" target-x="7463.13" target-y="8158.99"></path><path d="M 8931.31 8196.04 L 8733.57 8196.04 L 8725.78 8432.00 L 8923.52 8432.00 L 8931.31 8196.04 Z" fill="#ce6f64" fill-rule="nonzero" node-id="296" stroke="none" target-height="235.95996" target-width="205.5293" target-x="8725.78" target-y="8196.04"></path><path d="M 8074.99 4204.20 C 8074.99 4204.20 7852.24 5726.18 7773.90 6324.12 C 7692.49 6945.89 7454.63 8339.98 7454.63 8339.98 L 7718.68 8380.33 C 7718.68 8380.33 8136.58 7050.66 8252.91 6445.41 C 8379.86 5785.88 8662.78 4203.73 8662.78 4203.73 L 8074.99 4204.20 Z" fill="#429cfd" fill-rule="nonzero" node-id="298" stroke="none" target-height="4176.6" target-width="1208.1504" target-x="7454.63" target-y="4203.73"></path><path d="M 8074.99 4204.20 C 8074.99 4204.20 7852.24 5726.18 7773.90 6324.12 C 7692.49 6945.89 7454.63 8339.98 7454.63 8339.98 L 7718.68 8380.33 C 7718.68 8380.33 8136.58 7050.66 8252.91 6445.41 C 8379.86 5785.88 8662.78 4203.73 8662.78 4203.73 L 8074.99 4204.20 Z" fill="#000000" fill-opacity="0.7" fill-rule="nonzero" group-id="13" node-id="302" stroke="none" target-height="4176.6" target-width="1208.1504" target-x="7454.63" target-y="4203.73"></path><path d="M 8286.89 4204.20 C 8286.89 4204.20 8401.80 5560.77 8520.73 6325.30 C 8616.77 6942.82 8692.75 8386.46 8692.75 8386.46 L 8962.22 8386.46 C 8962.22 8386.46 9090.59 6992.38 9041.74 6380.75 C 8918.33 4835.41 9134.95 4561.69 8877.75 4203.50 L 8286.89 4204.20 Z" fill="#429cfd" fill-rule="nonzero" node-id="305" stroke="none" target-height="4182.96" target-width="848.06055" target-x="8286.89" target-y="4203.5"></path><path d="M 8286.89 4204.20 C 8286.89 4204.20 8401.80 5560.77 8520.73 6325.30 C 8616.77 6942.82 8692.75 8386.46 8692.75 8386.46 L 8962.22 8386.46 C 8962.22 8386.46 9090.59 6992.38 9041.74 6380.75 C 8918.33 4835.41 9134.95 4561.69 8877.75 4203.50 L 8286.89 4204.20 Z" fill="#000000" fill-opacity="0.7" fill-rule="nonzero" group-id="14" node-id="309" stroke="none" target-height="4182.96" target-width="848.06055" target-x="8286.89" target-y="4203.5"></path><path d="M 9765.45 4079.38 L 9904.67 4101.56 L 9816.18 4224.97 C 9816.18 4224.97 9679.79 4175.65 9685.22 4093.77 L 9765.45 4079.38 Z" fill="#e4897b" fill-rule="nonzero" node-id="312" stroke="none" target-height="145.59033" target-width="224.87988" target-x="9679.79" target-y="4079.38"></path><path d="M 8634.94 8665.37 C 8621.51 8666.55 8608.11 8662.87 8597.18 8654.99 C 8593.88 8651.87 8591.43 8647.95 8590.07 8643.61 C 8588.70 8639.28 8588.47 8634.67 8589.39 8630.21 C 8589.63 8627.40 8590.60 8624.69 8592.22 8622.37 C 8593.83 8620.05 8596.03 8618.20 8598.60 8617.00 C 8622.19 8606.62 8681.66 8645.32 8688.50 8649.80 C 8689.28 8650.29 8689.89 8651.00 8690.27 8651.84 C 8690.64 8652.68 8690.77 8653.61 8690.62 8654.52 C 8690.42 8655.40 8689.98 8656.22 8689.36 8656.88 C 8688.74 8657.54 8687.95 8658.03 8687.08 8658.29 C 8670.01 8662.54 8652.52 8664.92 8634.94 8665.37 Z M 8608.51 8624.55 C 8606.56 8624.15 8604.55 8624.15 8602.61 8624.55 C 8601.48 8625.09 8600.51 8625.92 8599.81 8626.96 C 8599.10 8628.00 8598.68 8629.20 8598.60 8630.45 C 8597.90 8633.43 8597.99 8636.54 8598.86 8639.48 C 8599.73 8642.42 8601.35 8645.08 8603.55 8647.20 C 8613.46 8656.41 8639.42 8657.59 8674.34 8650.74 C 8654.47 8637.50 8632.04 8628.58 8608.51 8624.55 Z" fill="#429cfd" fill-rule="nonzero" node-id="314" stroke="none" target-height="59.929688" target-width="102.299805" target-x="8588.47" target-y="8606.62"></path><path d="M 8685.91 8658.29 C 8685.13 8658.52 8684.32 8658.52 8683.55 8658.29 C 8664.67 8647.44 8628.80 8604.97 8633.28 8582.55 C 8634.04 8578.90 8636.02 8575.63 8638.90 8573.27 C 8641.77 8570.91 8645.37 8569.60 8649.09 8569.57 C 8652.65 8569.10 8656.26 8569.40 8659.68 8570.46 C 8663.10 8571.52 8666.25 8573.31 8668.92 8575.71 C 8690.39 8594.82 8690.62 8651.69 8690.62 8654.28 C 8690.59 8655.09 8690.36 8655.88 8689.94 8656.58 C 8689.53 8657.28 8688.96 8657.87 8688.26 8658.29 C 8687.49 8658.52 8686.68 8658.52 8685.91 8658.29 Z M 8652.40 8578.30 L 8650.27 8578.30 C 8644.14 8578.30 8642.96 8581.84 8642.49 8583.96 C 8639.66 8597.65 8662.07 8629.51 8680.95 8644.61 C 8681.43 8622.44 8674.99 8600.67 8662.54 8582.31 C 8661.20 8581.01 8659.62 8579.98 8657.87 8579.29 C 8656.13 8578.60 8654.27 8578.27 8652.40 8578.30 Z" fill="#429cfd" fill-rule="nonzero" node-id="316" stroke="none" target-height="89.41992" target-width="61.820313" target-x="8628.8" target-y="8569.1"></path><path d="M 7404.37 8578.07 C 7372.52 8571.70 7317.07 8557.07 7304.80 8530.88 C 7302.89 8527.23 7301.90 8523.19 7301.90 8519.08 C 7301.90 8514.97 7302.89 8510.92 7304.80 8507.28 C 7305.88 8504.95 7307.57 8502.96 7309.69 8501.51 C 7311.81 8500.06 7314.27 8499.20 7316.83 8499.02 C 7343.73 8495.72 7401.54 8563.20 7408.15 8569.81 C 7408.66 8570.53 7408.96 8571.38 7409.03 8572.26 C 7409.10 8573.14 7408.93 8574.02 7408.55 8574.81 C 7408.16 8575.61 7407.57 8576.28 7406.84 8576.77 C 7406.11 8577.26 7405.26 8577.55 7404.37 8577.60 L 7404.37 8578.07 Z M 7318.96 8507.28 L 7317.77 8507.28 C 7316.75 8507.40 7315.77 8507.79 7314.94 8508.42 C 7314.11 8509.04 7313.46 8509.87 7313.06 8510.82 C 7311.73 8513.24 7311.04 8515.96 7311.04 8518.72 C 7311.04 8521.48 7311.73 8524.20 7313.06 8526.63 C 7320.13 8541.26 7349.39 8555.42 7392.58 8565.56 C 7368.27 8539.61 7334.29 8507.51 7318.96 8507.51 L 7318.96 8507.28 Z" fill="#429cfd" fill-rule="nonzero" node-id="318" stroke="none" target-height="82.350586" target-width="107.200195" target-x="7301.9" target-y="8495.72"></path><path d="M 7404.37 8578.07 C 7403.10 8577.96 7401.92 8577.37 7401.07 8576.41 C 7383.37 8557.54 7356.71 8500.43 7368.51 8482.03 C 7370.85 8478.70 7374.30 8476.33 7378.24 8475.33 C 7382.18 8474.34 7386.34 8474.79 7389.98 8476.60 C 7394.45 8477.93 7398.61 8480.17 7402.18 8483.17 C 7405.75 8486.17 7408.67 8489.88 7410.74 8494.06 C 7425.85 8522.61 7409.57 8573.58 7408.86 8575.71 C 7408.65 8576.48 7408.23 8577.17 7407.65 8577.71 C 7407.06 8578.26 7406.34 8578.62 7405.55 8578.77 L 7404.37 8578.07 Z M 7380.78 8483.68 C 7377.00 8483.68 7376.06 8485.33 7375.59 8486.04 C 7368.51 8497.60 7384.79 8540.78 7401.31 8563.44 C 7408.28 8541.96 7408.28 8518.84 7401.31 8497.37 C 7399.77 8494.30 7397.62 8491.58 7394.98 8489.38 C 7392.34 8487.19 7389.27 8485.57 7385.97 8484.62 C 7384.59 8484.14 7383.17 8483.83 7381.72 8483.68 L 7380.78 8483.68 Z" fill="#429cfd" fill-rule="nonzero" node-id="320" stroke="none" target-height="104.42969" target-width="69.14014" target-x="7356.71" target-y="8474.34"></path><path d="M 8192.50 2276.13 C 8191.03 2276.14 8189.58 2275.81 8188.27 2275.15 C 8186.95 2274.50 8185.81 2273.54 8184.95 2272.35 C 8178.32 2262.61 8169.47 2254.58 8159.13 2248.92 C 8148.80 2243.26 8137.27 2240.13 8125.49 2239.79 C 8124.14 2240.00 8122.76 2239.92 8121.44 2239.55 C 8120.13 2239.18 8118.91 2238.53 8117.87 2237.65 C 8116.83 2236.76 8116.00 2235.66 8115.43 2234.42 C 8114.86 2233.18 8114.56 2231.83 8114.56 2230.47 C 8114.56 2229.10 8114.86 2227.75 8115.43 2226.51 C 8116.00 2225.27 8116.83 2224.17 8117.87 2223.29 C 8118.91 2222.40 8120.13 2221.75 8121.44 2221.38 C 8122.76 2221.01 8124.14 2220.93 8125.49 2221.15 C 8140.30 2221.45 8154.83 2225.25 8167.91 2232.21 C 8180.99 2239.18 8192.24 2249.13 8200.76 2261.26 C 8201.49 2262.27 8202.02 2263.41 8202.31 2264.62 C 8202.59 2265.83 8202.64 2267.08 8202.44 2268.31 C 8202.25 2269.54 8201.81 2270.71 8201.16 2271.77 C 8200.50 2272.83 8199.65 2273.75 8198.64 2274.47 C 8196.85 2275.73 8194.68 2276.32 8192.50 2276.13 Z" fill="#263238" fill-rule="nonzero" node-id="322" stroke="none" target-height="55.390137" target-width="88.07959" target-x="8114.56" target-y="2220.93"></path><path d="M 8140.82 2388.68 C 8128.10 2425.64 8110.31 2460.67 8087.97 2492.74 C 8096.32 2498.18 8105.75 2501.73 8115.61 2503.16 C 8125.47 2504.59 8135.52 2503.85 8145.07 2501.00 L 8140.82 2388.68 Z" fill="#de5753" fill-rule="nonzero" node-id="324" stroke="none" target-height="115.91016" target-width="57.09961" target-x="8087.97" target-y="2388.68"></path><path d="M 8153.33 2360.84 C 8153.33 2376.88 8146.01 2390.10 8135.40 2390.33 C 8124.78 2390.57 8116.05 2378.30 8115.58 2362.25 C 8115.10 2346.21 8122.89 2333.23 8133.27 2332.76 C 8143.65 2332.29 8152.62 2345.03 8153.33 2360.84 Z" fill="#263238" fill-rule="nonzero" node-id="326" stroke="none" target-height="58.28003" target-width="38.22998" target-x="8115.1" target-y="2332.29"></path><path d="M 8137.99 2333.47 L 8099.29 2324.03 C 8099.29 2324.03 8120.06 2353.05 8137.99 2333.47 Z" fill="#263238" fill-rule="nonzero" node-id="328" stroke="none" target-height="29.02002" target-width="38.700195" target-x="8099.29" target-y="2324.03"></path><path d="M 8702.42 8630.92 L 8924.47 8630.92 C 8928.29 8630.83 8932.02 8632.15 8934.94 8634.63 C 8937.86 8637.11 8939.76 8640.58 8940.28 8644.37 L 8965.52 8819.93 C 8966.02 8824.37 8965.58 8828.87 8964.21 8833.12 C 8962.85 8837.38 8960.60 8841.29 8957.61 8844.61 C 8954.63 8847.94 8950.97 8850.59 8946.88 8852.39 C 8942.80 8854.20 8938.37 8855.12 8933.90 8855.09 C 8856.51 8853.91 8819.23 8849.19 8721.54 8849.19 C 8661.36 8849.19 8573.58 8855.56 8490.76 8855.56 C 8407.94 8855.56 8403.45 8773.45 8437.90 8766.13 C 8592.70 8732.62 8617.24 8686.85 8669.39 8642.96 C 8678.67 8635.24 8690.35 8630.99 8702.42 8630.92 Z" fill="#263238" fill-rule="nonzero" node-id="330" stroke="none" target-height="224.72949" target-width="562.56934" target-x="8403.45" target-y="8630.83"></path><path d="M 7425.14 8557.06 L 7630.19 8642.25 C 7633.75 8643.63 7636.67 8646.27 7638.41 8649.66 C 7640.15 8653.05 7640.58 8656.96 7639.63 8660.65 L 7595.74 8832.67 C 7594.50 8836.96 7592.36 8840.94 7589.46 8844.34 C 7586.57 8847.75 7582.98 8850.50 7578.95 8852.41 C 7574.91 8854.33 7570.52 8855.37 7566.05 8855.47 C 7561.58 8855.56 7557.15 8854.71 7553.03 8852.97 C 7482.24 8822.05 7449.21 8803.65 7359.07 8766.13 C 7303.62 8742.53 7186.34 8701.24 7109.65 8669.38 C 7032.96 8637.53 7060.57 8560.13 7095.26 8566.50 C 7251.00 8595.29 7325.09 8576.18 7389.98 8555.65 C 7401.50 8551.97 7413.95 8552.47 7425.14 8557.06 Z" fill="#263238" fill-rule="nonzero" node-id="332" stroke="none" target-height="303.58984" target-width="607.6201" target-x="7032.96" target-y="8551.97"></path><path d="M 8059.18 3281.11 C 8012.84 3397.72 7960.30 3511.78 7901.79 3622.78 C 7872.77 3678.47 7842.09 3733.92 7807.40 3787.96 C 7799.38 3801.65 7789.94 3815.10 7781.21 3828.55 C 7772.48 3842.00 7763.28 3855.68 7753.13 3868.90 C 7742.99 3882.11 7734.49 3895.80 7723.16 3909.01 L 7707.12 3928.83 L 7699.10 3938.74 L 7693.67 3944.88 L 7687.30 3951.72 C 7655.95 3983.04 7617.74 4006.64 7575.69 4020.62 C 7541.04 4032.13 7505.30 4040.03 7469.03 4044.22 C 7403.08 4052.01 7336.52 4053.11 7270.35 4047.52 C 7143.98 4037.48 7018.93 4014.87 6897.05 3980.04 L 6917.34 3881.87 C 6975.86 3887.30 7036.74 3892.26 7096.20 3894.62 C 7155.67 3896.98 7215.37 3898.63 7273.65 3896.27 C 7329.92 3894.90 7385.96 3888.74 7441.19 3877.86 C 7465.47 3872.99 7489.19 3865.63 7511.97 3855.92 C 7528.01 3849.58 7542.38 3839.65 7553.98 3826.89 L 7574.98 3797.63 C 7583.00 3787.02 7590.32 3774.04 7598.57 3762.71 C 7613.68 3739.12 7628.31 3713.87 7642.70 3688.62 C 7671.25 3637.89 7697.92 3584.56 7724.34 3531.47 C 7750.77 3478.37 7775.31 3423.39 7800.09 3368.65 C 7824.87 3313.90 7848.93 3258.22 7870.88 3203.47 L 8059.18 3281.11 Z" fill="#e4897b" fill-rule="nonzero" node-id="334" stroke="none" target-height="849.64014" target-width="1162.1304" target-x="6897.05" target-y="3203.47"></path><path d="M 6928.19 3989.00 L 6726.44 3954.31 L 6810.45 3806.84 C 6810.45 3806.84 6950.61 3844.35 6982.70 3919.86 L 6928.19 3989.00 Z" fill="#e4897b" fill-rule="nonzero" node-id="336" stroke="none" target-height="182.15991" target-width="256.26025" target-x="6726.44" target-y="3806.84"></path><path d="M 6593.36 3906.41 L 6645.98 3817.69 L 6810.45 3806.36 L 6726.44 3954.08 L 6593.36 3906.41 Z" fill="#e4897b" fill-rule="nonzero" node-id="338" stroke="none" target-height="147.71997" target-width="217.09033" target-x="6593.36" target-y="3806.36"></path><path d="M 8686.61 2285.09 C 8682.36 2481.18 8684.72 2564.24 8589.87 2668.54 C 8448.29 2825.46 8207.13 2777.32 8152.86 2583.83 C 8104.01 2409.68 8119.35 2118.27 8307.65 2032.85 C 8349.11 2013.84 8394.74 2005.74 8440.21 2009.32 C 8485.68 2012.91 8529.48 2028.06 8567.45 2053.33 C 8605.42 2078.60 8636.30 2113.16 8657.15 2153.73 C 8678.01 2194.29 8688.15 2239.51 8686.61 2285.09 Z" fill="#e4897b" fill-rule="nonzero" node-id="340" stroke="none" target-height="819.72" target-width="584.1406" target-x="8104.01" target-y="2005.74"></path><path d="M 8922.58 2281.55 C 8905.12 2139.97 8835.98 2000.75 8758.82 1932.32 C 8572.88 1767.15 8323.22 1899.29 8200.05 2000.28 C 8071.21 2105.99 8159.94 2273.53 8238.75 2357.53 C 8240.03 2387.60 8244.62 2417.43 8252.44 2446.49 C 8240.16 2523.89 8188.49 2600.58 8116.05 2662.40 C 8361.22 2733.19 8720.12 2739.09 8852.73 2689.77 C 9024.04 2626.30 8954.91 2576.27 8922.58 2281.55 Z" fill="#263238" fill-rule="nonzero" node-id="342" stroke="none" target-height="971.94006" target-width="952.8301" target-x="8071.21" target-y="1767.15"></path><path d="M 8310.48 2375.94 C 8307.15 2412.88 8291.33 2447.58 8265.65 2474.34 C 8230.73 2510.44 8194.86 2489.68 8188.49 2446.97 C 8183.06 2408.50 8194.62 2343.38 8237.10 2322.85 C 8279.57 2302.32 8313.31 2332.29 8310.48 2375.94 Z" fill="#e4897b" fill-rule="nonzero" node-id="344" stroke="none" target-height="208.11987" target-width="130.24951" target-x="8183.06" target-y="2302.32"></path><path d="M 7415.70 8340.92 L 7754.08 8398.50 L 7792.54 8270.84 L 7430.33 8208.78 L 7415.70 8340.92 Z" fill="#429cfd" fill-rule="nonzero" node-id="346" stroke="none" target-height="189.71973" target-width="376.83984" target-x="7415.7" target-y="8208.78"></path><path d="M 8655.70 8391.65 L 8999.03 8391.65 L 9016.97 8271.31 L 8653.81 8259.04 L 8655.70 8391.65 Z" fill="#429cfd" fill-rule="nonzero" node-id="348" stroke="none" target-height="132.61035" target-width="363.16016" target-x="8653.81" target-y="8259.04"></path><path d="M 8889.78 4157.24 L 8925.88 4228.03 C 8928.71 4233.70 8922.11 4239.36 8912.90 4239.36 L 8070.03 4239.36 C 8062.95 4239.36 8056.82 4235.82 8056.35 4231.10 L 8049.27 4160.31 C 8049.27 4155.36 8054.93 4151.11 8062.95 4151.11 L 8875.86 4151.11 C 8878.52 4150.70 8881.25 4151.06 8883.71 4152.15 C 8886.18 4153.23 8888.28 4155.00 8889.78 4157.24 Z" fill="#429cfd" fill-rule="nonzero" node-id="350" stroke="none" target-height="88.65967" target-width="879.43994" target-x="8049.27" target-y="4150.7"></path><path d="M 8889.78 4157.24 L 8925.88 4228.03 C 8928.71 4233.70 8922.11 4239.36 8912.90 4239.36 L 8070.03 4239.36 C 8062.95 4239.36 8056.82 4235.82 8056.35 4231.10 L 8049.27 4160.31 C 8049.27 4155.36 8054.93 4151.11 8062.95 4151.11 L 8875.86 4151.11 C 8878.52 4150.70 8881.25 4151.06 8883.71 4152.15 C 8886.18 4153.23 8888.28 4155.00 8889.78 4157.24 Z" fill="#ffffff" fill-opacity="0.6" fill-rule="nonzero" group-id="15" node-id="354" stroke="none" target-height="88.65967" target-width="879.43994" target-x="8049.27" target-y="4150.7"></path><path d="M 8780.53 4248.56 L 8801.53 4248.56 C 8805.78 4248.56 8809.08 4246.20 8808.84 4243.61 L 8798.46 4149.22 C 8798.46 4146.39 8794.45 4144.27 8790.20 4144.27 L 8768.26 4144.27 C 8764.01 4144.27 8760.71 4146.39 8760.94 4149.22 L 8771.32 4243.61 C 8772.50 4245.73 8776.28 4248.56 8780.53 4248.56 Z" fill="#429cfd" fill-rule="nonzero" node-id="357" stroke="none" target-height="104.29004" target-width="48.370117" target-x="8760.71" target-y="4144.27"></path><path d="M 8252.91 4248.56 L 8274.62 4248.56 C 8278.86 4248.56 8282.40 4246.20 8281.93 4243.61 L 8271.78 4149.22 C 8271.78 4146.39 8267.77 4144.27 8263.29 4144.27 L 8241.58 4144.27 C 8237.33 4144.27 8234.03 4146.39 8234.27 4149.22 L 8244.41 4243.61 C 8244.65 4245.73 8248.42 4248.56 8252.91 4248.56 Z" fill="#429cfd" fill-rule="nonzero" node-id="359" stroke="none" target-height="104.29004" target-width="48.370117" target-x="8234.03" target-y="4144.27"></path><path d="M 8780.53 4248.56 L 8801.53 4248.56 C 8805.78 4248.56 8809.08 4246.20 8808.84 4243.61 L 8798.46 4149.22 C 8798.46 4146.39 8794.45 4144.27 8790.20 4144.27 L 8768.26 4144.27 C 8764.01 4144.27 8760.71 4146.39 8760.94 4149.22 L 8771.32 4243.61 C 8772.50 4245.73 8776.28 4248.56 8780.53 4248.56 Z" fill="#000000" fill-opacity="0.7" fill-rule="nonzero" group-id="16" node-id="363" stroke="none" target-height="104.29004" target-width="48.370117" target-x="8760.71" target-y="4144.27"></path><path d="M 8252.91 4248.56 L 8274.62 4248.56 C 8278.86 4248.56 8282.40 4246.20 8281.93 4243.61 L 8271.78 4149.22 C 8271.78 4146.39 8267.77 4144.27 8263.29 4144.27 L 8241.58 4144.27 C 8237.33 4144.27 8234.03 4146.39 8234.27 4149.22 L 8244.41 4243.61 C 8244.65 4245.73 8248.42 4248.56 8252.91 4248.56 Z" fill="#000000" fill-opacity="0.7" fill-rule="nonzero" group-id="17" node-id="368" stroke="none" target-height="104.29004" target-width="48.370117" target-x="8234.03" target-y="4144.27"></path><path d="M 7980.60 3011.40 C 7882.20 3034.99 7761.39 3304.94 7761.39 3304.94 L 7995.23 3604.61 C 7995.23 3604.61 8236.86 3262.70 8204.53 3158.40 C 8171.03 3049.62 8099.77 2982.37 7980.60 3011.40 Z" fill="#429cfd" fill-rule="nonzero" node-id="371" stroke="none" target-height="622.24" target-width="475.4702" target-x="7761.39" target-y="2982.37"></path><path d="M 7980.60 3011.40 C 7882.20 3034.99 7761.39 3304.94 7761.39 3304.94 L 7995.23 3604.61 C 7995.23 3604.61 8236.86 3262.70 8204.53 3158.40 C 8171.03 3049.62 8099.77 2982.37 7980.60 3011.40 Z" fill="#ffffff" fill-opacity="0.2" fill-rule="nonzero" group-id="18" node-id="375" stroke="none" target-height="622.24" target-width="475.4702" target-x="7761.39" target-y="2982.37"></path></svg>