<?xml version="1.0" standalone="no"?><!DOCTYPE svg PUBLIC "-//W3C//DTD SVG 1.1//EN" "http://www.w3.org/Graphics/SVG/1.1/DTD/svg11.dtd"><svg height="8977" node-id="1" sillyvg="true" template-height="8977" template-width="12047" version="1.1" viewBox="0 0 12047 8977" width="12047" xmlns="http://www.w3.org/2000/svg" xmlns:xlink="http://www.w3.org/1999/xlink"><defs node-id="141"></defs><path d="M 12046.60 7888.14 L 0.00 7888.14 L 0.00 7894.16 L 12046.60 7894.16 L 12046.60 7888.14 Z" fill="#e0e0e0" fill-rule="nonzero" node-id="143" stroke="none" target-height="6.0200195" target-width="12046.6" target-x="0" target-y="7888.14"></path><path d="M 2636.29 8177.02 L 1244.42 8177.02 L 1244.42 8183.04 L 2636.29 8183.04 L 2636.29 8177.02 Z" fill="#e0e0e0" fill-rule="nonzero" node-id="145" stroke="none" target-height="6.0200195" target-width="1391.87" target-x="1244.42" target-y="8177.02"></path><path d="M 5677.82 8046.20 L 5043.69 8046.20 L 5043.69 8052.22 L 5677.82 8052.22 L 5677.82 8046.20 Z" fill="#e0e0e0" fill-rule="nonzero" node-id="147" stroke="none" target-height="6.0200195" target-width="634.1299" target-x="5043.69" target-y="8046.2"></path><path d="M 7145.11 8043.06 L 5909.60 8043.06 L 5909.60 8049.09 L 7145.11 8049.09 L 7145.11 8043.06 Z" fill="#e0e0e0" fill-rule="nonzero" node-id="149" stroke="none" target-height="6.029785" target-width="1235.5098" target-x="5909.6" target-y="8043.06"></path><path d="M 9496.85 8115.34 L 9195.93 8115.34 L 9195.93 8121.36 L 9496.85 8121.36 L 9496.85 8115.34 Z" fill="#e0e0e0" fill-rule="nonzero" node-id="151" stroke="none" target-height="6.0200195" target-width="300.91992" target-x="9195.93" target-y="8115.34"></path><path d="M 8156.78 8115.34 L 6956.46 8115.34 L 6956.46 8121.36 L 8156.78 8121.36 L 8156.78 8115.34 Z" fill="#e0e0e0" fill-rule="nonzero" node-id="153" stroke="none" target-height="6.0200195" target-width="1200.3198" target-x="6956.46" target-y="8115.34"></path><path d="M 3108.03 8177.02 L 2869.51 8177.02 L 2869.51 8183.04 L 3108.03 8183.04 L 3108.03 8177.02 Z" fill="#e0e0e0" fill-rule="nonzero" node-id="155" stroke="none" target-height="6.0200195" target-width="238.52002" target-x="2869.51" target-y="8177.02"></path><path d="M 10735.50 8115.34 L 9693.45 8115.34 L 9693.45 8121.36 L 10735.50 8121.36 L 10735.50 8115.34 Z" fill="#e0e0e0" fill-rule="nonzero" node-id="157" stroke="none" target-height="6.0200195" target-width="1042.0498" target-x="9693.45" target-y="8115.34"></path><path d="M 5710.11 6813.58 L 1057.94 6813.58 C 1021.49 6813.52 986.56 6798.99 960.81 6773.20 C 935.07 6747.41 920.60 6712.45 920.60 6676.01 L 920.60 136.37 C 920.92 100.13 935.52 65.48 961.24 39.95 C 986.95 14.42 1021.70 0.06 1057.94 0.00 L 5710.11 0.00 C 5746.60 0.00 5781.59 14.49 5807.39 40.29 C 5833.19 66.09 5847.68 101.09 5847.68 137.57 L 5847.68 6676.01 C 5847.68 6712.49 5833.19 6747.49 5807.39 6773.29 C 5781.59 6799.09 5746.60 6813.58 5710.11 6813.58 Z M 1057.94 4.82 C 1023.09 4.88 989.69 18.77 965.07 43.43 C 940.45 68.10 926.63 101.52 926.63 136.37 L 926.63 6676.01 C 926.63 6710.86 940.45 6744.28 965.07 6768.94 C 989.69 6793.61 1023.09 6807.49 1057.94 6807.56 L 5710.11 6807.56 C 5744.98 6807.49 5778.40 6793.61 5803.06 6768.96 C 5827.71 6744.30 5841.59 6710.88 5841.66 6676.01 L 5841.66 136.37 C 5841.59 101.50 5827.71 68.08 5803.06 43.42 C 5778.40 18.76 5744.98 4.88 5710.11 4.82 L 1057.94 4.82 Z" fill="#e0e0e0" fill-rule="nonzero" node-id="159" stroke="none" target-height="6813.58" target-width="4927.076" target-x="920.604" target-y="0"></path><path d="M 10921.70 6813.58 L 6269.31 6813.58 C 6232.85 6813.52 6197.89 6799.00 6172.11 6773.22 C 6146.32 6747.43 6131.81 6712.48 6131.74 6676.01 L 6131.74 136.37 C 6132.12 100.11 6146.78 65.46 6172.53 39.94 C 6198.28 14.41 6233.06 0.06 6269.31 0.00 L 10921.70 0.00 C 10957.90 0.13 10992.60 14.51 11018.30 40.04 C 11043.90 65.56 11058.50 100.17 11058.80 136.37 L 11058.80 6676.01 C 11058.80 6712.41 11044.40 6747.33 11018.70 6773.12 C 10993.00 6798.90 10958.10 6813.45 10921.70 6813.58 Z M 6269.31 4.82 C 6234.45 4.88 6201.02 18.76 6176.37 43.42 C 6151.71 68.08 6137.83 101.50 6137.77 136.37 L 6137.77 6676.01 C 6137.83 6710.88 6151.71 6744.30 6176.37 6768.96 C 6201.02 6793.61 6234.45 6807.49 6269.31 6807.56 L 10921.70 6807.56 C 10956.60 6807.49 10990.00 6793.61 11014.70 6768.96 C 11039.30 6744.30 11053.20 6710.88 11053.30 6676.01 L 11053.30 136.37 C 11053.20 101.50 11039.30 68.08 11014.70 43.42 C 10990.00 18.76 10956.60 4.88 10921.70 4.82 L 6269.31 4.82 Z" fill="#e0e0e0" fill-rule="nonzero" node-id="161" stroke="none" target-height="6813.58" target-width="4927.0596" target-x="6131.74" target-y="0"></path><path d="M 1846.03 1971.07 C 1740.98 1744.11 1824.34 1582.69 2080.94 1582.69 C 2242.12 1582.69 2442.34 1646.29 2635.08 1749.65 C 2657.25 1690.63 2718.93 1655.45 2818.43 1655.45 C 2993.59 1655.45 3235.25 1764.59 3424.62 1918.79 C 3483.01 1879.86 3551.76 1859.37 3621.94 1860.00 C 3790.60 1853.01 3992.50 1915.90 4169.10 2018.05 C 4179.48 2008.24 4191.70 2000.59 4205.06 1995.54 C 4218.42 1990.49 4232.65 1988.15 4246.92 1988.66 C 4343.30 1984.80 4474.12 2048.17 4539.17 2130.09 C 4543.27 2135.39 4546.64 2140.21 4550.26 2145.27 L 1794.95 2145.27 C 1789.50 2114.26 1791.27 2082.41 1800.13 2052.20 C 1808.99 2021.99 1824.70 1994.23 1846.03 1971.07 Z" fill="#f5f5f5" fill-rule="nonzero" node-id="163" stroke="none" target-height="562.5801" target-width="2809.2798" target-x="1740.98" target-y="1582.69"></path><path d="M 4970.93 891.45 C 4979.41 890.48 4987.93 890.00 4996.47 890.01 C 4988.51 801.34 5034.53 745.45 5132.59 745.45 C 5203.43 745.45 5290.16 775.08 5378.83 825.20 C 5353.53 653.17 5434.48 541.14 5618.31 541.14 C 5766.49 541.14 5953.93 613.42 6139.21 733.88 C 6155.35 666.42 6210.04 625.95 6301.84 625.95 C 6462.78 625.95 6691.91 750.75 6875.50 927.11 C 6924.24 883.32 6987.55 859.26 7053.07 859.65 C 7206.54 851.70 7396.88 923.50 7565.77 1040.59 C 7573.83 1029.74 7584.39 1021.00 7596.56 1015.13 C 7608.73 1009.25 7622.14 1006.42 7635.64 1006.86 C 7719.49 1002.76 7835.14 1067.09 7902.12 1153.59 L 4836.00 1153.59 C 4763.97 1021.32 4821.31 906.63 4970.93 891.45 Z" fill="#f5f5f5" fill-rule="nonzero" node-id="165" stroke="none" target-height="612.45294" target-width="3138.15" target-x="4763.97" target-y="541.137"></path><path d="M 9083.17 515.84 C 9015.71 371.28 9069.44 266.47 9233.99 266.47 C 9337.35 266.47 9465.53 307.19 9590.33 373.69 C 9604.31 335.86 9644.06 312.97 9707.91 312.97 C 9820.42 312.97 9975.34 383.32 10096.80 481.63 C 10134.30 456.71 10178.50 443.61 10223.50 444.04 C 10331.00 439.46 10461.30 479.70 10574.50 545.47 C 10581.20 539.13 10589.00 534.18 10597.60 530.91 C 10606.10 527.64 10615.30 526.12 10624.40 526.44 C 10660.30 527.73 10695.50 536.48 10727.80 552.11 C 10760.10 567.75 10788.80 589.94 10812.10 617.27 L 10819.30 626.91 L 8999.08 626.91 C 8941.50 575.83 9005.11 518.25 9083.17 515.84 Z" fill="#f5f5f5" fill-rule="nonzero" node-id="167" stroke="none" target-height="360.43503" target-width="1877.7998" target-x="8941.5" target-y="266.473"></path><path d="M 2968.53 5264.86 L 2147.92 5264.86 L 2147.92 7888.14 L 2968.53 7888.14 L 2968.53 5264.86 Z" fill="#ebebeb" fill-rule="nonzero" node-id="169" stroke="none" target-height="2623.2803" target-width="820.6101" target-x="2147.92" target-y="5264.86"></path><path d="M 2700.37 7888.14 L 4045.98 7888.14 L 4045.98 4351.97 L 2700.37 4351.97 L 2700.37 7888.14 Z" fill="#f5f5f5" fill-rule="nonzero" node-id="171" stroke="none" target-height="3536.17" target-width="1345.6099" target-x="2700.37" target-y="4351.97"></path><path d="M 4744.45 4351.97 L 4045.98 4351.97 L 4045.98 7888.14 L 4744.45 7888.14 L 4744.45 4351.97 Z" fill="#ebebeb" fill-rule="nonzero" node-id="173" stroke="none" target-height="3536.17" target-width="698.4702" target-x="4045.98" target-y="4351.97"></path><path d="M 2881.32 4351.97 L 4045.99 4351.97 L 4045.99 4000.45 L 2881.32 4000.45 L 2881.32 4351.97 Z" fill="#f5f5f5" fill-rule="nonzero" node-id="175" stroke="none" target-height="351.52026" target-width="1164.6699" target-x="2881.32" target-y="4000.45"></path><path d="M 2881.32 4351.97 L 4045.99 4351.97 L 4045.99 4272.94 L 2881.32 4272.94 L 2881.32 4351.97 Z" fill="#ebebeb" fill-rule="nonzero" node-id="177" stroke="none" target-height="79.03027" target-width="1164.6699" target-x="2881.32" target-y="4272.94"></path><path d="M 4563.27 4000.45 L 4045.98 4000.45 L 4045.98 4351.97 L 4563.27 4351.97 L 4563.27 4000.45 Z" fill="#ebebeb" fill-rule="nonzero" node-id="179" stroke="none" target-height="351.52026" target-width="517.29004" target-x="4045.98" target-y="4000.45"></path><path d="M 3062.26 4000.45 L 4045.74 4000.45 L 4045.74 3648.93 L 3062.26 3648.93 L 3062.26 4000.45 Z" fill="#f5f5f5" fill-rule="nonzero" node-id="181" stroke="none" target-height="351.52002" target-width="983.48" target-x="3062.26" target-y="3648.93"></path><path d="M 3062.26 4000.45 L 4045.74 4000.45 L 4045.74 3921.42 L 3062.26 3921.42 L 3062.26 4000.45 Z" fill="#ebebeb" fill-rule="nonzero" node-id="183" stroke="none" target-height="79.03003" target-width="983.48" target-x="3062.26" target-y="3921.42"></path><path d="M 4382.33 3648.93 L 4045.98 3648.93 L 4045.98 4000.45 L 4382.33 4000.45 L 4382.33 3648.93 Z" fill="#ebebeb" fill-rule="nonzero" node-id="185" stroke="none" target-height="351.52002" target-width="336.3501" target-x="4045.98" target-y="3648.93"></path><path d="M 3754.94 3157.91 L 3689.65 3157.91 L 3689.65 3649.17 L 3754.94 3649.17 L 3754.94 3157.91 Z" fill="#ebebeb" fill-rule="nonzero" node-id="187" stroke="none" target-height="491.26" target-width="65.29004" target-x="3689.65" target-y="3157.91"></path><path d="M 4521.35 7888.14 L 5504.11 7888.14 L 5504.11 4966.83 L 4521.35 4966.83 L 4521.35 7888.14 Z" fill="#f5f5f5" fill-rule="nonzero" node-id="189" stroke="none" target-height="2921.31" target-width="982.75977" target-x="4521.35" target-y="4966.83"></path><path d="M 6014.17 4966.83 L 5504.11 4966.83 L 5504.11 7888.14 L 6014.17 7888.14 L 6014.17 4966.83 Z" fill="#ebebeb" fill-rule="nonzero" node-id="191" stroke="none" target-height="2921.31" target-width="510.06006" target-x="5504.11" target-y="4966.83"></path><path d="M 5759.02 5801.42 L 6504.22 6440.38 L 6504.22 7888.14 L 5759.02 7888.14 L 5759.02 5801.42 Z" fill="#f5f5f5" fill-rule="nonzero" node-id="193" stroke="none" target-height="2086.7202" target-width="745.2002" target-x="5759.02" target-y="5801.42"></path><path d="M 6891.16 6440.13 L 6504.46 6440.13 L 6504.46 7887.90 L 6891.16 7887.90 L 6891.16 6440.13 Z" fill="#ebebeb" fill-rule="nonzero" node-id="195" stroke="none" target-height="1447.77" target-width="386.7002" target-x="6504.46" target-y="6440.13"></path><path d="M 6891.16 6440.38 L 6504.22 6440.38 L 5759.02 5801.42 L 6145.96 5801.42 L 6891.16 6440.38 Z" fill="#ebebeb" fill-rule="nonzero" node-id="197" stroke="none" target-height="638.95996" target-width="1132.1401" target-x="5759.02" target-y="5801.42"></path><path d="M 10384.20 7888.14 C 10394.50 7830.26 10419.10 7775.87 10455.80 7729.89 C 10492.40 7683.92 10539.90 7647.79 10594.10 7624.80 C 10546.60 7704.01 10525.00 7796.08 10532.40 7888.14 L 10384.20 7888.14 Z" fill="#ebebeb" fill-rule="nonzero" node-id="199" stroke="none" target-height="263.34033" target-width="209.89941" target-x="10384.2" target-y="7624.8"></path><path d="M 3434.02 7888.14 C 3423.68 7830.26 3399.08 7775.87 3362.44 7729.89 C 3325.80 7683.92 3278.27 7647.79 3224.16 7624.80 C 3271.67 7704.01 3293.23 7796.08 3285.84 7888.14 L 3434.02 7888.14 Z" fill="#ebebeb" fill-rule="nonzero" node-id="201" stroke="none" target-height="263.34033" target-width="209.8601" target-x="3224.16" target-y="7624.8"></path><path d="M 1713.27 7888.14 C 1713.27 7888.14 1701.47 7579.75 1572.57 7490.12 C 1625.33 7616.13 1614.25 7888.14 1614.25 7888.14 L 1713.27 7888.14 Z" fill="#ebebeb" fill-rule="nonzero" node-id="203" stroke="none" target-height="398.02002" target-width="140.70007" target-x="1572.57" target-y="7490.12"></path><path d="M 1664.85 7888.14 C 1664.85 7888.14 1676.65 7711.06 1805.55 7659.74 C 1752.79 7732.02 1764.35 7888.14 1764.35 7888.14 L 1664.85 7888.14 Z" fill="#ebebeb" fill-rule="nonzero" node-id="205" stroke="none" target-height="228.3999" target-width="140.70007" target-x="1664.85" target-y="7659.74"></path><path d="M 3544.36 7888.14 C 3544.36 7888.14 3531.35 7596.13 3297.65 7490.12 C 3402.21 7639.98 3396.19 7888.14 3396.19 7888.14 L 3544.36 7888.14 Z" fill="#ebebeb" fill-rule="nonzero" node-id="207" stroke="none" target-height="398.02002" target-width="246.7102" target-x="3297.65" target-y="7490.12"></path><path d="M 9306.99 7493.01 L 8716.47 7493.01 C 8710.08 7493.01 8703.95 7490.48 8699.43 7485.96 C 8694.91 7481.44 8692.38 7475.31 8692.38 7468.92 L 8692.38 6879.12 C 8692.38 6872.73 8694.91 6866.60 8699.43 6862.08 C 8703.95 6857.56 8710.08 6855.02 8716.47 6855.02 L 9306.99 6855.02 C 9313.38 6855.02 9319.51 6857.56 9324.03 6862.08 C 9328.55 6866.60 9331.09 6872.73 9331.09 6879.12 L 9331.09 7468.92 C 9331.09 7475.31 9328.55 7481.44 9324.03 7485.96 C 9319.51 7490.48 9313.38 7493.01 9306.99 7493.01 Z M 8740.56 7444.83 L 9282.90 7444.83 L 9282.90 6903.21 L 8740.56 6903.21 L 8740.56 7444.83 Z" fill="#e0e0e0" fill-rule="nonzero" node-id="209" stroke="none" target-height="637.98975" target-width="638.70996" target-x="8692.38" target-y="6855.02"></path><path d="M 9306.99 6903.21 L 8716.47 6903.21 C 8710.08 6903.21 8703.95 6900.67 8699.43 6896.15 C 8694.91 6891.63 8692.38 6885.50 8692.38 6879.11 L 8692.38 6288.35 C 8692.38 6281.96 8694.91 6275.83 8699.43 6271.31 C 8703.95 6266.79 8710.08 6264.25 8716.47 6264.25 L 9306.99 6264.25 C 9313.38 6264.25 9319.51 6266.79 9324.03 6271.31 C 9328.55 6275.83 9331.09 6281.96 9331.09 6288.35 L 9331.09 6879.11 C 9331.09 6885.50 9328.55 6891.63 9324.03 6896.15 C 9319.51 6900.67 9313.38 6903.21 9306.99 6903.21 Z M 8740.56 6855.02 L 9282.90 6855.02 L 9282.90 6312.44 L 8740.56 6312.44 L 8740.56 6855.02 Z" fill="#e0e0e0" fill-rule="nonzero" node-id="211" stroke="none" target-height="638.95996" target-width="638.70996" target-x="8692.38" target-y="6264.25"></path><path d="M 9307.00 7493.01 C 9300.64 7492.92 9294.58 7490.32 9290.13 7485.79 L 8699.36 6895.26 C 8694.83 6890.72 8692.28 6884.57 8692.28 6878.15 C 8692.28 6871.74 8694.83 6865.58 8699.36 6861.05 C 8703.90 6856.51 8710.05 6853.96 8716.47 6853.96 C 8722.89 6853.96 8729.04 6856.51 8733.58 6861.05 L 9324.10 7452.78 C 9328.59 7457.29 9331.11 7463.40 9331.11 7469.76 C 9331.11 7476.13 9328.59 7482.23 9324.10 7486.75 C 9319.44 7491.00 9313.30 7493.24 9307.00 7493.01 Z" fill="#e0e0e0" fill-rule="nonzero" node-id="213" stroke="none" target-height="639.2803" target-width="638.8301" target-x="8692.28" target-y="6853.96"></path><path d="M 9306.99 6903.21 C 9300.67 6903.18 9294.62 6900.67 9290.13 6896.22 L 8699.36 6305.45 C 8694.87 6300.94 8692.36 6294.83 8692.36 6288.47 C 8692.36 6282.10 8694.87 6276.00 8699.36 6271.48 C 8701.60 6269.22 8704.27 6267.43 8707.20 6266.21 C 8710.14 6264.99 8713.29 6264.36 8716.47 6264.36 C 8719.65 6264.36 8722.80 6264.99 8725.73 6266.21 C 8728.67 6267.43 8731.33 6269.22 8733.57 6271.48 L 9324.10 6862.01 C 9327.50 6865.38 9329.82 6869.68 9330.76 6874.38 C 9331.70 6879.07 9331.22 6883.93 9329.39 6888.35 C 9327.55 6892.77 9324.44 6896.55 9320.45 6899.19 C 9316.46 6901.84 9311.78 6903.24 9306.99 6903.21 Z" fill="#e0e0e0" fill-rule="nonzero" node-id="215" stroke="none" target-height="638.8804" target-width="639.33984" target-x="8692.36" target-y="6264.36"></path><path d="M 9306.99 6312.44 L 8716.47 6312.44 C 8710.08 6312.44 8703.95 6309.90 8699.43 6305.38 C 8694.91 6300.86 8692.38 6294.74 8692.38 6288.35 L 8692.38 5697.82 C 8692.38 5691.43 8694.91 5685.30 8699.43 5680.78 C 8703.95 5676.27 8710.08 5673.73 8716.47 5673.73 L 9306.99 5673.73 C 9313.38 5673.73 9319.51 5676.27 9324.03 5680.78 C 9328.55 5685.30 9331.09 5691.43 9331.09 5697.82 L 9331.09 6288.35 C 9331.09 6294.74 9328.55 6300.86 9324.03 6305.38 C 9319.51 6309.90 9313.38 6312.44 9306.99 6312.44 Z M 8740.56 6264.25 L 9282.90 6264.25 L 9282.90 5721.91 L 8740.56 5721.91 L 8740.56 6264.25 Z" fill="#e0e0e0" fill-rule="nonzero" node-id="217" stroke="none" target-height="638.70996" target-width="638.70996" target-x="8692.38" target-y="5673.73"></path><path d="M 9306.99 5721.91 L 8716.47 5721.91 C 8710.08 5721.91 8703.95 5719.38 8699.43 5714.86 C 8694.91 5710.34 8692.38 5704.21 8692.38 5697.82 L 8692.38 5107.78 C 8692.38 5101.39 8694.91 5095.26 8699.43 5090.74 C 8703.95 5086.22 8710.08 5083.68 8716.47 5083.68 L 9306.99 5083.68 C 9313.38 5083.68 9319.51 5086.22 9324.03 5090.74 C 9328.55 5095.26 9331.09 5101.39 9331.09 5107.78 L 9331.09 5698.54 C 9330.90 5704.81 9328.28 5710.75 9323.78 5715.12 C 9319.28 5719.48 9313.26 5721.92 9306.99 5721.91 Z M 8740.56 5673.73 L 9282.90 5673.73 L 9282.90 5131.87 L 8740.56 5131.87 L 8740.56 5673.73 Z" fill="#e0e0e0" fill-rule="nonzero" node-id="219" stroke="none" target-height="638.23975" target-width="638.70996" target-x="8692.38" target-y="5083.68"></path><path d="M 9306.99 6312.44 C 9300.67 6312.41 9294.62 6309.90 9290.13 6305.45 L 8699.36 5714.68 C 8694.87 5710.17 8692.36 5704.06 8692.36 5697.70 C 8692.36 5691.33 8694.87 5685.23 8699.36 5680.71 C 8701.60 5678.45 8704.27 5676.66 8707.20 5675.44 C 8710.14 5674.22 8713.29 5673.59 8716.47 5673.59 C 8719.65 5673.59 8722.80 5674.22 8725.73 5675.44 C 8728.67 5676.66 8731.33 5678.45 8733.57 5680.71 L 9324.10 6271.48 C 9328.59 6275.99 9331.11 6282.10 9331.11 6288.47 C 9331.11 6294.83 9328.59 6300.94 9324.10 6305.45 C 9321.85 6307.68 9319.18 6309.45 9316.24 6310.65 C 9313.31 6311.85 9310.17 6312.46 9306.99 6312.44 Z" fill="#e0e0e0" fill-rule="nonzero" node-id="221" stroke="none" target-height="638.8701" target-width="638.75" target-x="8692.36" target-y="5673.59"></path><path d="M 9307.00 5721.92 C 9300.64 5721.82 9294.58 5719.23 9290.13 5714.69 L 8699.36 5124.16 C 8694.83 5119.62 8692.28 5113.47 8692.28 5107.06 C 8692.28 5100.64 8694.83 5094.49 8699.36 5089.95 C 8703.90 5085.41 8710.05 5082.86 8716.47 5082.86 C 8722.89 5082.86 8729.04 5085.41 8733.58 5089.95 L 9324.10 5680.72 C 9328.59 5685.23 9331.11 5691.34 9331.11 5697.70 C 9331.11 5704.07 9328.59 5710.17 9324.10 5714.69 C 9321.87 5716.96 9319.21 5718.78 9316.27 5720.02 C 9313.34 5721.26 9310.18 5721.90 9307.00 5721.92 Z" fill="#e0e0e0" fill-rule="nonzero" node-id="223" stroke="none" target-height="639.06006" target-width="638.8301" target-x="8692.28" target-y="5082.86"></path><path d="M 9306.99 5131.87 L 8716.47 5131.87 C 8710.08 5131.87 8703.95 5129.33 8699.43 5124.81 C 8694.91 5120.29 8692.38 5114.16 8692.38 5107.77 L 8692.38 4516.28 C 8692.38 4509.89 8694.91 4503.77 8699.43 4499.25 C 8703.95 4494.73 8710.08 4492.19 8716.47 4492.19 L 9306.99 4492.19 C 9313.38 4492.19 9319.51 4494.73 9324.03 4499.25 C 9328.55 4503.77 9331.09 4509.89 9331.09 4516.28 L 9331.09 5107.77 C 9331.09 5114.16 9328.55 5120.29 9324.03 5124.81 C 9319.51 5129.33 9313.38 5131.87 9306.99 5131.87 Z M 8740.56 5083.68 L 9282.90 5083.68 L 9282.90 4540.38 L 8740.56 4540.38 L 8740.56 5083.68 Z" fill="#e0e0e0" fill-rule="nonzero" node-id="225" stroke="none" target-height="639.6802" target-width="638.70996" target-x="8692.38" target-y="4492.19"></path><path d="M 9306.99 4540.38 L 8716.47 4540.38 C 8710.08 4540.38 8703.95 4537.84 8699.43 4533.32 C 8694.91 4528.81 8692.38 4522.68 8692.38 4516.29 L 8692.38 3925.76 C 8692.38 3919.37 8694.91 3913.24 8699.43 3908.72 C 8703.95 3904.21 8710.08 3901.67 8716.47 3901.67 L 9306.99 3901.67 C 9313.38 3901.67 9319.51 3904.21 9324.03 3908.72 C 9328.55 3913.24 9331.09 3919.37 9331.09 3925.76 L 9331.09 4516.29 C 9331.09 4522.68 9328.55 4528.81 9324.03 4533.32 C 9319.51 4537.84 9313.38 4540.38 9306.99 4540.38 Z M 8740.56 4492.19 L 9282.90 4492.19 L 9282.90 3949.85 L 8740.56 3949.85 L 8740.56 4492.19 Z" fill="#e0e0e0" fill-rule="nonzero" node-id="227" stroke="none" target-height="638.70996" target-width="638.70996" target-x="8692.38" target-y="3901.67"></path><path d="M 9306.99 5131.87 C 9300.67 5131.84 9294.62 5129.33 9290.13 5124.88 L 8699.36 4534.11 C 8694.87 4529.60 8692.36 4523.49 8692.36 4517.13 C 8692.36 4510.76 8694.87 4504.66 8699.36 4500.14 C 8701.60 4497.88 8704.27 4496.09 8707.20 4494.87 C 8710.14 4493.65 8713.29 4493.02 8716.47 4493.02 C 8719.65 4493.02 8722.80 4493.65 8725.73 4494.87 C 8728.67 4496.09 8731.33 4497.88 8733.57 4500.14 L 9324.10 5089.95 C 9327.50 5093.32 9329.82 5097.62 9330.76 5102.31 C 9331.70 5107.01 9331.22 5111.87 9329.39 5116.29 C 9327.55 5120.71 9324.44 5124.48 9320.45 5127.13 C 9316.46 5129.78 9311.78 5131.17 9306.99 5131.15 L 9306.99 5131.87 Z" fill="#e0e0e0" fill-rule="nonzero" node-id="229" stroke="none" target-height="638.8501" target-width="639.33984" target-x="8692.36" target-y="4493.02"></path><path d="M 8716.47 2567.14 L 8125.70 2567.14 C 8119.31 2567.14 8113.18 2564.60 8108.67 2560.08 C 8104.15 2555.56 8101.61 2549.43 8101.61 2543.04 L 8101.61 1951.55 C 8101.61 1945.16 8104.15 1939.04 8108.67 1934.52 C 8113.18 1930.00 8119.31 1927.46 8125.70 1927.46 L 8716.47 1927.46 C 8722.86 1927.46 8728.99 1930.00 8733.51 1934.52 C 8738.03 1939.04 8740.56 1945.16 8740.56 1951.55 L 8740.56 2542.08 C 8740.69 2545.32 8740.17 2548.56 8739.01 2551.60 C 8737.86 2554.63 8736.11 2557.40 8733.86 2559.74 C 8731.61 2562.08 8728.91 2563.95 8725.92 2565.22 C 8722.93 2566.49 8719.72 2567.14 8716.47 2567.14 Z M 8149.80 2518.95 L 8692.38 2518.95 L 8692.38 1975.65 L 8149.80 1975.65 L 8149.80 2518.95 Z" fill="#e0e0e0" fill-rule="nonzero" node-id="231" stroke="none" target-height="639.67993" target-width="639.08057" target-x="8101.61" target-y="1927.46"></path><path d="M 9306.99 2567.14 L 8716.47 2567.14 C 8710.08 2567.14 8703.95 2564.60 8699.43 2560.08 C 8694.91 2555.57 8692.38 2549.44 8692.38 2543.05 C 8692.38 2536.66 8694.91 2530.53 8699.43 2526.01 C 8703.95 2521.49 8710.08 2518.95 8716.47 2518.95 L 9282.90 2518.95 L 9282.90 1362.48 C 9282.90 1356.09 9285.44 1349.96 9289.96 1345.44 C 9294.48 1340.92 9300.60 1338.38 9306.99 1338.38 C 9313.38 1338.38 9319.51 1340.92 9324.03 1345.44 C 9328.55 1349.96 9331.09 1356.09 9331.09 1362.48 L 9331.09 2543.05 C 9331.09 2549.44 9328.55 2555.57 9324.03 2560.08 C 9319.51 2564.60 9313.38 2567.14 9306.99 2567.14 Z" fill="#e0e0e0" fill-rule="nonzero" node-id="233" stroke="none" target-height="1228.7599" target-width="638.70996" target-x="8692.38" target-y="1338.38"></path><path d="M 8716.47 2567.14 C 8712.34 2567.17 8708.28 2566.14 8704.66 2564.14 C 8701.05 2562.15 8698.01 2559.26 8695.83 2555.75 C 8693.65 2552.25 8692.41 2548.24 8692.23 2544.11 C 8692.05 2539.99 8692.93 2535.89 8694.79 2532.20 L 9285.55 1351.63 C 9288.44 1345.96 9293.46 1341.66 9299.51 1339.67 C 9305.56 1337.68 9312.15 1338.17 9317.84 1341.03 C 9323.55 1343.88 9327.91 1348.88 9329.94 1354.93 C 9331.97 1360.98 9331.52 1367.60 9328.68 1373.32 L 8737.91 2553.89 C 8735.91 2557.86 8732.85 2561.20 8729.06 2563.54 C 8725.28 2565.88 8720.92 2567.13 8716.47 2567.14 Z" fill="#e0e0e0" fill-rule="nonzero" node-id="235" stroke="none" target-height="1229.4899" target-width="639.9199" target-x="8692.05" target-y="1337.68"></path><path d="M 8125.70 2567.14 L 7535.18 2567.14 C 7528.79 2567.14 7522.66 2564.60 7518.14 2560.08 C 7513.62 2555.56 7511.08 2549.43 7511.08 2543.04 L 7511.08 1951.55 C 7511.08 1945.16 7513.62 1939.04 7518.14 1934.52 C 7522.66 1930.00 7528.79 1927.46 7535.18 1927.46 L 8125.70 1927.46 C 8132.09 1927.46 8138.22 1930.00 8142.74 1934.52 C 8147.26 1939.04 8149.80 1945.16 8149.80 1951.55 L 8149.80 2542.08 C 8149.93 2545.32 8149.40 2548.56 8148.25 2551.60 C 8147.09 2554.63 8145.34 2557.40 8143.09 2559.74 C 8140.84 2562.08 8138.14 2563.95 8135.15 2565.22 C 8132.16 2566.49 8128.95 2567.14 8125.70 2567.14 Z M 7559.27 2518.95 L 8101.61 2518.95 L 8101.61 1975.65 L 7559.27 1975.65 L 7559.27 2518.95 Z" fill="#e0e0e0" fill-rule="nonzero" node-id="237" stroke="none" target-height="639.67993" target-width="638.8501" target-x="7511.08" target-y="1927.46"></path><path d="M 8125.70 2567.14 C 8120.98 2567.07 8116.39 2565.62 8112.49 2562.97 C 8108.59 2560.32 8105.56 2556.58 8103.76 2552.22 C 8101.96 2547.86 8101.49 2543.07 8102.39 2538.44 C 8103.29 2533.81 8105.53 2529.55 8108.83 2526.18 L 8699.36 1935.41 C 8701.60 1933.15 8704.27 1931.36 8707.20 1930.14 C 8710.14 1928.92 8713.29 1928.29 8716.47 1928.29 C 8719.65 1928.29 8722.80 1928.92 8725.73 1930.14 C 8728.67 1931.36 8731.33 1933.15 8733.57 1935.41 C 8738.06 1939.93 8740.58 1946.03 8740.58 1952.40 C 8740.58 1958.76 8738.06 1964.87 8733.57 1969.38 L 8143.53 2560.15 C 8141.19 2562.47 8138.40 2564.29 8135.34 2565.49 C 8132.27 2566.69 8128.99 2567.25 8125.70 2567.14 Z" fill="#e0e0e0" fill-rule="nonzero" node-id="239" stroke="none" target-height="638.95996" target-width="639.08984" target-x="8101.49" target-y="1928.29"></path><path d="M 9897.76 2567.14 L 9307.00 2567.14 C 9300.61 2567.14 9294.48 2564.60 9289.96 2560.08 C 9285.44 2555.56 9282.90 2549.43 9282.90 2543.04 L 9282.90 1951.55 C 9282.90 1945.16 9285.44 1939.04 9289.96 1934.52 C 9294.48 1930.00 9300.61 1927.46 9307.00 1927.46 L 9897.76 1927.46 C 9904.15 1927.46 9910.28 1930.00 9914.80 1934.52 C 9919.32 1939.04 9921.86 1945.16 9921.86 1951.55 L 9921.86 2542.08 C 9921.99 2545.32 9921.46 2548.56 9920.31 2551.60 C 9919.15 2554.63 9917.40 2557.40 9915.15 2559.74 C 9912.90 2562.08 9910.20 2563.95 9907.21 2565.22 C 9904.22 2566.49 9901.01 2567.14 9897.76 2567.14 Z M 9331.09 2518.95 L 9873.67 2518.95 L 9873.67 1975.65 L 9331.09 1975.65 L 9331.09 2518.95 Z" fill="#e0e0e0" fill-rule="nonzero" node-id="241" stroke="none" target-height="639.67993" target-width="639.08984" target-x="9282.9" target-y="1927.46"></path><path d="M 9307.00 2567.14 C 9302.28 2567.07 9297.69 2565.62 9293.79 2562.97 C 9289.89 2560.32 9286.85 2556.58 9285.05 2552.22 C 9283.26 2547.86 9282.78 2543.07 9283.69 2538.44 C 9284.59 2533.81 9286.83 2529.55 9290.13 2526.18 L 9880.66 1935.41 C 9882.90 1933.15 9885.56 1931.36 9888.50 1930.14 C 9891.43 1928.92 9894.58 1928.29 9897.76 1928.29 C 9900.94 1928.29 9904.09 1928.92 9907.03 1930.14 C 9909.96 1931.36 9912.63 1933.15 9914.87 1935.41 C 9919.36 1939.93 9921.87 1946.03 9921.87 1952.40 C 9921.87 1958.76 9919.36 1964.87 9914.87 1969.38 L 9324.10 2560.15 C 9321.85 2562.38 9319.18 2564.15 9316.25 2565.35 C 9313.31 2566.55 9310.17 2567.16 9307.00 2567.14 Z" fill="#e0e0e0" fill-rule="nonzero" node-id="243" stroke="none" target-height="638.8699" target-width="639.08984" target-x="9282.78" target-y="1928.29"></path><path d="M 5763.11 2567.14 C 5759.94 2567.16 5756.80 2566.55 5753.86 2565.35 C 5750.93 2564.15 5748.26 2562.39 5746.01 2560.15 C 5741.52 2555.64 5739.00 2549.53 5739.00 2543.17 C 5739.00 2536.80 5741.52 2530.70 5746.01 2526.18 L 6336.53 1935.41 C 6339.82 1931.97 6344.13 1929.69 6348.82 1928.91 L 9302.42 1338.14 C 9306.29 1337.37 9310.29 1337.55 9314.07 1338.69 C 9317.85 1339.82 9321.30 1341.87 9324.10 1344.65 L 10504.70 2525.22 C 10507.20 2527.38 10509.20 2530.03 10510.70 2533.02 C 10512.10 2536.01 10512.90 2539.27 10513.10 2542.59 C 10513.20 2545.91 10512.60 2549.21 10511.40 2552.31 C 10510.20 2555.40 10508.40 2558.21 10506.00 2560.55 C 10503.70 2562.90 10500.90 2564.74 10497.80 2565.95 C 10494.70 2567.16 10491.40 2567.72 10488.10 2567.59 C 10484.80 2567.46 10481.50 2566.65 10478.50 2565.21 C 10475.50 2563.76 10472.90 2561.71 10470.70 2559.19 L 9300.01 1388.01 L 6365.69 1975.65 L 5779.98 2561.12 C 5775.34 2565.22 5769.30 2567.37 5763.11 2567.14 Z" fill="#e0e0e0" fill-rule="nonzero" node-id="245" stroke="none" target-height="1230.35" target-width="4774.2" target-x="5739" target-y="1337.37"></path><path d="M 7535.17 2567.14 C 7532.00 2567.16 7528.86 2566.55 7525.93 2565.35 C 7522.99 2564.15 7520.32 2562.39 7518.07 2560.15 C 7513.58 2555.64 7511.06 2549.53 7511.06 2543.17 C 7511.06 2536.80 7513.58 2530.70 7518.07 2526.18 L 8108.84 1935.41 C 8113.45 1931.47 8119.37 1929.40 8125.44 1929.64 C 8131.50 1929.87 8137.25 1932.39 8141.54 1936.68 C 8145.84 1940.97 8148.35 1946.72 8148.58 1952.78 C 8148.82 1958.85 8146.75 1964.78 8142.81 1969.39 L 7552.04 2560.15 C 7547.55 2564.60 7541.50 2567.11 7535.17 2567.14 Z" fill="#e0e0e0" fill-rule="nonzero" node-id="247" stroke="none" target-height="637.7599" target-width="637.75977" target-x="7511.06" target-y="1929.4"></path><path d="M 7535.17 2567.14 L 6944.41 2567.14 C 6938.02 2567.14 6931.89 2564.60 6927.37 2560.08 C 6922.85 2555.56 6920.31 2549.43 6920.31 2543.04 L 6920.31 1951.55 C 6920.31 1945.16 6922.85 1939.04 6927.37 1934.52 C 6931.89 1930.00 6938.02 1927.46 6944.41 1927.46 L 7535.17 1927.46 C 7541.56 1927.46 7547.69 1930.00 7552.21 1934.52 C 7556.73 1939.04 7559.27 1945.16 7559.27 1951.55 L 7559.27 2542.08 C 7559.40 2545.32 7558.87 2548.56 7557.72 2551.60 C 7556.57 2554.63 7554.81 2557.40 7552.56 2559.74 C 7550.31 2562.08 7547.61 2563.95 7544.62 2565.22 C 7541.64 2566.49 7538.42 2567.14 7535.17 2567.14 Z M 6968.50 2518.95 L 7511.08 2518.95 L 7511.08 1975.65 L 6968.50 1975.65 L 6968.50 2518.95 Z" fill="#e0e0e0" fill-rule="nonzero" node-id="249" stroke="none" target-height="639.67993" target-width="639.08984" target-x="6920.31" target-y="1927.46"></path><path d="M 6944.41 2567.14 L 6353.64 2567.14 C 6347.25 2567.14 6341.12 2564.60 6336.60 2560.08 C 6332.09 2555.56 6329.55 2549.43 6329.55 2543.04 L 6329.55 1951.55 C 6329.55 1945.16 6332.09 1939.04 6336.60 1934.52 C 6341.12 1930.00 6347.25 1927.46 6353.64 1927.46 L 6944.41 1927.46 C 6950.80 1927.46 6956.93 1930.00 6961.44 1934.52 C 6965.96 1939.04 6968.50 1945.16 6968.50 1951.55 L 6968.50 2542.08 C 6968.63 2545.32 6968.10 2548.56 6966.95 2551.60 C 6965.80 2554.63 6964.04 2557.40 6961.79 2559.74 C 6959.54 2562.08 6956.84 2563.95 6953.86 2565.22 C 6950.87 2566.49 6947.65 2567.14 6944.41 2567.14 Z M 6377.73 2518.95 L 6920.31 2518.95 L 6920.31 1975.65 L 6377.73 1975.65 L 6377.73 2518.95 Z" fill="#e0e0e0" fill-rule="nonzero" node-id="251" stroke="none" target-height="639.67993" target-width="639.0801" target-x="6329.55" target-y="1927.46"></path><path d="M 6944.41 2567.14 C 6941.24 2567.16 6938.09 2566.55 6935.16 2565.35 C 6932.22 2564.15 6929.55 2562.39 6927.30 2560.15 C 6922.81 2555.64 6920.29 2549.53 6920.29 2543.17 C 6920.29 2536.80 6922.81 2530.70 6927.30 2526.18 L 7517.10 1935.41 C 7521.71 1931.47 7527.64 1929.40 7533.71 1929.64 C 7539.77 1929.87 7545.52 1932.39 7549.81 1936.68 C 7554.10 1940.97 7556.62 1946.72 7556.85 1952.78 C 7557.09 1958.85 7555.02 1964.78 7551.08 1969.39 L 6960.55 2560.15 C 6956.24 2564.43 6950.48 2566.93 6944.41 2567.14 Z" fill="#e0e0e0" fill-rule="nonzero" node-id="253" stroke="none" target-height="637.7599" target-width="636.7998" target-x="6920.29" target-y="1929.4"></path><path d="M 6353.64 2567.14 C 6348.93 2567.07 6344.33 2565.62 6340.43 2562.97 C 6336.53 2560.32 6333.50 2556.58 6331.70 2552.22 C 6329.91 2547.86 6329.43 2543.07 6330.33 2538.44 C 6331.23 2533.81 6333.47 2529.55 6336.78 2526.18 L 6927.30 1935.41 C 6929.54 1933.15 6932.21 1931.36 6935.14 1930.14 C 6938.08 1928.92 6941.23 1928.29 6944.41 1928.29 C 6947.59 1928.29 6950.74 1928.92 6953.67 1930.14 C 6956.61 1931.36 6959.28 1933.15 6961.51 1935.41 C 6966.00 1939.93 6968.52 1946.03 6968.52 1952.40 C 6968.52 1958.76 6966.00 1964.87 6961.51 1969.38 L 6370.75 2560.15 C 6368.50 2562.38 6365.83 2564.15 6362.89 2565.35 C 6359.96 2566.55 6356.81 2567.16 6353.64 2567.14 Z" fill="#e0e0e0" fill-rule="nonzero" node-id="255" stroke="none" target-height="638.8699" target-width="639.08984" target-x="6329.43" target-y="1928.29"></path><path d="M 6353.64 2567.14 L 5763.11 2567.14 C 5756.72 2567.14 5750.59 2564.60 5746.08 2560.08 C 5741.56 2555.56 5739.02 2549.43 5739.02 2543.04 C 5739.02 2536.65 5741.56 2530.53 5746.08 2526.01 C 5750.59 2521.49 5756.72 2518.95 5763.11 2518.95 L 6329.55 2518.95 L 6329.55 1951.55 C 6329.55 1945.16 6332.08 1939.04 6336.60 1934.52 C 6341.12 1930.00 6347.25 1927.46 6353.64 1927.46 C 6360.03 1927.46 6366.16 1930.00 6370.68 1934.52 C 6375.19 1939.04 6377.73 1945.16 6377.73 1951.55 L 6377.73 2542.08 C 6377.86 2545.32 6377.33 2548.56 6376.18 2551.60 C 6375.03 2554.63 6373.28 2557.40 6371.03 2559.74 C 6368.78 2562.08 6366.08 2563.95 6363.09 2565.22 C 6360.10 2566.49 6356.89 2567.14 6353.64 2567.14 Z" fill="#e0e0e0" fill-rule="nonzero" node-id="257" stroke="none" target-height="639.67993" target-width="638.83984" target-x="5739.02" target-y="1927.46"></path><path d="M 9307.00 4540.38 C 9300.68 4540.35 9294.62 4537.84 9290.13 4533.39 L 8699.36 3942.86 C 8697.12 3940.62 8695.33 3937.95 8694.12 3935.02 C 8692.90 3932.08 8692.28 3928.94 8692.28 3925.76 C 8692.28 3922.58 8692.90 3919.44 8694.12 3916.50 C 8695.33 3913.57 8697.12 3910.90 8699.36 3908.65 C 8701.61 3906.41 8704.28 3904.62 8707.21 3903.41 C 8710.15 3902.19 8713.29 3901.57 8716.47 3901.57 C 8719.65 3901.57 8722.79 3902.19 8725.73 3903.41 C 8728.66 3904.62 8731.33 3906.41 8733.58 3908.65 L 9324.10 4499.42 C 9328.59 4503.93 9331.11 4510.04 9331.11 4516.41 C 9331.11 4522.77 9328.59 4528.88 9324.10 4533.39 C 9321.85 4535.62 9319.18 4537.39 9316.25 4538.59 C 9313.31 4539.79 9310.17 4540.40 9307.00 4540.38 Z" fill="#e0e0e0" fill-rule="nonzero" node-id="259" stroke="none" target-height="638.82983" target-width="638.8301" target-x="8692.28" target-y="3901.57"></path><path d="M 9306.99 3949.85 L 8716.47 3949.85 C 8710.08 3949.85 8703.95 3947.31 8699.43 3942.80 C 8694.91 3938.28 8692.38 3932.15 8692.38 3925.76 L 8692.38 3334.99 C 8692.38 3328.60 8694.91 3322.47 8699.43 3317.96 C 8703.95 3313.44 8710.08 3310.90 8716.47 3310.90 L 9306.99 3310.90 C 9313.38 3310.90 9319.51 3313.44 9324.03 3317.96 C 9328.55 3322.47 9331.09 3328.60 9331.09 3334.99 L 9331.09 3925.76 C 9331.09 3932.15 9328.55 3938.28 9324.03 3942.80 C 9319.51 3947.31 9313.38 3949.85 9306.99 3949.85 Z M 8740.56 3901.67 L 9282.90 3901.67 L 9282.90 3359.09 L 8740.56 3359.09 L 8740.56 3901.67 Z" fill="#e0e0e0" fill-rule="nonzero" node-id="261" stroke="none" target-height="638.9502" target-width="638.70996" target-x="8692.38" target-y="3310.9"></path><path d="M 9306.99 3359.09 L 8716.47 3359.09 C 8710.08 3359.09 8703.95 3356.55 8699.43 3352.03 C 8694.91 3347.51 8692.38 3341.38 8692.38 3334.99 L 8692.38 2744.47 C 8692.38 2738.08 8694.91 2731.95 8699.43 2727.43 C 8703.95 2722.91 8710.08 2720.38 8716.47 2720.38 L 9306.99 2720.38 C 9313.38 2720.38 9319.51 2722.91 9324.03 2727.43 C 9328.55 2731.95 9331.09 2738.08 9331.09 2744.47 L 9331.09 3334.99 C 9331.09 3341.38 9328.55 3347.51 9324.03 3352.03 C 9319.51 3356.55 9313.38 3359.09 9306.99 3359.09 Z M 8740.56 3310.90 L 9282.90 3310.90 L 9282.90 2768.56 L 8740.56 2768.56 L 8740.56 3310.90 Z" fill="#e0e0e0" fill-rule="nonzero" node-id="263" stroke="none" target-height="638.7102" target-width="638.70996" target-x="8692.38" target-y="2720.38"></path><path d="M 9307.00 3949.85 C 9300.68 3949.83 9294.62 3947.32 9290.13 3942.87 L 8699.36 3352.10 C 8697.12 3349.85 8695.33 3347.19 8694.12 3344.25 C 8692.90 3341.32 8692.28 3338.17 8692.28 3334.99 C 8692.28 3331.82 8692.90 3328.67 8694.12 3325.73 C 8695.33 3322.80 8697.12 3320.13 8699.36 3317.89 C 8701.61 3315.64 8704.28 3313.86 8707.21 3312.64 C 8710.15 3311.43 8713.29 3310.80 8716.47 3310.80 C 8719.65 3310.80 8722.79 3311.43 8725.73 3312.64 C 8728.66 3313.86 8731.33 3315.64 8733.58 3317.89 L 9324.10 3908.65 C 9327.50 3912.02 9329.82 3916.33 9330.76 3921.02 C 9331.70 3925.71 9331.22 3930.58 9329.39 3935.00 C 9327.55 3939.42 9324.44 3943.19 9320.45 3945.84 C 9316.47 3948.48 9311.78 3949.88 9307.00 3949.85 Z" fill="#e0e0e0" fill-rule="nonzero" node-id="265" stroke="none" target-height="639.07983" target-width="639.4199" target-x="8692.28" target-y="3310.8"></path><path d="M 9306.99 3359.09 C 9300.67 3359.06 9294.62 3356.55 9290.13 3352.10 L 8699.36 2761.33 C 8694.87 2756.82 8692.36 2750.71 8692.36 2744.35 C 8692.36 2737.98 8694.87 2731.88 8699.36 2727.36 C 8701.60 2725.10 8704.27 2723.31 8707.20 2722.09 C 8710.14 2720.86 8713.29 2720.23 8716.47 2720.23 C 8719.65 2720.23 8722.80 2720.86 8725.73 2722.09 C 8728.67 2723.31 8731.33 2725.10 8733.57 2727.36 L 9324.10 3317.89 C 9327.50 3321.26 9329.82 3325.56 9330.76 3330.25 C 9331.70 3334.95 9331.22 3339.81 9329.39 3344.23 C 9327.55 3348.65 9324.44 3352.43 9320.45 3355.07 C 9316.46 3357.72 9311.78 3359.11 9306.99 3359.09 Z" fill="#e0e0e0" fill-rule="nonzero" node-id="267" stroke="none" target-height="638.8801" target-width="639.33984" target-x="8692.36" target-y="2720.23"></path><path d="M 10488.50 2543.05 L 5763.11 2543.05 L 6353.64 2744.47 L 10488.50 2744.47 L 10488.50 2543.05 Z" fill="#e0e0e0" fill-rule="nonzero" node-id="269" stroke="none" target-height="201.41992" target-width="4725.39" target-x="5763.11" target-y="2543.05"></path><path d="M 10488.50 2768.56 L 6353.64 2768.56 C 6351.00 2768.55 6348.39 2768.06 6345.93 2767.11 L 5755.16 2565.94 C 5749.68 2564.14 5745.03 2560.43 5742.05 2555.49 C 5739.07 2550.55 5737.96 2544.71 5738.92 2539.02 C 5739.88 2533.33 5742.85 2528.18 5747.29 2524.50 C 5751.73 2520.82 5757.35 2518.85 5763.11 2518.95 L 10488.50 2518.95 C 10494.90 2518.95 10501.00 2521.49 10505.60 2526.01 C 10510.10 2530.53 10512.60 2536.66 10512.60 2543.05 L 10512.60 2744.47 C 10512.60 2750.86 10510.10 2756.98 10505.60 2761.50 C 10501.00 2766.02 10494.90 2768.56 10488.50 2768.56 Z M 6357.74 2720.37 L 10464.40 2720.37 L 10464.40 2567.14 L 5908.40 2567.14 L 6357.74 2720.37 Z" fill="#e0e0e0" fill-rule="nonzero" node-id="271" stroke="none" target-height="249.70996" target-width="4774.6396" target-x="5737.96" target-y="2518.85"></path><path d="M 8279.18 3573.04 L 8716.47 3573.04 L 8716.47 2643.76 L 8279.18 2643.76 L 8279.18 3573.04 Z" fill="#e0e0e0" fill-rule="nonzero" node-id="273" stroke="none" target-height="929.28" target-width="437.29004" target-x="8279.18" target-y="2643.76"></path><path d="M 8278.93 2643.76 L 8075.59 2643.76 L 8075.59 3573.04 L 8278.93 3573.04 L 8278.93 2643.76 Z" fill="#f5f5f5" fill-rule="nonzero" node-id="275" stroke="none" target-height="929.28" target-width="203.33984" target-x="8075.59" target-y="2643.76"></path><path d="M 8781.52 7887.90 L 9642.61 7887.90 L 9642.61 7469.64 L 8781.52 7469.64 L 8781.52 7887.90 Z" fill="#e0e0e0" fill-rule="nonzero" node-id="277" stroke="none" target-height="418.25977" target-width="861.0908" target-x="8781.52" target-y="7469.64"></path><path d="M 8781.52 7469.88 L 8380.85 7469.88 L 8380.85 7888.14 L 8781.52 7888.14 L 8781.52 7469.88 Z" fill="#f5f5f5" fill-rule="nonzero" node-id="279" stroke="none" target-height="418.26025" target-width="400.66992" target-x="8380.85" target-y="7469.88"></path><path d="M 9897.76 3581.23 C 9891.37 3581.23 9885.24 3578.69 9880.73 3574.17 C 9876.21 3569.65 9873.67 3563.52 9873.67 3557.13 L 9873.67 2643.76 C 9873.67 2637.37 9876.21 2631.24 9880.73 2626.72 C 9885.24 2622.20 9891.37 2619.66 9897.76 2619.66 C 9904.15 2619.66 9910.28 2622.20 9914.80 2626.72 C 9919.32 2631.24 9921.85 2637.37 9921.85 2643.76 L 9921.85 3557.13 C 9921.85 3563.52 9919.32 3569.65 9914.80 3574.17 C 9910.28 3578.69 9904.15 3581.23 9897.76 3581.23 Z" fill="#e0e0e0" fill-rule="nonzero" node-id="281" stroke="none" target-height="961.57007" target-width="48.179688" target-x="9873.67" target-y="2619.66"></path><path d="M 9897.76 3692.05 C 9882.04 3692.05 9866.66 3687.39 9853.59 3678.66 C 9840.51 3669.92 9830.32 3657.50 9824.31 3642.97 C 9818.29 3628.44 9816.71 3612.46 9819.78 3597.04 C 9822.85 3581.61 9830.42 3567.45 9841.54 3556.33 C 9852.66 3545.21 9866.83 3537.63 9882.25 3534.57 C 9897.67 3531.50 9913.66 3533.07 9928.19 3539.09 C 9942.72 3545.11 9955.13 3555.30 9963.87 3568.37 C 9972.61 3581.45 9977.27 3596.82 9977.27 3612.55 C 9977.27 3622.99 9975.21 3633.33 9971.22 3642.97 C 9967.22 3652.62 9961.37 3661.38 9953.98 3668.77 C 9946.60 3676.15 9937.83 3682.01 9928.19 3686.00 C 9918.54 3690.00 9908.20 3692.05 9897.76 3692.05 Z M 9897.76 3581.23 C 9891.57 3581.23 9885.51 3583.06 9880.36 3586.50 C 9875.21 3589.95 9871.20 3594.84 9868.82 3600.56 C 9866.45 3606.28 9865.83 3612.58 9867.04 3618.66 C 9868.25 3624.73 9871.23 3630.31 9875.61 3634.69 C 9879.99 3639.07 9885.58 3642.06 9891.65 3643.27 C 9897.73 3644.47 9904.03 3643.85 9909.75 3641.48 C 9915.47 3639.11 9920.36 3635.10 9923.80 3629.95 C 9927.25 3624.80 9929.08 3618.74 9929.08 3612.55 C 9929.08 3608.43 9928.27 3604.36 9926.70 3600.56 C 9925.13 3596.76 9922.82 3593.31 9919.91 3590.40 C 9917.00 3587.49 9913.55 3585.18 9909.75 3583.61 C 9905.95 3582.04 9901.88 3581.23 9897.76 3581.23 Z" fill="#e0e0e0" fill-rule="nonzero" node-id="283" stroke="none" target-height="160.55005" target-width="160.55957" target-x="9816.71" target-y="3531.5"></path><path d="M 6427.85 4060.68 C 6421.46 4060.68 6415.33 4058.14 6410.81 4053.63 C 6406.29 4049.11 6403.75 4042.98 6403.75 4036.59 L 6403.75 2643.76 C 6403.75 2637.37 6406.29 2631.24 6410.81 2626.72 C 6415.33 2622.20 6421.46 2619.66 6427.85 2619.66 C 6434.24 2619.66 6440.36 2622.20 6444.88 2626.72 C 6449.40 2631.24 6451.94 2637.37 6451.94 2643.76 L 6451.94 4036.59 C 6451.94 4042.98 6449.40 4049.11 6444.88 4053.63 C 6440.36 4058.14 6434.24 4060.68 6427.85 4060.68 Z" fill="#e0e0e0" fill-rule="nonzero" node-id="285" stroke="none" target-height="1441.02" target-width="48.18994" target-x="6403.75" target-y="2619.66"></path><path d="M 6654.08 4205.00 C 6648.34 4205.08 6642.76 4203.12 6638.35 4199.45 C 6633.93 4195.78 6630.97 4190.66 6629.99 4185.00 C 6612.16 4157.05 6455.31 4064.54 6426.64 4060.68 C 6399.66 4064.30 6242.81 4157.05 6224.98 4185.00 C 6224.44 4191.39 6221.38 4197.31 6216.48 4201.44 C 6211.58 4205.57 6205.23 4207.59 6198.84 4207.05 C 6192.45 4206.51 6186.54 4203.45 6182.40 4198.54 C 6178.27 4193.64 6176.25 4187.30 6176.80 4180.91 C 6176.80 4126.70 6395.32 4012.25 6426.88 4012.25 C 6458.45 4012.25 6677.21 4126.46 6677.21 4180.91 C 6677.22 4187.13 6674.81 4193.12 6670.50 4197.61 C 6666.19 4202.10 6660.31 4204.75 6654.08 4205.00 Z" fill="#e0e0e0" fill-rule="nonzero" node-id="287" stroke="none" target-height="195.33984" target-width="500.9702" target-x="6176.25" target-y="4012.25"></path><path d="M 6914.77 5946.46 L 7268.22 5593.02 L 7192.81 5448.46 C 7199.32 5434.00 7205.34 5419.54 7210.88 5404.61 L 7365.80 5356.42 L 7365.80 4857.21 L 7210.88 4809.02 C 7205.10 4794.32 7199.32 4779.63 7192.81 4765.17 L 7267.98 4620.61 L 6914.77 4267.89 L 6770.21 4343.06 C 6755.76 4336.55 6741.30 4330.53 6726.61 4324.99 L 6678.42 4170.07 L 6178.00 4170.07 L 6129.81 4324.99 C 6115.12 4330.53 6100.66 4336.55 6086.21 4343.06 L 5941.65 4267.89 L 5589.64 4621.09 L 5665.05 4765.65 C 5658.31 4780.11 5652.53 4794.81 5646.74 4809.50 L 5491.82 4857.69 L 5491.82 5357.38 L 5646.74 5405.57 C 5652.53 5420.51 5658.31 5434.96 5664.81 5449.42 L 5589.64 5593.98 L 5943.09 5947.43 L 6087.65 5872.02 C 6102.11 5878.52 6116.80 5884.54 6131.50 5890.09 L 6179.69 6045.01 L 6679.62 6045.01 L 6727.81 5890.09 C 6742.51 5884.54 6756.96 5878.52 6771.42 5872.02 L 6914.77 5946.46 Z M 6691.91 5369.91 C 6639.89 5421.96 6573.61 5457.40 6501.44 5471.77 C 6429.28 5486.14 6354.47 5478.79 6286.49 5450.64 C 6218.50 5422.48 6160.39 5374.80 6119.51 5313.63 C 6078.62 5252.45 6056.80 5180.52 6056.80 5106.93 C 6056.80 5033.35 6078.62 4961.42 6119.51 4900.24 C 6160.39 4839.06 6218.50 4791.38 6286.49 4763.23 C 6354.47 4735.08 6429.28 4727.73 6501.44 4742.09 C 6573.61 4756.46 6639.89 4791.91 6691.91 4843.96 C 6726.43 4878.53 6753.79 4919.57 6772.43 4964.73 C 6791.06 5009.89 6800.61 5058.28 6800.52 5107.13 C 6800.43 5155.99 6790.71 5204.34 6771.90 5249.44 C 6753.10 5294.53 6725.59 5335.47 6690.95 5369.91 L 6691.91 5369.91 Z" fill="#e0e0e0" fill-rule="nonzero" node-id="289" stroke="none" target-height="1874.94" target-width="1873.98" target-x="5491.82" target-y="4170.07"></path><path d="M 6023.32 8976.19 C 8603.29 8976.19 10694.80 8854.09 10694.80 8703.46 C 10694.80 8552.83 8603.29 8430.72 6023.32 8430.72 C 3443.35 8430.72 1351.87 8552.83 1351.87 8703.46 C 1351.87 8854.09 3443.35 8976.19 6023.32 8976.19 Z" fill="#f5f5f5" fill-rule="nonzero" node-id="291" stroke="none" target-height="545.4707" target-width="9342.93" target-x="1351.87" target-y="8430.72"></path><path d="M 4237.77 2605.69 L 3937.08 2605.69 C 3923.34 2605.70 3909.83 2609.31 3897.92 2616.16 C 3886.00 2623.00 3876.08 2632.85 3869.14 2644.72 L 3718.80 2905.17 C 3711.93 2917.12 3708.31 2930.66 3708.31 2944.44 C 3708.31 2958.22 3711.93 2971.76 3718.80 2983.71 L 3869.14 3243.92 C 3876.01 3255.86 3885.91 3265.79 3897.84 3272.68 C 3909.77 3279.58 3923.30 3283.20 3937.08 3283.19 L 4237.77 3283.19 C 4251.55 3283.20 4265.08 3279.58 4277.01 3272.68 C 4288.94 3265.79 4298.84 3255.86 4305.71 3243.92 L 4456.05 2983.71 C 4462.92 2971.76 4466.54 2958.22 4466.54 2944.44 C 4466.54 2930.66 4462.92 2917.12 4456.05 2905.17 L 4305.71 2644.72 C 4298.78 2632.85 4288.85 2623.00 4276.94 2616.16 C 4265.02 2609.31 4251.51 2605.70 4237.77 2605.69 Z" fill="#429cfd" fill-rule="nonzero" node-id="293" stroke="none" target-height="677.51" target-width="758.23" target-x="3708.31" target-y="2605.69"></path><g node-id="475"><path d="M 4237.77 2605.69 L 3937.08 2605.69 C 3923.34 2605.70 3909.83 2609.31 3897.92 2616.16 C 3886.00 2623.00 3876.08 2632.85 3869.14 2644.72 L 3718.80 2905.17 C 3711.93 2917.12 3708.31 2930.66 3708.31 2944.44 C 3708.31 2958.22 3711.93 2971.76 3718.80 2983.71 L 3869.14 3243.92 C 3876.01 3255.86 3885.91 3265.79 3897.84 3272.68 C 3909.77 3279.58 3923.30 3283.20 3937.08 3283.19 L 4237.77 3283.19 C 4251.55 3283.20 4265.08 3279.58 4277.01 3272.68 C 4288.94 3265.79 4298.84 3255.86 4305.71 3243.92 L 4456.05 2983.71 C 4462.92 2971.76 4466.54 2958.22 4466.54 2944.44 C 4466.54 2930.66 4462.92 2917.12 4456.05 2905.17 L 4305.71 2644.72 C 4298.78 2632.85 4288.85 2623.00 4276.94 2616.16 C 4265.02 2609.31 4251.51 2605.70 4237.77 2605.69 Z" fill="#ffffff" fill-opacity="0.5" fill-rule="nonzero" group-id="1" node-id="297" stroke="none" target-height="677.51" target-width="758.23" target-x="3708.31" target-y="2605.69"></path></g><path d="M 2312.96 1742.67 L 2295.85 1725.56 L 2440.41 1581.00 L 2457.52 1598.11 L 2312.96 1742.67 Z M 2561.84 1493.78 L 2544.73 1476.68 L 2846.86 1174.55 L 2863.97 1191.41 L 2561.84 1493.78 Z" fill="#429cfd" fill-rule="nonzero" node-id="300" stroke="none" target-height="568.12" target-width="568.1199" target-x="2295.85" target-y="1174.55"></path><path d="M 2312.96 1742.67 L 2295.85 1725.56 L 2440.41 1581.00 L 2457.52 1598.11 L 2312.96 1742.67 Z M 2561.84 1493.78 L 2544.73 1476.68 L 2846.86 1174.55 L 2863.97 1191.41 L 2561.84 1493.78 Z" fill="#ffffff" fill-opacity="0.5" fill-rule="nonzero" group-id="2" node-id="304" stroke="none" target-height="568.12" target-width="568.1199" target-x="2295.85" target-y="1174.55"></path><path d="M 6131.74 3489.67 L 6131.74 2399.21 L 5794.44 2293.44 C 5782.39 2261.15 5769.14 2229.35 5755.16 2197.07 L 5919.24 1883.85 L 5148.25 1112.87 L 4835.04 1277.18 C 4803.48 1262.97 4771.92 1249.72 4738.67 1237.43 L 4632.90 900.12 L 3541.71 900.12 L 3436.18 1237.43 C 3403.66 1249.72 3372.10 1262.97 3339.81 1277.18 L 3026.60 1112.87 L 2255.61 1883.85 L 2419.93 2197.07 C 2405.72 2228.63 2392.46 2260.19 2380.42 2293.44 L 2043.11 2399.21 L 2043.11 3489.67 L 2380.42 3595.20 C 2392.70 3627.49 2405.96 3659.29 2419.93 3691.57 L 2255.61 4004.79 L 3026.60 4775.77 L 3339.81 4611.45 C 3371.13 4625.67 3402.70 4638.92 3436.18 4651.21 L 3541.71 4988.51 L 4632.18 4988.51 L 4737.94 4651.21 C 4770.23 4638.92 4801.79 4625.67 4834.32 4611.45 L 5147.53 4775.77 L 5918.52 4004.79 L 5754.20 3691.57 C 5768.17 3660.25 5781.67 3628.45 5793.71 3595.20 L 6131.74 3489.67 Z M 4898.89 2944.20 C 4898.89 3104.69 4851.30 3261.58 4762.13 3395.02 C 4672.97 3528.47 4546.23 3632.47 4397.96 3693.89 C 4249.68 3755.31 4086.53 3771.38 3929.12 3740.07 C 3771.71 3708.76 3627.12 3631.47 3513.64 3517.99 C 3400.15 3404.50 3322.87 3259.92 3291.56 3102.51 C 3260.25 2945.10 3276.32 2781.94 3337.73 2633.67 C 3399.15 2485.39 3503.16 2358.66 3636.60 2269.49 C 3770.05 2180.33 3926.93 2132.74 4087.43 2132.74 C 4302.62 2132.80 4508.98 2218.32 4661.15 2370.48 C 4813.31 2522.64 4898.82 2729.01 4898.89 2944.20 Z" fill="#429cfd" fill-rule="nonzero" node-id="307" stroke="none" target-height="4088.3848" target-width="4088.6304" target-x="2043.11" target-y="900.125"></path><path d="M 6131.74 3489.67 L 6131.74 2399.21 L 5794.44 2293.44 C 5782.39 2261.15 5769.14 2229.35 5755.16 2197.07 L 5919.24 1883.85 L 5148.25 1112.87 L 4835.04 1277.18 C 4803.48 1262.97 4771.92 1249.72 4738.67 1237.43 L 4632.90 900.12 L 3541.71 900.12 L 3436.18 1237.43 C 3403.66 1249.72 3372.10 1262.97 3339.81 1277.18 L 3026.60 1112.87 L 2255.61 1883.85 L 2419.93 2197.07 C 2405.72 2228.63 2392.46 2260.19 2380.42 2293.44 L 2043.11 2399.21 L 2043.11 3489.67 L 2380.42 3595.20 C 2392.70 3627.49 2405.96 3659.29 2419.93 3691.57 L 2255.61 4004.79 L 3026.60 4775.77 L 3339.81 4611.45 C 3371.13 4625.67 3402.70 4638.92 3436.18 4651.21 L 3541.71 4988.51 L 4632.18 4988.51 L 4737.94 4651.21 C 4770.23 4638.92 4801.79 4625.67 4834.32 4611.45 L 5147.53 4775.77 L 5918.52 4004.79 L 5754.20 3691.57 C 5768.17 3660.25 5781.67 3628.45 5793.71 3595.20 L 6131.74 3489.67 Z M 4898.89 2944.20 C 4898.89 3104.69 4851.30 3261.58 4762.13 3395.02 C 4672.97 3528.47 4546.23 3632.47 4397.96 3693.89 C 4249.68 3755.31 4086.53 3771.38 3929.12 3740.07 C 3771.71 3708.76 3627.12 3631.47 3513.64 3517.99 C 3400.15 3404.50 3322.87 3259.92 3291.56 3102.51 C 3260.25 2945.10 3276.32 2781.94 3337.73 2633.67 C 3399.15 2485.39 3503.16 2358.66 3636.60 2269.49 C 3770.05 2180.33 3926.93 2132.74 4087.43 2132.74 C 4302.62 2132.80 4508.98 2218.32 4661.15 2370.48 C 4813.31 2522.64 4898.82 2729.01 4898.89 2944.20 Z" fill="#ffffff" fill-opacity="0.5" fill-rule="nonzero" group-id="3" node-id="311" stroke="none" target-height="4088.3848" target-width="4088.6304" target-x="2043.11" target-y="900.125"></path><path d="M 4579.65 4922.50 L 3595.44 4922.50 C 3594.14 4922.50 3592.87 4922.08 3591.83 4921.30 C 3590.78 4920.51 3590.02 4919.41 3589.66 4918.16 L 3493.29 4614.11 C 3492.81 4612.57 3492.96 4610.91 3493.70 4609.49 C 3494.45 4608.07 3495.73 4607.00 3497.26 4606.52 C 3498.79 4606.04 3500.46 4606.19 3501.88 4606.93 C 3503.30 4607.68 3504.37 4608.96 3504.85 4610.49 L 3598.57 4910.45 L 4573.87 4910.45 L 4674.10 4593.87 C 4674.38 4593.00 4674.85 4592.21 4675.48 4591.54 C 4676.10 4590.88 4676.86 4590.35 4677.71 4590.01 L 4710.72 4577.73 C 4738.67 4567.12 4768.30 4554.84 4801.79 4539.90 L 4833.84 4525.44 C 4835.31 4524.80 4836.97 4524.78 4838.46 4525.36 C 4839.95 4525.95 4841.15 4527.11 4841.79 4528.58 C 4842.43 4530.05 4842.46 4531.71 4841.87 4533.20 C 4841.28 4534.69 4840.12 4535.89 4838.65 4536.53 L 4806.61 4550.74 C 4773.12 4565.92 4743.00 4578.21 4715.06 4588.81 L 4684.70 4600.37 L 4585.43 4918.16 C 4585.04 4919.40 4584.27 4920.47 4583.23 4921.25 C 4582.20 4922.03 4580.95 4922.46 4579.65 4922.50 Z M 5133.80 4692.89 C 5132.20 4692.84 5130.67 4692.25 5129.46 4691.21 C 5128.88 4690.64 5128.41 4689.97 5128.10 4689.22 C 5127.78 4688.48 5127.62 4687.68 5127.62 4686.87 C 5127.62 4686.06 5127.78 4685.26 5128.10 4684.51 C 5128.41 4683.77 5128.88 4683.09 5129.46 4682.53 L 5822.38 3989.85 L 5668.43 3695.91 C 5668.00 3695.09 5667.78 3694.18 5667.78 3693.26 C 5667.78 3692.34 5668.00 3691.43 5668.43 3690.61 L 5682.88 3658.57 C 5697.34 3626.04 5709.63 3596.17 5720.47 3567.74 L 5732.76 3534.73 C 5733.10 3533.88 5733.62 3533.12 5734.28 3532.49 C 5734.95 3531.87 5735.74 3531.40 5736.61 3531.11 L 6053.44 3432.09 L 6053.44 2457.52 L 5740.23 2359.70 C 5739.36 2359.57 5738.53 2359.26 5737.80 2358.78 C 5737.07 2358.30 5736.45 2357.67 5735.99 2356.93 C 5735.53 2356.19 5735.23 2355.35 5735.12 2354.49 C 5735.01 2353.62 5735.10 2352.74 5735.36 2351.91 C 5735.63 2351.07 5736.07 2350.31 5736.66 2349.67 C 5737.25 2349.02 5737.98 2348.51 5738.78 2348.18 C 5739.59 2347.84 5740.46 2347.69 5741.33 2347.72 C 5742.21 2347.75 5743.06 2347.98 5743.84 2348.37 L 6060.42 2447.16 C 6061.61 2447.59 6062.64 2448.38 6063.37 2449.41 C 6064.10 2450.44 6064.50 2451.67 6064.52 2452.94 L 6064.52 3437.15 C 6064.54 3438.42 6064.15 3439.67 6063.41 3440.71 C 6062.68 3441.75 6061.63 3442.52 6060.42 3442.93 L 5743.12 3541.71 L 5731.79 3572.07 C 5720.95 3600.74 5707.70 3630.62 5693.73 3663.63 L 5680.71 3693.02 L 5835.15 3988.16 C 5835.92 3989.17 5836.33 3990.40 5836.33 3991.66 C 5836.33 3992.92 5835.92 3994.15 5835.15 3995.15 L 5139.34 4691.21 C 5137.86 4692.43 5135.96 4693.03 5134.04 4692.89 L 5133.80 4692.89 Z M 3040.81 4692.89 C 3039.22 4692.84 3037.69 4692.25 3036.48 4691.21 L 2340.66 3995.15 C 2339.97 3994.12 2339.60 3992.90 2339.60 3991.66 C 2339.60 3990.41 2339.97 3989.20 2340.66 3988.16 L 2496.55 3690.37 C 2497.31 3688.97 2498.59 3687.91 2500.11 3687.41 C 2501.64 3686.92 2503.29 3687.03 2504.74 3687.72 C 2505.44 3688.10 2506.05 3688.61 2506.55 3689.23 C 2507.05 3689.84 2507.42 3690.55 2507.65 3691.31 C 2507.87 3692.08 2507.94 3692.87 2507.86 3693.66 C 2507.77 3694.45 2507.53 3695.22 2507.15 3695.91 L 2353.43 3989.85 L 3046.11 4682.53 C 3046.70 4683.09 3047.16 4683.77 3047.48 4684.51 C 3047.79 4685.26 3047.96 4686.06 3047.96 4686.87 C 3047.96 4687.68 3047.79 4688.48 3047.48 4689.22 C 3047.16 4689.97 3046.70 4690.64 3046.11 4691.21 C 3045.43 4691.82 3044.63 4692.28 3043.76 4692.57 C 3042.89 4692.86 3041.97 4692.97 3041.05 4692.89 L 3040.81 4692.89 Z M 3450.40 4584.71 L 3448.23 4584.71 C 3424.14 4575.32 3397.88 4564.23 3368.72 4551.22 C 3367.87 4551.01 3367.07 4550.61 3366.39 4550.06 C 3365.71 4549.51 3365.15 4548.81 3364.77 4548.02 C 3364.38 4547.23 3364.17 4546.37 3364.16 4545.49 C 3364.14 4544.61 3364.32 4543.74 3364.68 4542.93 C 3365.03 4542.13 3365.56 4541.41 3366.22 4540.84 C 3366.89 4540.26 3367.67 4539.83 3368.51 4539.59 C 3369.36 4539.35 3370.25 4539.29 3371.12 4539.43 C 3371.98 4539.56 3372.81 4539.89 3373.54 4540.38 C 3402.45 4553.15 3428.23 4564.47 3452.57 4573.39 C 3453.32 4573.68 3454.00 4574.12 3454.58 4574.68 C 3455.16 4575.24 3455.62 4575.91 3455.93 4576.65 C 3456.25 4577.39 3456.41 4578.19 3456.41 4579.00 C 3456.41 4579.80 3456.25 4580.60 3455.94 4581.34 C 3455.43 4582.47 3454.57 4583.42 3453.49 4584.02 C 3452.40 4584.63 3451.15 4584.87 3449.92 4584.71 L 3450.40 4584.71 Z M 4087.91 3834.45 C 3851.77 3834.00 3625.46 3739.88 3458.65 3572.75 C 3291.83 3405.62 3198.14 3179.13 3198.14 2943.00 C 3198.14 2941.40 3198.78 2939.87 3199.91 2938.74 C 3201.04 2937.61 3202.57 2936.97 3204.17 2936.97 C 3205.76 2936.97 3207.30 2937.61 3208.43 2938.74 C 3209.56 2939.87 3210.19 2941.40 3210.19 2943.00 C 3210.19 3116.59 3261.67 3286.29 3358.11 3430.63 C 3454.56 3574.97 3591.64 3687.47 3752.02 3753.90 C 3912.40 3820.33 4088.88 3837.72 4259.14 3803.85 C 4429.40 3769.98 4585.80 3686.39 4708.55 3563.64 C 4831.30 3440.89 4914.89 3284.49 4948.76 3114.23 C 4982.63 2943.97 4965.25 2767.49 4898.81 2607.11 C 4832.38 2446.73 4719.88 2309.65 4575.54 2213.20 C 4431.20 2116.76 4261.50 2065.28 4087.91 2065.28 C 4086.31 2065.28 4084.78 2064.64 4083.65 2063.51 C 4082.52 2062.38 4081.88 2060.85 4081.88 2059.25 C 4081.88 2057.66 4082.52 2056.13 4083.65 2055.00 C 4084.78 2053.87 4086.31 2053.23 4087.91 2053.23 C 4323.95 2053.23 4550.33 2147.00 4717.24 2313.91 C 4884.15 2480.82 4977.91 2707.19 4977.91 2943.24 C 4977.91 3179.28 4884.15 3405.66 4717.24 3572.57 C 4550.33 3739.47 4323.95 3833.24 4087.91 3833.24 L 4087.91 3834.45 Z M 2449.56 3575.93 C 2448.31 3575.88 2447.09 3575.46 2446.07 3574.74 C 2445.04 3574.01 2444.25 3573.00 2443.78 3571.83 L 2432.46 3541.71 L 2114.19 3442.21 C 2112.98 3441.80 2111.93 3441.02 2111.20 3439.98 C 2110.46 3438.95 2110.07 3437.70 2110.09 3436.43 L 2110.09 2452.22 C 2110.11 2450.95 2110.51 2449.72 2111.24 2448.69 C 2111.97 2447.66 2113.00 2446.87 2114.19 2446.43 L 2418.48 2351.51 C 2420.02 2351.04 2421.67 2351.18 2423.11 2351.90 C 2424.54 2352.61 2425.65 2353.85 2426.19 2355.36 C 2426.59 2356.93 2426.39 2358.58 2425.63 2360.01 C 2424.87 2361.43 2423.62 2362.52 2422.10 2363.07 L 2121.41 2457.52 L 2121.41 3432.81 L 2438.24 3531.84 C 2439.09 3532.10 2439.86 3532.57 2440.49 3533.20 C 2441.12 3533.83 2441.59 3534.60 2441.85 3535.45 L 2454.38 3568.46 C 2454.94 3569.93 2454.90 3571.56 2454.27 3573.00 C 2453.64 3574.44 2452.47 3575.58 2451.01 3576.17 L 2449.56 3575.93 Z M 2449.56 2323.08 L 2447.40 2323.08 C 2445.92 2322.44 2444.75 2321.26 2444.12 2319.78 C 2443.49 2318.30 2443.46 2316.63 2444.02 2315.13 C 2455.59 2284.29 2468.12 2254.89 2481.37 2225.02 C 2482.05 2223.59 2483.26 2222.48 2484.75 2221.94 C 2486.24 2221.40 2487.88 2221.47 2489.32 2222.13 C 2490.05 2222.44 2490.71 2222.90 2491.26 2223.47 C 2491.81 2224.04 2492.25 2224.71 2492.54 2225.45 C 2492.83 2226.19 2492.97 2226.98 2492.96 2227.77 C 2492.94 2228.57 2492.77 2229.35 2492.45 2230.08 C 2478.96 2259.47 2466.91 2288.86 2455.35 2319.46 C 2454.92 2320.77 2454.08 2321.91 2452.95 2322.69 C 2451.82 2323.48 2450.46 2323.87 2449.08 2323.80 L 2449.56 2323.08 Z M 5682.64 2185.50 L 5679.75 2185.50 C 5679.05 2185.13 5678.44 2184.61 5677.94 2184.00 C 5677.44 2183.38 5677.07 2182.67 5676.84 2181.91 C 5676.62 2181.15 5676.55 2180.35 5676.63 2179.56 C 5676.72 2178.77 5676.96 2178.01 5677.34 2177.31 L 5821.90 1899.03 L 5706.25 1782.90 C 5705.56 1782.39 5704.99 1781.73 5704.58 1780.97 C 5704.17 1780.21 5703.92 1779.37 5703.86 1778.51 C 5703.80 1777.65 5703.92 1776.79 5704.22 1775.98 C 5704.53 1775.17 5705.00 1774.44 5705.61 1773.83 C 5706.22 1773.22 5706.95 1772.74 5707.76 1772.44 C 5708.57 1772.14 5709.43 1772.02 5710.29 1772.08 C 5711.16 1772.14 5711.99 1772.38 5712.75 1772.80 C 5713.51 1773.21 5714.17 1773.78 5714.69 1774.47 L 5835.15 1894.94 C 5835.92 1895.94 5836.33 1897.17 5836.33 1898.43 C 5836.33 1899.69 5835.92 1900.92 5835.15 1901.93 L 5687.46 2184.06 C 5686.83 2184.83 5686.01 2185.43 5685.08 2185.81 C 5684.16 2186.19 5683.15 2186.33 5682.16 2186.23 L 5682.64 2185.50 Z M 2345.00 1903.37 C 2343.39 1903.39 2341.84 1902.78 2340.66 1901.68 C 2339.61 1900.53 2339.03 1899.03 2339.03 1897.47 C 2339.03 1895.91 2339.61 1894.41 2340.66 1893.25 L 3035.75 1197.68 C 3036.74 1196.88 3037.98 1196.44 3039.25 1196.44 C 3040.52 1196.44 3041.75 1196.88 3042.74 1197.68 L 3337.88 1352.12 L 3367.28 1339.11 C 3395.71 1326.34 3421.73 1315.01 3446.79 1305.62 C 3447.53 1305.30 3448.33 1305.14 3449.13 1305.15 C 3449.94 1305.15 3450.73 1305.31 3451.47 1305.62 C 3452.21 1305.94 3452.89 1306.40 3453.45 1306.98 C 3454.01 1307.55 3454.45 1308.24 3454.74 1308.99 C 3455.28 1310.49 3455.20 1312.15 3454.53 1313.59 C 3453.85 1315.04 3452.62 1316.16 3451.12 1316.70 C 3427.03 1326.58 3400.53 1337.42 3372.34 1349.95 L 3340.29 1364.40 C 3339.46 1364.76 3338.55 1364.95 3337.64 1364.95 C 3336.73 1364.95 3335.83 1364.76 3334.99 1364.40 L 3041.05 1210.45 L 2349.34 1903.37 C 2347.95 1903.93 2346.39 1903.93 2345.00 1903.37 Z M 5610.12 1683.64 C 5608.51 1683.66 5606.96 1683.05 5605.78 1681.95 L 5131.87 1209.24 L 4837.93 1363.20 C 4837.16 1363.62 4836.29 1363.84 4835.40 1363.84 C 4834.52 1363.84 4833.65 1363.62 4832.87 1363.20 L 4800.83 1348.74 C 4767.82 1334.05 4737.94 1321.76 4709.76 1310.92 L 4676.75 1298.63 C 4675.90 1298.29 4675.14 1297.77 4674.51 1297.10 C 4673.89 1296.44 4673.42 1295.64 4673.13 1294.77 L 4574.11 978.19 L 3599.78 978.19 L 3514.49 1250.68 C 3514.27 1251.44 3513.90 1252.14 3513.40 1252.75 C 3512.90 1253.36 3512.28 1253.86 3511.58 1254.22 C 3510.88 1254.58 3510.12 1254.80 3509.33 1254.85 C 3508.55 1254.91 3507.76 1254.80 3507.02 1254.54 C 3505.53 1254.04 3504.29 1252.98 3503.57 1251.59 C 3502.85 1250.19 3502.71 1248.57 3503.16 1247.07 L 3589.90 970.48 C 3590.31 969.27 3591.09 968.23 3592.13 967.49 C 3593.16 966.75 3594.41 966.37 3595.68 966.38 L 4579.89 966.38 C 4581.16 966.40 4582.39 966.80 4583.42 967.53 C 4584.45 968.27 4585.24 969.29 4585.68 970.48 L 4684.94 1288.51 L 4715.30 1300.08 C 4743.73 1310.68 4773.60 1324.17 4806.85 1338.14 L 4836.25 1351.15 L 5131.87 1196.72 C 5132.88 1195.95 5134.10 1195.54 5135.36 1195.54 C 5136.63 1195.54 5137.85 1195.95 5138.86 1196.72 L 5613.74 1673.76 C 5614.32 1674.32 5614.78 1675.00 5615.10 1675.74 C 5615.42 1676.49 5615.58 1677.29 5615.58 1678.10 C 5615.58 1678.91 5615.42 1679.71 5615.10 1680.46 C 5614.78 1681.20 5614.32 1681.87 5613.74 1682.44 C 5612.75 1683.38 5611.48 1683.97 5610.12 1684.12 L 5610.12 1683.64 Z" fill="#fafafa" fill-rule="nonzero" node-id="314" stroke="none" target-height="3956.133" target-width="3954.47" target-x="2110.07" target-y="966.367"></path><path d="M 7549.39 3141.52 C 7624.80 3237.90 7695.40 3334.27 7764.30 3433.78 C 7833.21 3533.28 7898.74 3634.95 7960.66 3740.96 C 7976.32 3767.23 7991.26 3794.69 8006.44 3821.68 C 8028.34 3862.56 8041.24 3907.66 8044.27 3953.95 C 8048.21 4024.20 8041.38 4094.65 8024.03 4162.84 C 7994.04 4285.45 7948.54 4403.74 7888.62 4514.84 L 7764.54 4466.65 C 7789.18 4355.41 7806.96 4242.77 7817.79 4129.35 C 7822.59 4080.36 7820.97 4030.95 7812.97 3982.38 C 7811.00 3968.89 7805.97 3956.04 7798.27 3944.79 C 7782.37 3920.70 7766.95 3896.61 7750.09 3872.51 C 7684.79 3776.14 7615.65 3681.94 7546.02 3587.25 L 7336.65 3303.43 L 7549.39 3141.52 Z" fill="#ff8b7b" fill-rule="nonzero" node-id="316" stroke="none" target-height="1373.3198" target-width="711.56006" target-x="7336.65" target-y="3141.52"></path><path d="M 7755.87 4452.68 L 7691.78 4567.36 L 7915.37 4600.37 C 7915.37 4600.37 7939.46 4504.00 7883.32 4437.50 L 7755.87 4452.68 Z" fill="#ff8b7b" fill-rule="nonzero" node-id="318" stroke="none" target-height="162.87012" target-width="247.68018" target-x="7691.78" target-y="4437.5"></path><path d="M 7658.05 4719.87 L 7844.29 4738.67 L 7915.37 4600.37 L 7691.78 4567.36 L 7658.05 4719.87 Z" fill="#ff8b7b" fill-rule="nonzero" node-id="320" stroke="none" target-height="171.31006" target-width="257.3203" target-x="7658.05" target-y="4567.36"></path><path d="M 8264.00 5404.12 L 8330.50 5050.19 C 8338.22 5009.13 8361.90 4972.81 8396.36 4949.19 C 8430.82 4925.57 8473.25 4916.57 8514.33 4924.18 L 9072.57 5028.75 C 9039.26 4917.22 8980.03 4815.15 8899.73 4730.89 C 8819.42 4646.63 8720.32 4582.56 8610.51 4543.93 C 8500.71 4505.31 8383.33 4493.21 8267.95 4508.63 C 8152.58 4524.04 8042.49 4566.55 7946.69 4632.65 L 5414.00 3133.57 C 5427.16 2975.08 5388.75 2816.58 5304.49 2681.69 C 5220.24 2546.81 5094.65 2442.76 4946.45 2385.06 C 4798.24 2327.36 4635.36 2319.10 4482.08 2361.51 C 4328.80 2403.91 4193.33 2494.72 4095.86 2620.38 L 4654.10 2724.95 C 4695.10 2732.84 4731.33 2756.61 4754.88 2791.09 C 4778.44 2825.57 4787.42 2867.95 4779.87 2909.02 L 4713.37 3263.19 C 4705.59 3304.22 4681.89 3340.50 4647.44 3364.11 C 4613.00 3387.72 4570.61 3396.74 4529.54 3389.20 L 3971.30 3284.39 C 4004.75 3396.61 4064.42 3499.24 4145.40 3583.82 C 4226.37 3668.40 4326.31 3732.49 4436.96 3770.80 C 4547.61 3809.10 4665.79 3820.52 4781.72 3804.10 C 4897.65 3787.68 5008.02 3743.91 5103.68 3676.39 L 7631.31 5172.58 C 7616.73 5331.41 7654.02 5490.69 7737.58 5626.54 C 7821.15 5762.40 7946.49 5867.51 8094.83 5926.13 C 8243.16 5984.74 8406.50 5993.71 8560.36 5951.68 C 8714.22 5909.65 8850.31 5818.89 8948.25 5693.00 L 8390.01 5588.19 C 8348.96 5580.36 8312.67 5556.61 8289.07 5522.12 C 8265.46 5487.64 8256.45 5445.22 8264.00 5404.12 Z" fill="#429cfd" fill-rule="nonzero" node-id="322" stroke="none" target-height="3674.6099" target-width="5101.2705" target-x="3971.3" target-y="2319.1"></path><path d="M 7633.20 4623.55 L 5579.73 3408.15 C 5542.40 3386.06 5494.22 3398.41 5472.13 3435.74 L 5388.44 3577.15 C 5366.34 3614.48 5378.69 3662.65 5416.02 3684.74 L 7469.50 4900.13 C 7506.83 4922.23 7555.00 4909.88 7577.10 4872.55 L 7660.79 4731.14 C 7682.89 4693.81 7670.54 4645.64 7633.20 4623.55 Z" fill="#429cfd" fill-rule="nonzero" node-id="324" stroke="none" target-height="1536.1699" target-width="2316.5503" target-x="5366.34" target-y="3386.06"></path><path d="M 7633.20 4623.55 L 5579.73 3408.15 C 5542.40 3386.06 5494.22 3398.41 5472.13 3435.74 L 5388.44 3577.15 C 5366.34 3614.48 5378.69 3662.65 5416.02 3684.74 L 7469.50 4900.13 C 7506.83 4922.23 7555.00 4909.88 7577.10 4872.55 L 7660.79 4731.14 C 7682.89 4693.81 7670.54 4645.64 7633.20 4623.55 Z" fill="#ffffff" fill-opacity="0.2" fill-rule="nonzero" group-id="4" node-id="328" stroke="none" target-height="1536.1699" target-width="2316.5503" target-x="5366.34" target-y="3386.06"></path><path d="M 6691.67 2392.70 C 6689.26 2406.92 6680.11 2416.80 6670.95 2416.80 C 6661.79 2416.80 6656.01 2402.58 6658.18 2388.61 C 6660.35 2374.63 6669.74 2364.51 6678.90 2365.72 C 6688.06 2366.92 6693.84 2378.73 6691.67 2392.70 Z" fill="#263238" fill-rule="nonzero" node-id="331" stroke="none" target-height="52.29004" target-width="37.83008" target-x="6656.01" target-y="2364.51"></path><path d="M 6681.31 2417.28 C 6657.74 2457.76 6628.72 2494.81 6595.06 2527.38 C 6603.57 2535.93 6613.84 2542.51 6625.16 2546.67 C 6636.48 2550.83 6648.57 2552.47 6660.59 2551.48 L 6681.31 2417.28 Z" fill="#ff5652" fill-rule="nonzero" node-id="333" stroke="none" target-height="135.18994" target-width="86.25" target-x="6595.06" target-y="2417.28"></path><path d="M 6755.04 2322.59 C 6753.96 2322.60 6752.89 2322.40 6751.90 2321.98 C 6750.90 2321.57 6750.00 2320.96 6749.25 2320.18 C 6742.01 2312.56 6733.05 2306.76 6723.12 2303.29 C 6713.19 2299.81 6702.57 2298.75 6692.15 2300.19 C 6691.06 2300.43 6689.93 2300.46 6688.83 2300.27 C 6687.72 2300.07 6686.67 2299.66 6685.73 2299.05 C 6684.79 2298.45 6683.98 2297.66 6683.34 2296.74 C 6682.71 2295.82 6682.26 2294.78 6682.03 2293.68 C 6681.79 2292.60 6681.76 2291.49 6681.96 2290.40 C 6682.16 2289.31 6682.57 2288.28 6683.18 2287.35 C 6683.79 2286.43 6684.57 2285.64 6685.50 2285.03 C 6686.42 2284.42 6687.45 2284.00 6688.54 2283.80 C 6701.64 2281.72 6715.04 2282.83 6727.62 2287.02 C 6740.20 2291.22 6751.59 2298.37 6760.82 2307.90 C 6762.32 2309.54 6763.16 2311.69 6763.16 2313.92 C 6763.16 2316.15 6762.32 2318.30 6760.82 2319.94 C 6759.26 2321.47 6757.21 2322.41 6755.04 2322.59 Z" fill="#263238" fill-rule="nonzero" node-id="335" stroke="none" target-height="40.880127" target-width="81.40039" target-x="6681.76" target-y="2281.72"></path><path d="M 7162.21 2548.11 C 7138.12 2677.73 7111.62 2915.05 7202.21 3001.30 C 7202.21 3001.30 7166.79 3132.61 6926.10 3132.61 C 6661.07 3132.61 6799.61 3001.30 6799.61 3001.30 C 6944.17 2966.85 6940.31 2859.63 6915.26 2760.37 L 7162.21 2548.11 Z" fill="#ff8b7b" fill-rule="nonzero" node-id="337" stroke="none" target-height="584.5" target-width="541.14014" target-x="6661.07" target-y="2548.11"></path><path d="M 7324.36 3098.64 C 7321.43 3094.37 7319.23 3089.65 7317.85 3084.66 C 7297.61 3007.81 7212.57 2947.81 7102.22 2944.68 C 6985.85 2941.79 6854.54 2955.76 6776.96 3019.85 C 6742.75 3048.04 6780.57 3089.24 6780.57 3089.24 L 7324.36 3098.64 Z" fill="#429cfd" fill-rule="nonzero" node-id="339" stroke="none" target-height="156.84985" target-width="581.60986" target-x="6742.75" target-y="2941.79"></path><path d="M 7324.36 3098.64 C 7321.43 3094.37 7319.23 3089.65 7317.85 3084.66 C 7297.61 3007.81 7212.57 2947.81 7102.22 2944.68 C 6985.85 2941.79 6854.54 2955.76 6776.96 3019.85 C 6742.75 3048.04 6780.57 3089.24 6780.57 3089.24 L 7324.36 3098.64 Z" fill="#ffffff" fill-opacity="0.5" fill-rule="nonzero" group-id="5" node-id="343" stroke="none" target-height="156.84985" target-width="581.60986" target-x="6742.75" target-y="2941.79"></path><path d="M 8175.09 7946.69 L 8173.41 7946.69 C 8169.86 7946.20 8166.56 7944.61 8163.97 7942.14 C 8161.38 7939.68 8159.62 7936.47 8158.95 7932.95 C 8158.11 7930.23 8157.86 7927.35 8158.24 7924.52 C 8158.61 7921.70 8159.60 7918.98 8161.12 7916.57 C 8174.61 7893.68 8233.40 7881.63 8235.08 7881.15 C 8235.89 7880.99 8236.73 7881.07 8237.50 7881.37 C 8238.27 7881.66 8238.93 7882.18 8239.42 7882.84 C 8239.82 7883.54 8240.04 7884.32 8240.04 7885.13 C 8240.04 7885.93 8239.82 7886.72 8239.42 7887.42 C 8230.51 7902.60 8197.50 7946.69 8175.09 7946.69 Z M 8226.89 7891.51 C 8207.62 7896.57 8176.30 7906.93 8168.35 7920.67 C 8167.59 7922.12 8167.19 7923.73 8167.19 7925.36 C 8167.19 7927.00 8167.59 7928.61 8168.35 7930.06 C 8170.52 7937.53 8174.37 7938.01 8175.33 7938.25 C 8186.18 7939.70 8211.71 7913.68 8226.89 7891.51 Z" fill="#429cfd" fill-rule="nonzero" node-id="346" stroke="none" target-height="65.69971" target-width="82.180176" target-x="8157.86" target-y="7880.99"></path><path d="M 8207.14 7892.48 C 8185.21 7892.48 8160.64 7888.38 8153.17 7877.78 C 8151.41 7875.15 8150.60 7872.01 8150.86 7868.85 C 8151.12 7865.70 8152.45 7862.74 8154.61 7860.43 C 8156.57 7857.92 8159.00 7855.81 8161.77 7854.24 C 8164.54 7852.67 8167.59 7851.66 8170.76 7851.28 C 8197.26 7848.39 8237.01 7880.43 8238.70 7881.88 C 8239.31 7882.34 8239.78 7882.97 8240.06 7883.69 C 8240.33 7884.41 8240.39 7885.19 8240.24 7885.94 C 8240.09 7886.70 8239.73 7887.39 8239.20 7887.95 C 8238.67 7888.51 8238.00 7888.91 8237.25 7889.10 C 8227.42 7891.59 8217.28 7892.73 8207.14 7892.48 Z M 8174.85 7859.47 L 8171.72 7859.47 C 8169.67 7859.60 8167.68 7860.18 8165.88 7861.18 C 8164.09 7862.19 8162.55 7863.58 8161.36 7865.25 C 8157.99 7869.59 8159.43 7871.76 8160.16 7872.48 C 8166.90 7882.36 8203.76 7886.21 8226.17 7882.60 C 8211.32 7870.63 8193.65 7862.67 8174.85 7859.47 Z" fill="#429cfd" fill-rule="nonzero" node-id="348" stroke="none" target-height="44.339844" target-width="89.78955" target-x="8150.6" target-y="7848.39"></path><path d="M 6425.20 8531.67 C 6402.55 8531.67 6380.62 8528.54 6373.16 8518.42 C 6371.27 8515.74 6370.26 8512.54 6370.26 8509.26 C 6370.26 8505.99 6371.27 8502.79 6373.16 8500.11 C 6374.63 8497.64 6376.58 8495.50 6378.90 8493.80 C 6381.22 8492.10 6383.85 8490.89 6386.65 8490.23 C 6416.04 8482.28 6477.96 8517.46 6480.61 8519.14 C 6481.34 8519.58 6481.92 8520.23 6482.27 8521.00 C 6482.61 8521.78 6482.71 8522.65 6482.54 8523.48 C 6482.37 8524.31 6481.96 8525.07 6481.36 8525.67 C 6480.76 8526.27 6480.00 8526.68 6479.17 8526.85 C 6461.35 8529.98 6443.29 8531.59 6425.20 8531.67 Z M 6397.01 8497.46 C 6394.37 8497.08 6391.69 8497.08 6389.06 8497.46 C 6387.36 8497.79 6385.76 8498.48 6384.35 8499.48 C 6382.93 8500.47 6381.75 8501.76 6380.87 8503.24 C 6377.73 8508.54 6378.94 8511.19 6380.87 8512.64 C 6389.06 8523.96 6433.87 8524.20 6466.88 8519.62 C 6445.25 8507.76 6421.52 8500.23 6397.01 8497.46 Z" fill="#429cfd" fill-rule="nonzero" node-id="350" stroke="none" target-height="49.38965" target-width="112.450195" target-x="6370.26" target-y="8482.28"></path><path d="M 6478.69 8526.85 L 6477.00 8526.85 C 6455.56 8517.21 6413.15 8478.66 6416.53 8458.91 C 6416.53 8454.09 6420.62 8448.31 6432.19 8447.10 C 6436.48 8446.58 6440.84 8446.95 6444.99 8448.19 C 6449.14 8449.44 6452.98 8451.53 6456.28 8454.33 C 6478.93 8472.88 6483.50 8520.59 6483.75 8522.52 C 6483.84 8523.25 6483.73 8524.00 6483.44 8524.68 C 6483.14 8525.35 6482.66 8525.94 6482.06 8526.37 C 6481.04 8526.96 6479.83 8527.13 6478.69 8526.85 Z M 6435.56 8454.57 L 6432.91 8454.57 C 6425.44 8454.57 6424.96 8458.19 6424.72 8459.15 C 6422.79 8471.20 6451.70 8501.31 6472.90 8514.32 C 6470.70 8494.12 6462.28 8475.10 6448.81 8459.87 C 6445.04 8456.87 6440.38 8455.17 6435.56 8455.05 L 6435.56 8454.57 Z" fill="#429cfd" fill-rule="nonzero" node-id="352" stroke="none" target-height="80.549805" target-width="70.68994" target-x="6413.15" target-y="8446.58"></path><path d="M 6673.36 8522.76 L 6496.27 8522.76 L 6478.69 8112.93 L 6655.77 8112.93 L 6673.36 8522.76 Z" fill="#ff8b7b" fill-rule="nonzero" node-id="354" stroke="none" target-height="409.8296" target-width="194.66992" target-x="6478.69" target-y="8112.93"></path><path d="M 8394.34 7759.24 L 8250.75 7862.84 L 7912.00 7601.67 L 8055.59 7498.31 L 8394.34 7759.24 Z" fill="#ff8b7b" fill-rule="nonzero" node-id="356" stroke="none" target-height="364.5298" target-width="482.33984" target-x="7912" target-y="7498.31"></path><path d="M 8230.27 7861.40 L 8368.08 7716.84 C 8370.49 7714.31 8373.70 7712.68 8377.17 7712.25 C 8380.64 7711.81 8384.15 7712.58 8387.11 7714.43 L 8524.93 7798.03 C 8528.23 7800.12 8531.02 7802.92 8533.11 7806.22 C 8535.19 7809.52 8536.51 7813.25 8536.97 7817.12 C 8537.43 7821.00 8537.02 7824.93 8535.77 7828.63 C 8534.52 7832.33 8532.47 7835.71 8529.75 7838.51 C 8481.56 7887.90 8454.34 7909.34 8393.86 7972.47 C 8356.52 8011.26 8255.32 8147.63 8203.77 8201.35 C 8152.21 8255.08 8092.70 8210.99 8108.84 8184.49 C 8181.12 8065.47 8216.29 7947.41 8218.22 7888.62 C 8218.92 7878.42 8223.18 7868.78 8230.27 7861.40 Z" fill="#263238" fill-rule="nonzero" node-id="358" stroke="none" target-height="543.27" target-width="444.7295" target-x="8092.7" target-y="7711.81"></path><path d="M 6497.48 8502.28 L 6690.22 8502.28 C 6693.75 8502.25 6697.18 8503.43 6699.94 8505.62 C 6702.70 8507.81 6704.63 8510.88 6705.40 8514.32 L 6740.34 8671.65 C 6741.17 8675.45 6741.14 8679.39 6740.24 8683.17 C 6739.34 8686.95 6737.60 8690.48 6735.14 8693.49 C 6732.68 8696.50 6729.58 8698.92 6726.06 8700.56 C 6722.53 8702.20 6718.69 8703.03 6714.80 8702.97 C 6645.17 8702.97 6544.46 8697.92 6456.76 8697.92 C 6354.12 8697.92 6265.70 8703.46 6145.47 8703.46 C 6073.19 8703.46 6052.71 8629.97 6083.07 8623.23 C 6221.61 8593.11 6334.61 8589.74 6454.35 8516.01 C 6467.16 8507.49 6482.10 8502.73 6497.48 8502.28 Z" fill="#263238" fill-rule="nonzero" node-id="360" stroke="none" target-height="201.20996" target-width="688.45996" target-x="6052.71" target-y="8502.25"></path><path d="M 7301.71 3374.99 C 7325.80 3419.56 7353.03 3462.69 7379.29 3502.92 C 7424.59 3572.55 7468.44 3632.78 7499.76 3674.23 C 7527.95 3711.57 7546.02 3733.49 7546.02 3733.49 L 7902.60 3490.39 C 7902.60 3490.39 7685.76 3068.28 7518.79 3041.29 C 7347.01 3014.07 7189.68 3175.01 7301.71 3374.99 Z" fill="#429cfd" fill-rule="nonzero" node-id="362" stroke="none" target-height="719.4199" target-width="712.9199" target-x="7189.68" target-y="3014.07"></path><path d="M 7301.71 3374.99 C 7325.80 3419.56 7353.03 3462.69 7379.29 3502.92 C 7424.59 3572.55 7468.44 3632.78 7499.76 3674.23 C 7527.95 3711.57 7546.02 3733.49 7546.02 3733.49 L 7902.60 3490.39 C 7902.60 3490.39 7685.76 3068.28 7518.79 3041.29 C 7347.01 3014.07 7189.68 3175.01 7301.71 3374.99 Z" fill="#000000" fill-opacity="0.5" fill-rule="nonzero" group-id="6" node-id="366" stroke="none" target-height="719.4199" target-width="712.9199" target-x="7189.68" target-y="3014.07"></path><path d="M 7379.29 3502.92 C 7424.59 3572.55 7468.44 3632.79 7499.76 3674.23 C 7496.15 3591.34 7479.04 3457.39 7414.71 3355.23 C 7391.34 3378.36 7381.94 3438.11 7379.29 3502.92 Z" fill="#429cfd" fill-rule="nonzero" node-id="369" stroke="none" target-height="319" target-width="120.46973" target-x="7379.29" target-y="3355.23"></path><path d="M 7379.29 3502.92 C 7424.59 3572.55 7468.44 3632.79 7499.76 3674.23 C 7496.15 3591.34 7479.04 3457.39 7414.71 3355.23 C 7391.34 3378.36 7381.94 3438.11 7379.29 3502.92 Z" fill="#000000" fill-opacity="0.6" fill-rule="nonzero" group-id="7" node-id="373" stroke="none" target-height="319" target-width="120.46973" target-x="7379.29" target-y="3355.23"></path><path d="M 6440.38 3627.48 C 6440.38 3687.72 6441.82 3753.97 6445.19 3826.97 C 6453.87 4025.50 6475.55 4272.94 6517.47 4580.37 L 7464.10 4580.37 C 7470.60 4435.81 7379.29 3726.02 7519.51 3041.29 C 7414.80 3021.15 7308.89 3007.79 7202.45 3001.30 C 7068.44 2993.58 6934.10 2993.58 6800.09 3001.30 C 6708.24 3010.38 6617.22 3026.49 6527.83 3049.48 C 6527.83 3049.48 6440.13 3148.99 6440.38 3627.48 Z" fill="#429cfd" fill-rule="nonzero" node-id="376" stroke="none" target-height="1586.79" target-width="1079.3799" target-x="6440.13" target-y="2993.58"></path><path d="M 6440.38 3627.48 C 6440.38 3687.72 6441.82 3753.97 6445.19 3826.97 C 6453.87 4025.50 6475.55 4272.94 6517.47 4580.37 L 7464.10 4580.37 C 7470.60 4435.81 7379.29 3726.02 7519.51 3041.29 C 7414.80 3021.15 7308.89 3007.79 7202.45 3001.30 C 7068.44 2993.58 6934.10 2993.58 6800.09 3001.30 C 6708.24 3010.38 6617.22 3026.49 6527.83 3049.48 C 6527.83 3049.48 6440.13 3148.99 6440.38 3627.48 Z" fill="#000000" fill-opacity="0.5" fill-rule="nonzero" group-id="8" node-id="380" stroke="none" target-height="1586.79" target-width="1079.3799" target-x="6440.13" target-y="2993.58"></path><path d="M 6440.38 3627.48 C 6440.38 3687.71 6441.82 3753.97 6445.20 3826.97 C 6556.27 3718.55 6563.73 3497.14 6563.73 3497.14 L 6440.38 3627.48 Z" fill="#429cfd" fill-rule="nonzero" node-id="383" stroke="none" target-height="329.83008" target-width="123.3501" target-x="6440.38" target-y="3497.14"></path><path d="M 6440.38 3627.48 C 6440.38 3687.71 6441.82 3753.97 6445.20 3826.97 C 6556.27 3718.55 6563.73 3497.14 6563.73 3497.14 L 6440.38 3627.48 Z" fill="#000000" fill-opacity="0.6" fill-rule="nonzero" group-id="9" node-id="387" stroke="none" target-height="329.83008" target-width="123.3501" target-x="6440.38" target-y="3497.14"></path><path d="M 6637.70 3352.58 C 6619.49 3383.05 6599.37 3412.34 6577.47 3440.28 C 6557.47 3466.30 6537.47 3490.87 6516.99 3515.21 C 6476.28 3563.39 6432.67 3609.89 6388.34 3654.95 C 6297.51 3747.16 6196.93 3829.24 6088.37 3899.74 C 6059.16 3918.02 6029.00 3934.74 5998.02 3949.85 L 5985.74 3955.63 L 5979.71 3958.52 L 5972.25 3961.66 C 5960.35 3966.69 5948.11 3970.87 5935.62 3974.18 L 5918.04 3978.76 L 5901.17 3981.65 C 5890.41 3983.52 5879.55 3984.73 5868.64 3985.27 C 5796.12 3987.66 5723.74 3977.47 5654.70 3955.15 C 5532.66 3917.18 5416.34 3862.79 5308.96 3793.48 L 5366.06 3673.02 C 5475.63 3705.82 5587.27 3731.25 5700.23 3749.15 C 5748.04 3757.18 5796.79 3757.83 5844.79 3751.08 C 5848.90 3750.41 5852.93 3749.36 5856.84 3747.95 L 5862.14 3746.50 L 5865.99 3744.82 C 5869.13 3744.82 5869.85 3742.41 5871.78 3741.68 L 5886.23 3733.25 C 5908.41 3720.36 5929.89 3706.28 5950.56 3691.09 C 6039.48 3624.19 6122.14 3549.35 6197.52 3467.50 C 6236.79 3426.30 6274.62 3383.18 6311.48 3340.29 C 6329.79 3318.61 6347.62 3296.92 6364.24 3275.00 C 6380.87 3253.07 6397.97 3230.67 6407.85 3215.25 L 6637.70 3352.58 Z" fill="#ff8b7b" fill-rule="nonzero" node-id="390" stroke="none" target-height="772.4099" target-width="1328.7402" target-x="5308.96" target-y="3215.25"></path><path d="M 5392.08 3705.55 L 5274.50 3565.80 L 5194.51 3770.12 C 5194.51 3770.12 5295.95 3818.30 5374.97 3790.35 L 5392.08 3705.55 Z" fill="#ff8b7b" fill-rule="nonzero" node-id="392" stroke="none" target-height="252.5" target-width="197.57031" target-x="5194.51" target-y="3565.8"></path><path d="M 5102.00 3535.21 L 5069.23 3698.32 L 5194.51 3769.88 L 5274.50 3565.56 L 5102.00 3535.21 Z" fill="#ff8b7b" fill-rule="nonzero" node-id="394" stroke="none" target-height="234.66992" target-width="205.27002" target-x="5069.23" target-y="3535.21"></path><path d="M 6779.61 3256.69 C 6758.65 3425.34 6376.05 3780.72 6376.05 3780.72 L 6031.51 3507.50 C 6118.12 3379.49 6219.35 3262.00 6333.16 3157.42 C 6582.77 2941.07 6804.91 3055.27 6779.61 3256.69 Z" fill="#429cfd" fill-rule="nonzero" node-id="396" stroke="none" target-height="839.6499" target-width="773.4004" target-x="6031.51" target-y="2941.07"></path><path d="M 6779.61 3256.69 C 6758.65 3425.34 6376.05 3780.72 6376.05 3780.72 L 6031.51 3507.50 C 6118.12 3379.49 6219.35 3262.00 6333.16 3157.42 C 6582.77 2941.07 6804.91 3055.27 6779.61 3256.69 Z" fill="#000000" fill-opacity="0.5" fill-rule="nonzero" group-id="10" node-id="400" stroke="none" target-height="839.6499" target-width="773.4004" target-x="6031.51" target-y="2941.07"></path><path d="M 6481.09 4395.09 C 6824.90 4395.09 6903.45 4006.23 6921.52 3839.26 C 6878.10 3556.88 6777.51 3286.33 6625.89 3044.18 C 6624.03 3041.22 6622.91 3037.85 6622.65 3034.36 C 6622.38 3030.86 6622.98 3027.36 6624.38 3024.15 C 6625.78 3020.94 6627.95 3018.13 6630.69 3015.95 C 6633.43 3013.77 6636.67 3012.30 6640.11 3011.66 L 6715.52 2997.68 C 6719.81 2996.98 6724.21 2997.54 6728.19 2999.29 C 6732.17 3001.04 6735.55 3003.92 6737.93 3007.56 C 6944.89 3338.84 7012.59 3619.77 7034.52 3764.33 L 7096.20 3764.33 C 7159.32 3627.00 7298.34 3314.03 7287.01 3020.81 C 7286.80 3017.67 7287.30 3014.52 7288.46 3011.59 C 7289.62 3008.66 7291.42 3006.02 7293.73 3003.88 C 7296.04 3001.73 7298.80 3000.13 7301.80 2999.18 C 7304.81 2998.23 7307.99 2997.97 7311.11 2998.41 L 7392.06 3006.36 C 7397.27 3006.71 7402.16 3008.97 7405.81 3012.70 C 7409.45 3016.43 7411.59 3021.38 7411.82 3026.60 C 7423.62 3309.21 7263.88 3701.21 7202.45 3825.77 C 7223.41 4286.91 7480.00 4366.66 7480.00 4366.66 C 7486.32 4481.33 7481.23 4596.33 7464.82 4709.99 C 6921.52 4798.17 6650.71 4744.45 6495.79 4680.36 C 6507.84 4564.47 6486.15 4483.28 6481.09 4395.09 Z" fill="#429cfd" fill-rule="nonzero" node-id="403" stroke="none" target-height="1801.19" target-width="1005.23" target-x="6481.09" target-y="2996.98"></path><path d="M 6481.09 4395.09 C 6824.90 4395.09 6903.45 4006.23 6921.52 3839.26 C 6878.10 3556.88 6777.51 3286.33 6625.89 3044.18 C 6624.03 3041.22 6622.91 3037.85 6622.65 3034.36 C 6622.38 3030.86 6622.98 3027.36 6624.38 3024.15 C 6625.78 3020.94 6627.95 3018.13 6630.69 3015.95 C 6633.43 3013.77 6636.67 3012.30 6640.11 3011.66 L 6715.52 2997.68 C 6719.81 2996.98 6724.21 2997.54 6728.19 2999.29 C 6732.17 3001.04 6735.55 3003.92 6737.93 3007.56 C 6944.89 3338.84 7012.59 3619.77 7034.52 3764.33 L 7096.20 3764.33 C 7159.32 3627.00 7298.34 3314.03 7287.01 3020.81 C 7286.80 3017.67 7287.30 3014.52 7288.46 3011.59 C 7289.62 3008.66 7291.42 3006.02 7293.73 3003.88 C 7296.04 3001.73 7298.80 3000.13 7301.80 2999.18 C 7304.81 2998.23 7307.99 2997.97 7311.11 2998.41 L 7392.06 3006.36 C 7397.27 3006.71 7402.16 3008.97 7405.81 3012.70 C 7409.45 3016.43 7411.59 3021.38 7411.82 3026.60 C 7423.62 3309.21 7263.88 3701.21 7202.45 3825.77 C 7223.41 4286.91 7480.00 4366.66 7480.00 4366.66 C 7486.32 4481.33 7481.23 4596.33 7464.82 4709.99 C 6921.52 4798.17 6650.71 4744.45 6495.79 4680.36 C 6507.84 4564.47 6486.15 4483.28 6481.09 4395.09 Z" fill="#000000" fill-opacity="0.3" fill-rule="nonzero" group-id="11" node-id="407" stroke="none" target-height="1801.19" target-width="1005.23" target-x="6481.09" target-y="2996.98"></path><path d="M 6478.69 8112.93 L 6487.84 8324.23 L 6664.93 8324.23 L 6655.77 8112.93 L 6478.69 8112.93 Z" fill="#ff5652" fill-rule="nonzero" node-id="410" stroke="none" target-height="211.3003" target-width="186.24023" target-x="6478.69" target-y="8112.93"></path><path d="M 8055.83 7498.31 L 7912.23 7601.91 L 8086.91 7736.35 L 8230.51 7632.75 L 8055.83 7498.31 Z" fill="#ff5652" fill-rule="nonzero" node-id="412" stroke="none" target-height="238.04004" target-width="318.2798" target-x="7912.23" target-y="7498.31"></path><path d="M 7166.79 2436.55 C 7128.96 2608.10 7115.47 2710.49 7014.04 2785.66 C 6861.53 2898.90 6660.11 2785.66 6645.89 2606.65 C 6633.12 2445.23 6696.97 2191.76 6877.43 2148.88 C 6917.15 2139.69 6958.55 2140.73 6997.76 2151.90 C 7036.97 2163.07 7072.70 2184.00 7101.61 2212.75 C 7130.52 2241.49 7151.67 2277.10 7163.07 2316.24 C 7174.47 2355.38 7175.75 2396.78 7166.79 2436.55 Z" fill="#ff8b7b" fill-rule="nonzero" node-id="414" stroke="none" target-height="759.20996" target-width="542.6299" target-x="6633.12" target-y="2139.69"></path><path d="M 7319.78 2170.32 C 7470.36 2174.42 7408.44 2253.69 7333.03 2297.29 C 7333.03 2297.29 7420.01 2338.98 7375.20 2438.48 C 7307.25 2589.55 7177.15 2755.55 7044.40 2746.39 C 6879.12 2735.07 6832.13 2555.33 6838.16 2378.01 C 6750.94 2295.85 6736.24 2250.55 6722.75 2151.77 C 6695.52 1955.89 6818.40 1848.20 7319.78 2170.32 Z" fill="#263238" fill-rule="nonzero" node-id="416" stroke="none" target-height="907.3501" target-width="774.83984" target-x="6695.52" target-y="1848.2"></path><path d="M 7125.83 1840.24 C 7228.92 1866.69 7317.29 1932.99 7371.51 2024.57 C 7425.72 2116.15 7441.35 2225.51 7414.95 2328.61 L 6636.98 2130.09 C 6650.02 2078.94 6673.01 2030.87 6704.64 1988.61 C 6736.28 1946.36 6775.93 1910.76 6821.33 1883.84 C 6866.73 1856.92 6916.99 1839.21 6969.24 1831.73 C 7021.49 1824.25 7074.70 1827.14 7125.83 1840.24 Z" fill="#429cfd" fill-rule="nonzero" node-id="418" stroke="none" target-height="504.3601" target-width="804.3701" target-x="6636.98" target-y="1824.25"></path><path d="M 7125.83 1840.24 C 7228.92 1866.69 7317.29 1932.99 7371.51 2024.57 C 7425.72 2116.15 7441.35 2225.51 7414.95 2328.61 L 6636.98 2130.09 C 6650.02 2078.94 6673.01 2030.87 6704.64 1988.61 C 6736.28 1946.36 6775.93 1910.76 6821.33 1883.84 C 6866.73 1856.92 6916.99 1839.21 6969.24 1831.73 C 7021.49 1824.25 7074.70 1827.14 7125.83 1840.24 Z" fill="#ffffff" fill-opacity="0.5" fill-rule="nonzero" group-id="12" node-id="422" stroke="none" target-height="504.3601" target-width="804.3701" target-x="6636.98" target-y="1824.25"></path><path d="M 7279.55 2329.10 C 7274.17 2329.17 7268.84 2328.00 7263.99 2325.67 C 7259.15 2323.33 7254.91 2319.91 7251.61 2315.65 C 7248.32 2311.40 7246.06 2306.44 7245.01 2301.16 C 7243.96 2295.88 7244.15 2290.44 7245.57 2285.25 C 7256.39 2241.49 7257.89 2195.95 7249.96 2151.57 C 7242.03 2107.20 7224.86 2064.99 7199.56 2027.69 C 7145.42 1946.23 7062.58 1888.16 6967.54 1865.06 C 6958.50 1862.76 6950.74 1856.96 6945.97 1848.94 C 6941.20 1840.92 6939.82 1831.34 6942.12 1822.29 C 6944.42 1813.25 6950.22 1805.49 6958.24 1800.73 C 6966.26 1795.96 6975.84 1794.57 6984.88 1796.88 C 7097.04 1824.43 7194.69 1893.26 7258.34 1989.62 C 7289.00 2035.04 7309.77 2086.39 7319.31 2140.34 C 7328.86 2194.30 7326.97 2249.66 7313.76 2302.83 C 7311.78 2310.39 7307.34 2317.07 7301.15 2321.82 C 7294.95 2326.58 7287.35 2329.14 7279.55 2329.10 Z" fill="#429cfd" fill-rule="nonzero" node-id="425" stroke="none" target-height="534.6" target-width="389.04004" target-x="6939.82" target-y="1794.57"></path><path d="M 7279.55 2329.10 C 7274.17 2329.17 7268.84 2328.00 7263.99 2325.67 C 7259.15 2323.33 7254.91 2319.91 7251.61 2315.65 C 7248.32 2311.40 7246.06 2306.44 7245.01 2301.16 C 7243.96 2295.88 7244.15 2290.44 7245.57 2285.25 C 7256.39 2241.49 7257.89 2195.95 7249.96 2151.57 C 7242.03 2107.20 7224.86 2064.99 7199.56 2027.69 C 7145.42 1946.23 7062.58 1888.16 6967.54 1865.06 C 6958.50 1862.76 6950.74 1856.96 6945.97 1848.94 C 6941.20 1840.92 6939.82 1831.34 6942.12 1822.29 C 6944.42 1813.25 6950.22 1805.49 6958.24 1800.73 C 6966.26 1795.96 6975.84 1794.57 6984.88 1796.88 C 7097.04 1824.43 7194.69 1893.26 7258.34 1989.62 C 7289.00 2035.04 7309.77 2086.39 7319.31 2140.34 C 7328.86 2194.30 7326.97 2249.66 7313.76 2302.83 C 7311.78 2310.39 7307.34 2317.07 7301.15 2321.82 C 7294.95 2326.58 7287.35 2329.14 7279.55 2329.10 Z" fill="#ffffff" fill-opacity="0.3" fill-rule="nonzero" group-id="13" node-id="429" stroke="none" target-height="534.6" target-width="389.04004" target-x="6939.82" target-y="1794.57"></path><path d="M 6529.28 2140.44 L 7444.83 2374.15 C 7454.35 2376.56 7464.43 2375.10 7472.88 2370.09 C 7481.33 2365.08 7487.44 2356.92 7489.88 2347.41 C 7492.30 2337.85 7490.85 2327.73 7485.84 2319.25 C 7480.83 2310.77 7472.67 2304.61 7463.14 2302.11 L 6547.59 2068.41 C 6538.01 2065.99 6527.86 2067.48 6519.37 2072.54 C 6510.88 2077.60 6504.74 2085.81 6502.30 2095.39 C 6501.11 2100.12 6500.86 2105.04 6501.57 2109.86 C 6502.28 2114.69 6503.94 2119.33 6506.45 2123.51 C 6508.95 2127.70 6512.26 2131.35 6516.18 2134.25 C 6520.10 2137.16 6524.55 2139.26 6529.28 2140.44 Z" fill="#429cfd" fill-rule="nonzero" node-id="432" stroke="none" target-height="310.57007" target-width="991.43994" target-x="6500.86" target-y="2065.99"></path><path d="M 6529.28 2140.44 L 7444.83 2374.15 C 7454.35 2376.56 7464.43 2375.10 7472.88 2370.09 C 7481.33 2365.08 7487.44 2356.92 7489.88 2347.41 C 7492.30 2337.85 7490.85 2327.73 7485.84 2319.25 C 7480.83 2310.77 7472.67 2304.61 7463.14 2302.11 L 6547.59 2068.41 C 6538.01 2065.99 6527.86 2067.48 6519.37 2072.54 C 6510.88 2077.60 6504.74 2085.81 6502.30 2095.39 C 6501.11 2100.12 6500.86 2105.04 6501.57 2109.86 C 6502.28 2114.69 6503.94 2119.33 6506.45 2123.51 C 6508.95 2127.70 6512.26 2131.35 6516.18 2134.25 C 6520.10 2137.16 6524.55 2139.26 6529.28 2140.44 Z" fill="#ffffff" fill-opacity="0.3" fill-rule="nonzero" group-id="14" node-id="436" stroke="none" target-height="310.57007" target-width="991.43994" target-x="6500.86" target-y="2065.99"></path><path d="M 6928.51 2420.41 C 6924.01 2463.83 6905.19 2504.51 6875.02 2536.06 C 6835.02 2577.26 6795.51 2549.55 6790.45 2497.51 C 6785.87 2450.77 6801.29 2372.94 6849.24 2351.26 C 6897.18 2329.58 6933.57 2368.13 6928.51 2420.41 Z" fill="#ff8b7b" fill-rule="nonzero" node-id="439" stroke="none" target-height="247.67993" target-width="147.6997" target-x="6785.87" target-y="2329.58"></path><path d="M 6852.85 4580.37 C 6852.85 4580.37 6832.37 5839.97 6990.67 6333.88 C 7241.48 7116.19 7998.97 7749.84 7998.97 7749.84 L 8269.78 7554.45 C 8269.78 7554.45 7639.02 7019.09 7523.37 6360.62 C 7419.53 5768.65 7463.62 5064.41 7463.62 4580.85 L 6852.85 4580.37 Z" fill="#429cfd" fill-rule="nonzero" node-id="441" stroke="none" target-height="3169.4697" target-width="1437.4102" target-x="6832.37" target-y="4580.37"></path><path d="M 6852.85 4580.37 C 6852.85 4580.37 6832.37 5839.97 6990.67 6333.88 C 7241.48 7116.19 7998.97 7749.84 7998.97 7749.84 L 8269.78 7554.45 C 8269.78 7554.45 7639.02 7019.09 7523.37 6360.62 C 7419.53 5768.65 7463.62 5064.41 7463.62 4580.85 L 6852.85 4580.37 Z" fill="#000000" fill-opacity="0.3" fill-rule="nonzero" group-id="15" node-id="445" stroke="none" target-height="3169.4697" target-width="1437.4102" target-x="6832.37" target-y="4580.37"></path><path d="M 7029.46 4796.73 C 7062.95 5023.69 6944.65 5655.65 6903.69 5862.62 C 6860.80 5475.68 6852.85 5016.70 6852.13 4766.13 C 6938.87 4707.34 7014.04 4692.16 7029.46 4796.73 Z" fill="#429cfd" fill-rule="nonzero" node-id="448" stroke="none" target-height="1170.46" target-width="210.82031" target-x="6852.13" target-y="4692.16"></path><path d="M 7029.46 4796.73 C 7062.95 5023.69 6944.65 5655.65 6903.69 5862.62 C 6860.80 5475.68 6852.85 5016.70 6852.13 4766.13 C 6938.87 4707.34 7014.04 4692.16 7029.46 4796.73 Z" fill="#000000" fill-opacity="0.4" fill-rule="nonzero" group-id="16" node-id="452" stroke="none" target-height="1170.46" target-width="210.82031" target-x="6852.13" target-y="4692.16"></path><path d="M 7883.08 7692.74 C 7881.88 7692.74 7994.39 7759.00 7994.39 7759.00 L 8290.02 7545.53 L 8191.72 7470.12 L 7883.08 7692.74 Z" fill="#429cfd" fill-rule="nonzero" node-id="455" stroke="none" target-height="288.87988" target-width="408.13965" target-x="7881.88" target-y="7470.12"></path><path d="M 7883.08 7692.74 C 7881.88 7692.74 7994.39 7759.00 7994.39 7759.00 L 8290.02 7545.53 L 8191.72 7470.12 L 7883.08 7692.74 Z" fill="#ffffff" fill-opacity="0.4" fill-rule="nonzero" group-id="17" node-id="459" stroke="none" target-height="288.87988" target-width="408.13965" target-x="7881.88" target-y="7470.12"></path><path d="M 6516.99 4580.37 C 6516.99 4580.37 6250.28 5710.35 6231.49 6250.04 C 6210.53 6855.50 6421.82 8283.27 6421.82 8283.27 L 6722.03 8283.27 C 6722.03 8283.27 6759.13 6844.42 6772.38 6292.92 C 6786.84 5691.79 7139.80 4580.37 7139.80 4580.37 L 6516.99 4580.37 Z" fill="#429cfd" fill-rule="nonzero" node-id="462" stroke="none" target-height="3702.8994" target-width="929.27" target-x="6210.53" target-y="4580.37"></path><path d="M 6516.99 4580.37 C 6516.99 4580.37 6250.28 5710.35 6231.49 6250.04 C 6210.53 6855.50 6421.82 8283.27 6421.82 8283.27 L 6722.03 8283.27 C 6722.03 8283.27 6759.13 6844.42 6772.38 6292.92 C 6786.84 5691.79 7139.80 4580.37 7139.80 4580.37 L 6516.99 4580.37 Z" fill="#000000" fill-opacity="0.3" fill-rule="nonzero" group-id="18" node-id="466" stroke="none" target-height="3702.8994" target-width="929.27" target-x="6210.53" target-y="4580.37"></path><path d="M 6364.00 8163.77 C 6362.80 8163.77 6381.11 8288.33 6381.11 8288.33 L 6746.12 8288.33 L 6756.00 8177.26 L 6364.00 8163.77 Z" fill="#429cfd" fill-rule="nonzero" node-id="469" stroke="none" target-height="124.56006" target-width="393.2002" target-x="6362.8" target-y="8163.77"></path><path d="M 6364.00 8163.77 C 6362.80 8163.77 6381.11 8288.33 6381.11 8288.33 L 6746.12 8288.33 L 6756.00 8177.26 L 6364.00 8163.77 Z" fill="#ffffff" fill-opacity="0.4" fill-rule="nonzero" group-id="19" node-id="473" stroke="none" target-height="124.56006" target-width="393.2002" target-x="6362.8" target-y="8163.77"></path></svg>