<?xml version="1.0" standalone="no"?><!DOCTYPE svg PUBLIC "-//W3C//DTD SVG 1.1//EN" "http://www.w3.org/Graphics/SVG/1.1/DTD/svg11.dtd"><svg height="9148" node-id="1" sillyvg="true" template-height="9148" template-width="12277" version="1.1" viewBox="0 0 12277 9148" width="12277" xmlns="http://www.w3.org/2000/svg" xmlns:xlink="http://www.w3.org/1999/xlink"><defs node-id="125"></defs><path d="M 12276.40 8038.62 L 0.00 8038.62 L 0.00 8044.76 L 12276.40 8044.76 L 12276.40 8038.62 Z" fill="#ebebeb" fill-rule="nonzero" node-id="127" stroke="none" target-height="6.1396484" target-width="12276.4" target-x="0" target-y="8038.62"></path><path d="M 5819.04 6943.56 L 1078.12 6943.56 C 1040.98 6943.49 1005.38 6928.69 979.14 6902.41 C 952.90 6876.12 938.17 6840.50 938.17 6803.36 L 938.17 138.97 C 938.49 102.04 953.37 66.73 979.57 40.71 C 1005.78 14.69 1041.19 0.06 1078.12 0.00 L 5819.04 0.00 C 5856.22 0.00 5891.88 14.77 5918.17 41.06 C 5944.46 67.35 5959.23 103.01 5959.23 140.20 L 5959.23 6803.36 C 5959.23 6840.54 5944.46 6876.20 5918.17 6902.50 C 5891.88 6928.79 5856.22 6943.56 5819.04 6943.56 Z M 1078.12 4.91 C 1042.61 4.98 1008.57 19.13 983.48 44.26 C 958.39 69.40 944.30 103.46 944.30 138.97 L 944.30 6803.36 C 944.30 6838.87 958.39 6872.93 983.48 6898.07 C 1008.57 6923.20 1042.61 6937.35 1078.12 6937.42 L 5819.04 6937.42 C 5854.57 6937.35 5888.63 6923.21 5913.76 6898.08 C 5938.88 6872.96 5953.03 6838.90 5953.09 6803.36 L 5953.09 138.97 C 5953.03 103.44 5938.88 69.37 5913.76 44.25 C 5888.63 19.12 5854.57 4.98 5819.04 4.91 L 1078.12 4.91 Z" fill="#ebebeb" fill-rule="nonzero" node-id="129" stroke="none" target-height="6943.56" target-width="5021.064" target-x="938.166" target-y="0"></path><path d="M 11130.10 6943.56 L 6388.91 6943.56 C 6351.75 6943.49 6316.12 6928.70 6289.85 6902.42 C 6263.57 6876.15 6248.78 6840.52 6248.71 6803.36 L 6248.71 138.97 C 6249.10 102.02 6264.03 66.71 6290.28 40.70 C 6316.52 14.69 6351.96 0.06 6388.91 0.00 L 11130.10 0.00 C 11167.00 0.13 11202.30 14.79 11228.50 40.80 C 11254.60 66.81 11269.50 102.08 11269.80 138.97 L 11269.80 6803.36 C 11269.80 6840.46 11255.10 6876.04 11228.90 6902.32 C 11202.70 6928.60 11167.20 6943.43 11130.10 6943.56 Z M 6388.91 4.91 C 6353.37 4.98 6319.31 19.12 6294.19 44.25 C 6269.06 69.37 6254.91 103.44 6254.85 138.97 L 6254.85 6803.36 C 6254.91 6838.90 6269.06 6872.96 6294.19 6898.08 C 6319.31 6923.21 6353.37 6937.35 6388.91 6937.42 L 11130.10 6937.42 C 11165.60 6937.35 11199.70 6923.21 11224.80 6898.08 C 11249.90 6872.96 11264.10 6838.90 11264.10 6803.36 L 11264.10 138.97 C 11264.10 103.44 11249.90 69.37 11224.80 44.25 C 11199.70 19.12 11165.60 4.98 11130.10 4.91 L 6388.91 4.91 Z" fill="#ebebeb" fill-rule="nonzero" node-id="131" stroke="none" target-height="6943.56" target-width="5021.09" target-x="6248.71" target-y="0"></path><path d="M 11046.30 8272.36 L 10271.20 8272.36 L 10271.20 8278.50 L 11046.30 8278.50 L 11046.30 8272.36 Z" fill="#ebebeb" fill-rule="nonzero" node-id="133" stroke="none" target-height="6.1396484" target-width="775.0996" target-x="10271.2" target-y="8272.36"></path><path d="M 8233.57 8205.82 L 7413.25 8205.82 L 7413.25 8211.96 L 8233.57 8211.96 L 8233.57 8205.82 Z" fill="#ebebeb" fill-rule="nonzero" node-id="135" stroke="none" target-height="6.1396484" target-width="820.3203" target-x="7413.25" target-y="8205.82"></path><path d="M 11270.30 8500.46 L 9737.43 8500.46 L 9737.43 8506.60 L 11270.30 8506.60 L 11270.30 8500.46 Z" fill="#ebebeb" fill-rule="nonzero" node-id="137" stroke="none" target-height="6.1396484" target-width="1532.8701" target-x="9737.43" target-y="8500.46"></path><path d="M 1760.20 8459.21 L 1288.04 8459.21 L 1288.04 8465.35 L 1760.20 8465.35 L 1760.20 8459.21 Z" fill="#ebebeb" fill-rule="nonzero" node-id="139" stroke="none" target-height="6.1396484" target-width="472.1599" target-x="1288.04" target-y="8459.21"></path><path d="M 2722.67 8459.21 L 1978.96 8459.21 L 1978.96 8465.35 L 2722.67 8465.35 L 2722.67 8459.21 Z" fill="#ebebeb" fill-rule="nonzero" node-id="141" stroke="none" target-height="6.1396484" target-width="743.70996" target-x="1978.96" target-y="8459.21"></path><path d="M 5994.34 8355.59 L 4654.74 8355.59 L 4654.74 8361.73 L 5994.34 8361.73 L 5994.34 8355.59 Z" fill="#ebebeb" fill-rule="nonzero" node-id="143" stroke="none" target-height="6.140625" target-width="1339.5996" target-x="4654.74" target-y="8355.59"></path><path d="M 9198.50 8038.62 L 9198.50 3772.31 L 8128.97 3772.31 L 8128.97 8038.62 L 9198.50 8038.62 Z" fill="#f0f0f0" fill-rule="nonzero" node-id="145" stroke="none" target-height="4266.31" target-width="1069.5298" target-x="8128.97" target-y="3772.31"></path><path d="M 9139.81 4837.66 L 9139.81 3896.79 L 8187.65 3896.79 L 8187.65 4837.66 L 9139.81 4837.66 Z" fill="#f5f5f5" fill-rule="nonzero" node-id="147" stroke="none" target-height="940.8701" target-width="952.15967" target-x="8187.65" target-y="3896.79"></path><path d="M 8874.64 3884.51 L 8453.07 3884.51 C 8453.07 3910.56 8463.42 3935.54 8481.84 3953.96 C 8500.25 3972.38 8525.23 3982.73 8551.28 3982.73 L 8777.66 3982.73 C 8803.49 3982.40 8828.16 3971.91 8846.31 3953.53 C 8864.47 3935.15 8874.65 3910.35 8874.64 3884.51 Z" fill="#e6e6e6" fill-rule="nonzero" node-id="149" stroke="none" target-height="98.21997" target-width="421.58008" target-x="8453.07" target-y="3884.51"></path><path d="M 9139.81 5863.23 L 9139.81 4922.36 L 8187.65 4922.36 L 8187.65 5863.23 L 9139.81 5863.23 Z" fill="#f5f5f5" fill-rule="nonzero" node-id="151" stroke="none" target-height="940.8701" target-width="952.15967" target-x="8187.65" target-y="4922.36"></path><path d="M 9139.81 6888.56 L 9139.81 5947.69 L 8187.65 5947.69 L 8187.65 6888.56 L 9139.81 6888.56 Z" fill="#f5f5f5" fill-rule="nonzero" node-id="153" stroke="none" target-height="940.8701" target-width="952.15967" target-x="8187.65" target-y="5947.69"></path><path d="M 9139.81 7913.89 L 9139.81 6973.02 L 8187.65 6973.02 L 8187.65 7913.89 L 9139.81 7913.89 Z" fill="#f5f5f5" fill-rule="nonzero" node-id="155" stroke="none" target-height="940.8701" target-width="952.15967" target-x="8187.65" target-y="6973.02"></path><path d="M 8874.64 4910.58 L 8453.07 4910.58 C 8453.07 4936.63 8463.42 4961.61 8481.84 4980.02 C 8500.25 4998.44 8525.23 5008.79 8551.28 5008.79 L 8777.66 5008.79 C 8803.49 5008.47 8828.16 4997.98 8846.31 4979.59 C 8864.47 4961.21 8874.65 4936.41 8874.64 4910.58 Z" fill="#e6e6e6" fill-rule="nonzero" node-id="157" stroke="none" target-height="98.20996" target-width="421.58008" target-x="8453.07" target-y="4910.58"></path><path d="M 8874.64 5935.17 L 8453.07 5935.17 C 8453.07 5961.22 8463.42 5986.20 8481.84 6004.62 C 8500.25 6023.04 8525.23 6033.38 8551.28 6033.38 L 8777.66 6033.38 C 8803.49 6033.06 8828.16 6022.57 8846.31 6004.19 C 8864.47 5985.80 8874.65 5961.01 8874.64 5935.17 Z" fill="#e6e6e6" fill-rule="nonzero" node-id="159" stroke="none" target-height="98.20996" target-width="421.58008" target-x="8453.07" target-y="5935.17"></path><path d="M 8874.64 6960.50 L 8453.07 6960.50 C 8453.07 6986.55 8463.42 7011.53 8481.84 7029.95 C 8500.25 7048.36 8525.23 7058.71 8551.28 7058.71 L 8777.66 7058.71 C 8803.49 7058.39 8828.16 7047.90 8846.31 7029.52 C 8864.47 7011.13 8874.65 6986.34 8874.64 6960.50 Z" fill="#e6e6e6" fill-rule="nonzero" node-id="161" stroke="none" target-height="98.20996" target-width="421.58008" target-x="8453.07" target-y="6960.5"></path><path d="M 9732.77 8038.62 L 9732.77 3772.31 L 9198.50 3772.31 L 9198.50 8038.62 L 9732.77 8038.62 Z" fill="#f5f5f5" fill-rule="nonzero" node-id="163" stroke="none" target-height="4266.31" target-width="534.26953" target-x="9198.5" target-y="3772.31"></path><path d="M 10364.50 8038.86 L 10364.50 3772.55 L 9294.99 3772.55 L 9294.99 8038.86 L 10364.50 8038.86 Z" fill="#f0f0f0" fill-rule="nonzero" node-id="165" stroke="none" target-height="4266.3096" target-width="1069.5098" target-x="9294.99" target-y="3772.55"></path><path d="M 10305.80 4837.66 L 10305.80 3896.79 L 9353.67 3896.79 L 9353.67 4837.66 L 10305.80 4837.66 Z" fill="#f5f5f5" fill-rule="nonzero" node-id="167" stroke="none" target-height="940.8701" target-width="952.1299" target-x="9353.67" target-y="3896.79"></path><path d="M 10040.70 3884.51 L 9619.09 3884.51 C 9619.09 3910.56 9629.43 3935.54 9647.85 3953.96 C 9666.27 3972.38 9691.25 3982.73 9717.30 3982.73 L 9943.92 3982.73 C 9969.71 3982.34 9994.32 3971.82 10012.40 3953.44 C 10030.50 3935.07 10040.70 3910.31 10040.70 3884.51 Z" fill="#e6e6e6" fill-rule="nonzero" node-id="169" stroke="none" target-height="98.21997" target-width="421.61035" target-x="9619.09" target-y="3884.51"></path><path d="M 10305.80 5862.99 L 10305.80 4922.12 L 9353.67 4922.12 L 9353.67 5862.99 L 10305.80 5862.99 Z" fill="#f5f5f5" fill-rule="nonzero" node-id="171" stroke="none" target-height="940.8701" target-width="952.1299" target-x="9353.67" target-y="4922.12"></path><path d="M 10306.10 6888.56 L 10306.10 5947.69 L 9353.92 5947.69 L 9353.92 6888.56 L 10306.10 6888.56 Z" fill="#f5f5f5" fill-rule="nonzero" node-id="173" stroke="none" target-height="940.8701" target-width="952.1797" target-x="9353.92" target-y="5947.69"></path><path d="M 10305.80 7913.89 L 10305.80 6973.02 L 9353.67 6973.02 L 9353.67 7913.89 L 10305.80 7913.89 Z" fill="#f5f5f5" fill-rule="nonzero" node-id="175" stroke="none" target-height="940.8701" target-width="952.1299" target-x="9353.67" target-y="6973.02"></path><path d="M 10040.70 4910.58 L 9619.09 4910.58 C 9619.09 4936.63 9629.43 4961.61 9647.85 4980.02 C 9666.27 4998.44 9691.25 5008.79 9717.30 5008.79 L 9943.92 5008.79 C 9969.71 5008.40 9994.32 4997.89 10012.40 4979.51 C 10030.50 4961.13 10040.70 4936.37 10040.70 4910.58 Z" fill="#e6e6e6" fill-rule="nonzero" node-id="177" stroke="none" target-height="98.20996" target-width="421.61035" target-x="9619.09" target-y="4910.58"></path><path d="M 10040.70 5935.17 L 9619.09 5935.17 C 9619.09 5961.22 9629.43 5986.20 9647.85 6004.62 C 9666.27 6023.04 9691.25 6033.38 9717.30 6033.38 L 9943.92 6033.38 C 9969.71 6033.00 9994.32 6022.48 10012.40 6004.10 C 10030.50 5985.73 10040.70 5960.97 10040.70 5935.17 Z" fill="#e6e6e6" fill-rule="nonzero" node-id="179" stroke="none" target-height="98.20996" target-width="421.61035" target-x="9619.09" target-y="5935.17"></path><path d="M 10040.70 6960.50 L 9619.09 6960.50 C 9619.09 6986.55 9629.43 7011.53 9647.85 7029.95 C 9666.27 7048.36 9691.25 7058.71 9717.30 7058.71 L 9943.92 7058.71 C 9969.71 7058.32 9994.32 7047.81 10012.40 7029.43 C 10030.50 7011.05 10040.70 6986.29 10040.70 6960.50 Z" fill="#e6e6e6" fill-rule="nonzero" node-id="181" stroke="none" target-height="98.20996" target-width="421.61035" target-x="9619.09" target-y="6960.5"></path><path d="M 10898.80 8038.62 L 10898.80 3772.31 L 10364.50 3772.31 L 10364.50 8038.62 L 10898.80 8038.62 Z" fill="#f5f5f5" fill-rule="nonzero" node-id="183" stroke="none" target-height="4266.31" target-width="534.2998" target-x="10364.5" target-y="3772.31"></path><path d="M 10230.20 2920.32 L 9917.90 2920.32 L 9917.90 3772.31 L 10230.20 3772.31 L 10230.20 2920.32 Z" fill="#e0e0e0" fill-rule="nonzero" node-id="185" stroke="none" target-height="851.99" target-width="312.2998" target-x="9917.9" target-y="2920.32"></path><path d="M 8937.25 3772.31 L 10128.60 3772.31 L 10305.80 2393.66 L 9114.52 2393.66 L 8937.25 3772.31 Z" fill="#e6e6e6" fill-rule="nonzero" node-id="187" stroke="none" target-height="1378.6501" target-width="1368.5498" target-x="8937.25" target-y="2393.66"></path><path d="M 8801.23 3772.31 L 10098.10 3772.31 L 10275.60 2393.66 L 8978.50 2393.66 L 8801.23 3772.31 Z" fill="#f0f0f0" fill-rule="nonzero" node-id="189" stroke="none" target-height="1378.6501" target-width="1474.3691" target-x="8801.23" target-y="2393.66"></path><path d="M 10003.60 3663.78 L 10152.90 2502.19 L 9073.28 2502.19 L 8923.75 3663.78 L 10003.60 3663.78 Z" fill="#ffffff" fill-rule="nonzero" node-id="191" stroke="none" target-height="1161.5901" target-width="1229.1504" target-x="8923.75" target-y="2502.19"></path><path d="M 9727.98 3285.09 C 9855.08 3165.90 9873.15 2978.66 9768.33 2866.89 C 9663.52 2755.12 9475.51 2761.13 9348.41 2880.32 C 9221.30 2999.52 9203.23 3186.75 9308.05 3298.52 C 9412.86 3410.30 9600.87 3404.28 9727.98 3285.09 Z" fill="#e6e6e6" fill-rule="nonzero" node-id="193" stroke="none" target-height="655.17993" target-width="669.9199" target-x="9203.23" target-y="2755.12"></path><path d="M 4429.34 8038.62 L 7761.17 8038.62 L 7761.17 997.09 L 4429.34 997.09 L 4429.34 8038.62 Z" fill="#e6e6e6" fill-rule="nonzero" node-id="195" stroke="none" target-height="7041.5264" target-width="3331.83" target-x="4429.34" target-y="997.094"></path><path d="M 4355.19 8038.62 L 7687.02 8038.62 L 7687.02 997.09 L 4355.19 997.09 L 4355.19 8038.62 Z" fill="#f5f5f5" fill-rule="nonzero" node-id="197" stroke="none" target-height="7041.5264" target-width="3331.83" target-x="4355.19" target-y="997.094"></path><path d="M 7554.19 7889.34 L 7554.19 1146.38 L 4488.27 1146.38 L 4488.27 7889.34 L 7554.19 7889.34 Z" fill="#ffffff" fill-rule="nonzero" node-id="199" stroke="none" target-height="6742.96" target-width="3065.92" target-x="4488.27" target-y="1146.38"></path><path d="M 4544.25 7889.34 L 4544.25 1146.38 L 4488.27 1146.38 L 4488.27 7889.34 L 4544.25 7889.34 Z" fill="#e6e6e6" fill-rule="nonzero" node-id="201" stroke="none" target-height="6742.96" target-width="55.97998" target-x="4488.27" target-y="1146.38"></path><path d="M 4410.44 3333.30 L 7632.27 3333.30 L 7632.27 3132.95 L 4410.44 3132.95 L 4410.44 3333.30 Z" fill="#f5f5f5" fill-rule="nonzero" node-id="203" stroke="none" target-height="200.3501" target-width="3221.83" target-x="4410.44" target-y="3132.95"></path><path d="M 3317.34 7847.84 L 3781.64 7847.84 L 3781.64 4836.92 L 3317.34 4836.92 L 3317.34 7847.84 Z" fill="#f0f0f0" fill-rule="nonzero" node-id="205" stroke="none" target-height="3010.92" target-width="464.2998" target-x="3317.34" target-y="4836.92"></path><path d="M 1402.46 8038.62 L 3692.51 8038.62 L 3692.51 7847.84 L 1402.46 7847.84 L 1402.46 8038.62 Z" fill="#f0f0f0" fill-rule="nonzero" node-id="207" stroke="none" target-height="190.78027" target-width="2290.05" target-x="1402.46" target-y="7847.84"></path><path d="M 3317.34 4836.92 L 1313.33 4836.92 L 1313.33 7847.84 L 3317.34 7847.84 L 3317.34 4836.92 Z" fill="#f5f5f5" fill-rule="nonzero" node-id="209" stroke="none" target-height="3010.92" target-width="2004.0101" target-x="1313.33" target-y="4836.92"></path><path d="M 3134.67 5207.42 L 1495.76 5207.42 L 1495.76 6194.94 L 3134.67 6194.94 L 3134.67 5207.42 Z" fill="#f0f0f0" fill-rule="nonzero" node-id="211" stroke="none" target-height="987.52" target-width="1638.9099" target-x="1495.76" target-y="5207.42"></path><path d="M 3134.67 6489.82 L 1495.76 6489.82 L 1495.76 7477.34 L 3134.67 7477.34 L 3134.67 6489.82 Z" fill="#f0f0f0" fill-rule="nonzero" node-id="213" stroke="none" target-height="987.52" target-width="1638.9099" target-x="1495.76" target-y="6489.82"></path><path d="M 1828.21 5875.26 L 1828.21 5527.59 C 1828.21 5496.95 1803.36 5472.10 1772.72 5472.10 L 1748.17 5472.10 C 1717.52 5472.10 1692.68 5496.95 1692.68 5527.59 L 1692.68 5875.26 C 1692.68 5905.91 1717.52 5930.75 1748.17 5930.75 L 1772.72 5930.75 C 1803.36 5930.75 1828.21 5905.91 1828.21 5875.26 Z" fill="#f5f5f5" fill-rule="nonzero" node-id="215" stroke="none" target-height="458.6499" target-width="135.5299" target-x="1692.68" target-y="5472.1"></path><path d="M 1827.96 7157.41 L 1827.96 6809.75 C 1827.96 6779.10 1803.12 6754.26 1772.47 6754.26 L 1747.92 6754.26 C 1717.27 6754.26 1692.43 6779.10 1692.43 6809.75 L 1692.43 7157.41 C 1692.43 7188.06 1717.27 7212.90 1747.92 7212.90 L 1772.47 7212.90 C 1803.12 7212.90 1827.96 7188.06 1827.96 7157.41 Z" fill="#f5f5f5" fill-rule="nonzero" node-id="217" stroke="none" target-height="458.64014" target-width="135.5299" target-x="1692.43" target-y="6754.26"></path><path d="M 3308.01 3136.14 C 3256.20 3162.17 3115.03 3134.18 3161.92 3229.69 C 3189.09 3279.59 3221.43 3326.50 3258.41 3369.64 C 3310.96 3434.46 3301.14 3504.93 3239.02 3530.46 C 3225.48 3535.26 3213.57 3543.77 3204.64 3555.01 C 3176.16 3596.02 3243.68 3651.02 3276.83 3692.02 C 3309.98 3733.02 3323.23 3773.29 3298.93 3803.98 C 3274.62 3834.67 3215.45 3825.10 3170.76 3835.41 C 3062.97 3859.96 3173.71 4007.28 3162.41 4084.62 C 3154.56 4136.67 3112.08 4151.40 3054.63 4158.28 C 3007.73 4164.17 2945.12 4168.35 2942.42 4216.47 C 2940.21 4258.21 2994.47 4305.35 3008.71 4349.05 C 3015.51 4367.89 3018.08 4387.99 3016.26 4407.93 C 3014.43 4427.87 3008.25 4447.16 2998.15 4464.45 C 2988.64 4478.99 2976.23 4491.40 2961.70 4500.90 C 2947.16 4510.41 2930.82 4516.81 2913.69 4519.70 C 2860.41 4530.99 2779.88 4519.70 2775.95 4579.36 C 2774.23 4606.12 2792.89 4629.94 2779.88 4654.74 C 2772.80 4665.06 2763.55 4673.70 2752.78 4680.07 C 2742.00 4686.43 2729.97 4690.35 2717.51 4691.57 C 2666.49 4699.34 2614.53 4698.43 2563.81 4688.87 C 2501.20 4677.33 2408.88 4622.08 2442.77 4569.05 C 2448.67 4561.36 2456.06 4554.95 2464.50 4550.18 C 2472.93 4545.41 2482.24 4542.40 2491.87 4541.30 C 2506.85 4538.11 2550.55 4542.78 2556.20 4532.71 C 2561.85 4522.64 2546.87 4483.60 2546.13 4469.36 C 2544.65 4430.24 2550.82 4391.21 2564.30 4354.46 C 2581.64 4306.46 2609.20 4262.81 2645.08 4226.54 C 2660.06 4211.56 2683.63 4200.51 2686.58 4178.66 C 2686.48 4154.06 2677.80 4130.26 2662.02 4111.38 C 2637.47 4077.50 2600.89 4045.34 2588.37 4009.24 C 2567.25 3952.77 2618.32 3935.58 2665.46 3921.83 C 2708.43 3910.29 2763.67 3895.32 2750.17 3843.27 C 2739.61 3805.70 2692.47 3775.01 2678.23 3738.42 C 2659.08 3689.32 2705.48 3687.60 2738.63 3669.92 C 2781.84 3647.09 2792.65 3606.58 2777.18 3555.01 C 2752.62 3470.31 2595.73 3350.49 2675.28 3295.24 C 2695.66 3281.25 2714.32 3276.58 2726.60 3255.47 C 2738.88 3234.35 2741.33 3204.89 2758.27 3184.51 C 2785.03 3152.10 2840.52 3146.70 2869.50 3116.50 C 2928.91 3054.87 2800.50 2944.63 2918.60 2920.08 C 2943.57 2917.03 2967.24 2907.27 2987.11 2891.84 C 2997.91 2881.77 3006.50 2833.40 3018.53 2829.97 C 3072.30 2814.99 3169.29 2919.34 3199.73 2951.50 C 3233.13 2989.56 3370.38 3104.96 3308.01 3136.14 Z" fill="#e0e0e0" fill-rule="nonzero" node-id="219" stroke="none" target-height="1884.3499" target-width="961.5" target-x="2408.88" target-y="2814.99"></path><path d="M 2386.05 4574.70 C 2417.97 4515.52 2557.92 4456.60 2464.86 4388.09 C 2414.93 4354.14 2361.21 4326.12 2304.78 4304.61 C 2223.76 4270.73 2195.03 4192.65 2236.03 4128.08 C 2245.64 4114.50 2251.64 4098.70 2253.46 4082.16 C 2256.90 4022.50 2167.77 4008.51 2116.70 3986.90 C 2065.63 3965.29 2032.00 3932.39 2037.40 3885.74 C 2043.05 3834.43 2099.52 3812.08 2133.40 3774.03 C 2215.41 3681.95 2038.14 3598.72 2007.44 3513.52 C 1986.57 3455.33 2016.04 3415.31 2062.93 3370.87 C 2100.99 3335.51 2154.03 3292.30 2130.45 3241.47 C 2110.32 3197.28 2037.15 3182.79 2001.31 3146.70 C 1984.66 3130.52 1971.43 3111.17 1962.41 3089.79 C 1953.38 3068.40 1948.74 3045.43 1948.76 3022.22 C 1949.35 2981.49 1965.41 2942.51 1993.69 2913.20 C 2034.70 2868.51 2112.04 2830.46 2083.31 2765.88 C 2070.30 2737.40 2041.08 2724.63 2039.36 2692.23 C 2039.92 2677.73 2043.35 2663.50 2049.46 2650.34 C 2055.57 2637.19 2064.24 2625.39 2074.97 2615.62 C 2114.66 2576.74 2161.08 2545.38 2211.97 2523.06 C 2273.35 2496.05 2383.84 2495.07 2383.84 2570.44 C 2381.93 2592.75 2371.99 2613.60 2355.85 2629.12 C 2344.31 2641.65 2303.31 2663.74 2303.80 2678.23 C 2304.29 2692.72 2338.42 2722.67 2346.52 2736.91 C 2369.18 2776.85 2384.56 2820.49 2391.94 2865.81 C 2402.47 2925.85 2401.55 2987.32 2389.24 3047.01 C 2384.09 3071.57 2369.11 3097.59 2378.19 3121.90 C 2390.97 3145.92 2411.85 3164.62 2437.12 3174.69 C 2476.16 3194.33 2526.25 3204.15 2557.43 3232.88 C 2606.54 3277.81 2570.93 3327.90 2536.07 3370.38 C 2504.40 3408.92 2462.41 3459.26 2503.41 3503.45 C 2532.88 3535.37 2590.82 3537.34 2622.99 3566.06 C 2665.95 3604.61 2626.18 3635.30 2606.29 3673.85 C 2581.74 3722.96 2592.54 3772.06 2633.79 3815.27 C 2702.05 3886.23 2903.87 3913.49 2862.62 4018.08 C 2852.31 4045.09 2838.07 4061.54 2838.07 4090.51 C 2838.07 4119.49 2852.06 4151.65 2848.14 4183.08 C 2841.75 4232.18 2795.84 4272.94 2786.26 4321.80 C 2766.87 4421.73 2938.74 4454.14 2849.36 4553.58 C 2828.49 4573.28 2812.95 4597.94 2804.19 4625.27 C 2800.01 4641.97 2818.18 4696.97 2809.34 4708.02 C 2770.06 4757.12 2628.63 4710.23 2584.68 4695.99 C 2530.67 4678.06 2347.99 4645.16 2386.05 4574.70 Z" fill="#f5f5f5" fill-rule="nonzero" node-id="221" stroke="none" target-height="2262.05" target-width="990" target-x="1948.74" target-y="2495.07"></path><path d="M 2028.56 4441.37 C 2028.56 4441.37 2045.50 4836.92 2692.96 4836.92 C 3340.42 4836.92 3357.61 4441.37 3357.61 4441.37 L 2028.56 4441.37 Z" fill="#f0f0f0" fill-rule="nonzero" node-id="223" stroke="none" target-height="395.5498" target-width="1329.05" target-x="2028.56" target-y="4441.37"></path><path d="M 6138.22 9147.43 C 8767.41 9147.43 10898.80 9022.99 10898.80 8869.49 C 10898.80 8715.99 8767.41 8591.55 6138.22 8591.55 C 3509.04 8591.55 1377.66 8715.99 1377.66 8869.49 C 1377.66 9022.99 3509.04 9147.43 6138.22 9147.43 Z" fill="#f5f5f5" fill-rule="nonzero" node-id="225" stroke="none" target-height="555.8799" target-width="9521.14" target-x="1377.66" target-y="8591.55"></path><path d="M 7698.31 8667.42 L 7501.40 8664.47 L 7455.98 8207.30 L 7653.14 8210.24 L 7698.31 8667.42 Z" fill="#ffb573" fill-rule="nonzero" node-id="227" stroke="none" target-height="460.12012" target-width="242.33008" target-x="7455.98" target-y="8207.3"></path><path d="M 8712.10 8668.15 L 8515.19 8668.15 L 8361.73 8211.71 L 8558.65 8211.71 L 8712.10 8668.15 Z" fill="#ffb573" fill-rule="nonzero" node-id="229" stroke="none" target-height="456.44043" target-width="350.36914" target-x="8361.73" target-y="8211.71"></path><path d="M 8488.92 8645.32 L 8729.04 8645.32 C 8732.98 8645.33 8736.79 8646.67 8739.87 8649.12 C 8742.94 8651.57 8745.10 8654.99 8745.99 8658.82 L 8784.78 8834.13 C 8785.76 8838.39 8785.75 8842.81 8784.75 8847.06 C 8783.75 8851.31 8781.78 8855.27 8779.01 8858.64 C 8776.23 8862.01 8772.72 8864.70 8768.74 8866.50 C 8764.76 8868.29 8760.42 8869.15 8756.05 8869.00 C 8678.71 8867.77 8622.24 8863.11 8525.01 8863.11 C 8465.10 8863.11 8284.39 8869.49 8201.65 8869.49 C 8118.90 8869.49 8108.10 8787.73 8141.98 8780.12 C 8293.72 8746.97 8408.14 8701.30 8456.75 8657.35 C 8465.68 8649.60 8477.10 8645.33 8488.92 8645.32 Z" fill="#263238" fill-rule="nonzero" node-id="231" stroke="none" target-height="224.16992" target-width="677.65967" target-x="8108.1" target-y="8645.32"></path><path d="M 7503.12 8642.62 L 7718.20 8646.06 C 7722.11 8646.08 7725.88 8647.43 7728.92 8649.88 C 7731.95 8652.33 7734.06 8655.75 7734.90 8659.56 L 7770.99 8835.36 C 7771.93 8839.60 7771.89 8843.99 7770.86 8848.21 C 7769.84 8852.43 7767.87 8856.36 7765.10 8859.70 C 7762.33 8863.04 7758.83 8865.70 7754.87 8867.48 C 7750.92 8869.27 7746.60 8870.12 7742.26 8869.98 C 7664.43 8867.52 7552.47 8861.14 7454.75 8859.67 C 7340.82 8857.95 7242.12 8862.61 7108.31 8859.67 C 7027.53 8858.44 7006.41 8776.43 7040.30 8769.56 C 7194.98 8738.13 7320.94 8736.41 7455.49 8656.37 C 7469.80 8647.51 7486.28 8642.75 7503.12 8642.62 Z" fill="#263238" fill-rule="nonzero" node-id="233" stroke="none" target-height="227.5" target-width="765.52" target-x="7006.41" target-y="8642.62"></path><path d="M 7624.16 2794.86 C 7561.83 2933.21 7492.42 3068.27 7416.20 3199.49 C 7378.14 3265.04 7338.37 3330.11 7295.16 3393.95 C 7252.15 3459.38 7205.59 3522.41 7155.70 3582.76 L 7136.30 3605.84 L 7126.48 3617.38 C 7123.04 3621.31 7120.83 3624.25 7113.95 3631.37 C 7085.81 3663.05 7049.69 3686.62 7009.36 3699.63 C 6984.38 3707.46 6958.08 3710.21 6932.02 3707.73 C 6909.03 3705.77 6886.54 3699.96 6865.48 3690.55 C 6835.13 3676.76 6807.45 3657.73 6783.72 3634.32 C 6750.08 3600.75 6721.17 3562.75 6697.78 3521.38 C 6677.27 3485.89 6658.66 3449.34 6642.05 3411.87 C 6581.40 3270.09 6535.97 3122.27 6506.52 2970.90 L 6647.94 2926.95 C 6678.14 2991.28 6709.32 3057.82 6741.98 3121.16 C 6774.63 3184.51 6808.03 3247.86 6844.12 3306.05 C 6861.05 3334.43 6879.49 3361.89 6899.36 3388.30 C 6914.95 3409.74 6933.09 3429.20 6953.38 3446.24 C 6960.75 3451.89 6966.39 3453.12 6963.45 3450.66 C 6959.33 3448.45 6954.83 3447.03 6950.19 3446.49 C 6942.54 3445.61 6934.79 3446.19 6927.35 3448.21 C 6912.62 3452.87 6910.41 3456.31 6912.13 3453.12 L 6939.38 3415.55 C 7019.12 3299.84 7091.77 3179.39 7156.92 3054.87 C 7224.44 2929.41 7290.24 2798.29 7351.87 2671.36 L 7624.16 2794.86 Z" fill="#ffb573" fill-rule="nonzero" node-id="235" stroke="none" target-height="1038.8499" target-width="1117.6401" target-x="6506.52" target-y="2671.36"></path><path d="M 7706.17 2671.36 C 7759.21 2852.06 7385.27 3344.84 7385.27 3344.84 L 7007.89 3102.26 C 7079.00 2946.02 7166.67 2797.85 7269.38 2660.31 C 7423.81 2462.16 7647.73 2472.97 7706.17 2671.36 Z" fill="#429cfd" fill-rule="nonzero" node-id="237" stroke="none" target-height="882.6802" target-width="751.3198" target-x="7007.89" target-y="2462.16"></path><g node-id="407"><path d="M 7706.17 2671.36 C 7759.21 2852.06 7385.27 3344.84 7385.27 3344.84 L 7007.89 3102.26 C 7079.00 2946.02 7166.67 2797.85 7269.38 2660.31 C 7423.81 2462.16 7647.73 2472.97 7706.17 2671.36 Z" fill="#000000" fill-opacity="0.2" fill-rule="nonzero" group-id="1" node-id="241" stroke="none" target-height="882.6802" target-width="751.3198" target-x="7007.89" target-y="2462.16"></path></g><g node-id="408"><path d="M 7476.11 2883.49 C 7398.52 2916.64 7284.35 3104.47 7224.93 3241.96 L 7385.02 3344.84 C 7474.45 3225.26 7554.88 3099.20 7625.64 2967.71 C 7575.06 2912.22 7517.11 2866.06 7476.11 2883.49 Z" fill="#000000" fill-opacity="0.2" fill-rule="nonzero" group-id="2" node-id="246" stroke="none" target-height="478.78003" target-width="400.70996" target-x="7224.93" target-y="2866.06"></path></g><path d="M 6644.50 2997.66 L 6693.61 2775.46 L 6469.44 2773.74 C 6469.44 2773.74 6409.53 2940.70 6530.09 3019.27 L 6644.50 2997.66 Z" fill="#ffb573" fill-rule="nonzero" node-id="249" stroke="none" target-height="245.53003" target-width="284.08008" target-x="6409.53" target-y="2773.74"></path><path d="M 6667.34 2567.25 L 6487.61 2631.83 L 6468.71 2773.74 L 6692.87 2775.46 L 6667.34 2567.25 Z" fill="#ffb573" fill-rule="nonzero" node-id="251" stroke="none" target-height="208.20996" target-width="224.16016" target-x="6468.71" target-y="2567.25"></path><path d="M 7456.22 8207.30 L 7479.55 8443.00 L 7676.46 8446.20 L 7653.38 8210.49 L 7456.22 8207.30 Z" fill="#000000" fill-opacity="0.2" fill-rule="nonzero" group-id="3" node-id="255" stroke="none" target-height="238.90039" target-width="220.23975" target-x="7456.22" target-y="8207.3"></path><path d="M 8558.65 8211.96 L 8361.73 8211.96 L 8440.79 8447.18 L 8637.95 8447.18 L 8558.65 8211.96 Z" fill="#000000" fill-opacity="0.2" fill-rule="nonzero" group-id="4" node-id="260" stroke="none" target-height="235.21973" target-width="276.21973" target-x="8361.73" target-y="8211.96"></path><path d="M 8584.67 2591.31 C 8372.29 3339.93 8415.26 4134.46 8396.11 4295.28 C 8241.91 4284.23 7661.24 4240.78 7344.75 4217.20 C 7206.77 3095.38 7482.74 2519.13 7482.74 2519.13 C 7482.74 2519.13 7550.51 2506.11 7642.33 2496.54 C 7671.06 2493.59 7702.24 2491.14 7734.65 2489.42 C 7752.58 2489.42 7770.74 2487.70 7789.16 2487.45 C 7938.62 2490.00 8087.82 2501.07 8236.02 2520.60 C 8264.01 2524.04 8292.49 2528.46 8320.24 2532.88 C 8347.98 2537.30 8370.82 2541.96 8393.90 2546.63 C 8501.93 2567.99 8584.67 2591.31 8584.67 2591.31 Z" fill="#429cfd" fill-rule="nonzero" node-id="263" stroke="none" target-height="1807.8298" target-width="1377.8999" target-x="7206.77" target-y="2487.45"></path><path d="M 8584.67 2591.31 C 8372.29 3339.93 8415.26 4134.46 8396.11 4295.28 C 8241.91 4284.23 7661.24 4240.78 7344.75 4217.20 C 7206.77 3095.38 7482.74 2519.13 7482.74 2519.13 C 7482.74 2519.13 7550.51 2506.11 7642.33 2496.54 C 7671.06 2493.59 7702.24 2491.14 7734.65 2489.42 C 7752.58 2489.42 7770.74 2487.70 7789.16 2487.45 C 7938.62 2490.00 8087.82 2501.07 8236.02 2520.60 C 8264.01 2524.04 8292.49 2528.46 8320.24 2532.88 C 8347.98 2537.30 8370.82 2541.96 8393.90 2546.63 C 8501.93 2567.99 8584.67 2591.31 8584.67 2591.31 Z" fill="#000000" fill-opacity="0.2" fill-rule="nonzero" group-id="5" node-id="267" stroke="none" target-height="1807.8298" target-width="1377.8999" target-x="7206.77" target-y="2487.45"></path><path d="M 8360.26 2912.46 C 8341.35 2984.90 8362.96 3315.38 8438.58 3396.89 C 8448.90 3291.07 8463.14 3180.58 8480.82 3067.64 L 8360.26 2912.46 Z" fill="#000000" fill-opacity="0.2" fill-rule="nonzero" group-id="6" node-id="272" stroke="none" target-height="484.42993" target-width="139.4707" target-x="8341.35" target-y="2912.46"></path><path d="M 8229.15 2013.34 C 8190.35 2155.01 8142.48 2416.50 8236.02 2519.86 C 8152.05 2591.80 8043.28 2673.81 7872.15 2667.18 C 7701.01 2660.55 7739.32 2544.42 7789.16 2486.72 C 7952.19 2460.20 7957.10 2340.87 7936.48 2227.19 L 8229.15 2013.34 Z" fill="#ffb573" fill-rule="nonzero" node-id="275" stroke="none" target-height="660.4701" target-width="535.00977" target-x="7701.01" target-y="2013.34"></path><path d="M 8220.31 2479.84 C 8220.31 2479.84 8149.60 2596.47 7865.27 2667.43 C 7912.41 2711.13 7935.25 2814.75 7935.25 2814.75 C 7935.25 2814.75 8306.24 2725.37 8294.95 2516.67 C 8272.31 2500.30 8247.08 2487.85 8220.31 2479.84 Z" fill="#263238" fill-rule="nonzero" node-id="277" stroke="none" target-height="334.9099" target-width="440.9702" target-x="7865.27" target-y="2479.84"></path><path d="M 7764.12 2787.98 C 7764.12 2787.98 7801.44 2698.12 7865.27 2667.43 C 7835.56 2636.74 7791.61 2544.66 7817.64 2475.67 C 7795.62 2473.91 7773.46 2475.32 7751.84 2479.84 C 7751.84 2479.84 7639.39 2621.51 7764.12 2787.98 Z" fill="#263238" fill-rule="nonzero" node-id="279" stroke="none" target-height="314.07007" target-width="225.87988" target-x="7639.39" target-y="2473.91"></path><path d="M 7853.00 2790.68 C 7849.81 2809.83 7838.51 2824.07 7828.44 2822.11 C 7818.38 2820.15 7812.24 2803.20 7815.68 2784.05 C 7819.11 2764.90 7830.41 2750.42 7840.23 2752.38 C 7850.05 2754.34 7856.93 2771.29 7853.00 2790.68 Z" fill="#263238" fill-rule="nonzero" node-id="281" stroke="none" target-height="73.65015" target-width="44.68994" target-x="7812.24" target-y="2750.42"></path><path d="M 7836.30 2901.17 C 7834.58 2920.81 7824.76 2935.79 7814.20 2934.81 C 7803.65 2933.83 7796.53 2917.38 7798.24 2897.98 C 7799.96 2878.58 7809.78 2863.36 7820.34 2864.34 C 7830.90 2865.32 7838.02 2881.77 7836.30 2901.17 Z" fill="#263238" fill-rule="nonzero" node-id="283" stroke="none" target-height="72.42993" target-width="41.490234" target-x="7796.53" target-y="2863.36"></path><path d="M 8110.31 2101.48 L 7938.44 2227.93 C 7943.58 2254.39 7946.21 2281.27 7946.30 2308.22 C 8008.42 2303.80 8097.54 2242.91 8108.84 2179.32 C 8113.84 2153.65 8114.34 2127.32 8110.31 2101.48 Z" fill="#000000" fill-opacity="0.2" fill-rule="nonzero" group-id="7" node-id="287" stroke="none" target-height="206.73999" target-width="175.8999" target-x="7938.44" target-y="2101.48"></path><path d="M 7834.83 1478.33 C 7681.62 1474.89 7650.68 1845.15 7750.12 1909.72 C 7849.56 1974.30 8121.61 1484.47 7834.83 1478.33 Z" fill="#263238" fill-rule="nonzero" node-id="290" stroke="none" target-height="499.41003" target-width="470.9297" target-x="7650.68" target-y="1474.89"></path><path d="M 8262.29 1798.99 C 8236.02 1992.71 8230.38 2107.62 8124.55 2200.19 C 7965.45 2339.40 7731.71 2232.35 7699.79 2034.70 C 7671.06 1856.69 7718.94 1569.67 7915.36 1506.32 C 7958.58 1492.12 8004.72 1489.22 8049.37 1497.89 C 8094.03 1506.56 8135.73 1526.51 8170.50 1555.84 C 8205.27 1585.17 8231.96 1622.92 8248.03 1665.47 C 8264.09 1708.03 8269.01 1754.00 8262.29 1798.99 Z" fill="#ffb573" fill-rule="nonzero" node-id="292" stroke="none" target-height="850.17993" target-width="597.9497" target-x="7671.06" target-y="1489.22"></path><path d="M 8234.55 1988.78 C 8136.34 2040.59 8022.90 1504.36 8283.66 1532.35 C 8611.19 1567.21 8431.71 1885.42 8234.55 1988.78 Z" fill="#263238" fill-rule="nonzero" node-id="294" stroke="none" target-height="536.23" target-width="588.2905" target-x="8022.9" target-y="1504.36"></path><path d="M 7797.26 1531.12 C 7797.26 1651.18 8186.92 1770.51 8320.48 1729.51 C 8454.05 1688.50 8487.69 1582.19 8416.00 1508.53 C 8294.70 1381.59 7797.26 1295.90 7797.26 1531.12 Z" fill="#263238" fill-rule="nonzero" node-id="296" stroke="none" target-height="474.61" target-width="690.43066" target-x="7797.26" target-y="1295.9"></path><path d="M 7812.98 1546.83 C 7821.98 1586.55 7841.38 1623.16 7869.20 1652.90 C 7834.34 1650.94 7799.72 1601.59 7788.67 1572.86 C 7777.62 1544.13 7812.98 1546.83 7812.98 1546.83 Z" fill="#263238" fill-rule="nonzero" node-id="298" stroke="none" target-height="108.77002" target-width="91.58008" target-x="7777.62" target-y="1544.13"></path><path d="M 8334.23 2020.21 C 8319.82 2039.88 8301.66 2056.51 8280.80 2069.15 C 8259.95 2081.79 8236.80 2090.19 8212.70 2093.87 C 8148.12 2103.20 8124.31 2043.29 8149.35 1986.82 C 8171.94 1936.00 8232.58 1869.95 8293.97 1886.65 C 8355.35 1903.34 8369.59 1971.35 8334.23 2020.21 Z" fill="#ffb573" fill-rule="nonzero" node-id="300" stroke="none" target-height="233.25" target-width="245.27979" target-x="8124.31" target-y="1869.95"></path><path d="M 7406.38 8397.09 L 7740.05 8402.25 C 7740.05 8402.25 7628.58 7084.00 7658.78 6470.67 C 7667.87 6284.07 7705.43 6023.07 7754.54 5743.41 C 7816.90 5390.83 7846.86 5250.39 7926.41 4805.00 C 7983.86 4487.29 8034.93 4269.50 8034.93 4269.50 L 7343.77 4217.94 C 7343.77 4217.94 7051.59 5806.02 7058.47 6408.31 C 7065.34 7032.69 7406.38 8397.09 7406.38 8397.09 Z" fill="#263238" fill-rule="nonzero" node-id="302" stroke="none" target-height="4184.31" target-width="983.34033" target-x="7051.59" target-y="4217.94"></path><path d="M 7792.60 4689.60 C 7668.36 4998.97 7665.90 5723.77 7723.11 5927.81 C 7732.93 5867.41 7743.49 5805.04 7754.54 5742.68 C 7816.90 5390.10 7846.86 5249.65 7926.41 4804.27 C 7927.88 4795.43 7929.60 4786.83 7931.07 4778.24 C 7890.37 4740.93 7843.52 4710.94 7792.60 4689.60 Z" fill="#000000" fill-opacity="0.2" fill-rule="nonzero" group-id="8" node-id="306" stroke="none" target-height="1238.21" target-width="265.16992" target-x="7665.9" target-y="4689.6"></path><path d="M 7717.71 4244.95 C 7717.71 4244.95 7778.60 5906.93 7825.01 6482.45 C 7875.59 7112.97 8347.98 8401.51 8347.98 8401.51 L 8708.91 8401.51 C 8708.91 8401.51 8468.05 7222.97 8394.14 6609.15 C 8309.93 5911.84 8395.62 4294.79 8395.62 4294.79 L 7717.71 4244.95 Z" fill="#263238" fill-rule="nonzero" node-id="309" stroke="none" target-height="4156.5596" target-width="991.2002" target-x="7717.71" target-y="4244.95"></path><path d="M 8305.02 8409.37 L 8730.03 8409.37 L 8730.03 8282.43 L 8254.93 8274.08 L 8305.02 8409.37 Z" fill="#429cfd" fill-rule="nonzero" node-id="311" stroke="none" target-height="135.29004" target-width="475.1006" target-x="8254.93" target-y="8274.08"></path><path d="M 7364.40 8403.47 L 7761.91 8409.61 L 7763.87 8281.20 L 7319.46 8267.45 L 7364.40 8403.47 Z" fill="#429cfd" fill-rule="nonzero" node-id="313" stroke="none" target-height="142.16016" target-width="444.41016" target-x="7319.46" target-y="8267.45"></path><path d="M 7962.99 1831.40 C 7961.77 1847.36 7952.44 1859.64 7942.12 1858.65 C 7931.81 1857.67 7924.20 1844.41 7925.43 1828.70 C 7926.66 1812.99 7935.99 1800.71 7946.30 1801.45 C 7956.61 1802.18 7964.22 1816.91 7962.99 1831.40 Z" fill="#263238" fill-rule="nonzero" node-id="315" stroke="none" target-height="58.930054" target-width="40.02002" target-x="7924.2" target-y="1800.71"></path><path d="M 7783.27 1818.14 C 7783.27 1834.10 7772.71 1846.13 7762.40 1845.40 C 7752.08 1844.66 7744.72 1831.16 7745.70 1815.44 C 7746.68 1799.73 7756.26 1787.21 7766.82 1787.94 C 7777.37 1788.68 7784.99 1802.18 7783.27 1818.14 Z" fill="#263238" fill-rule="nonzero" node-id="317" stroke="none" target-height="58.920044" target-width="40.27002" target-x="7744.72" target-y="1787.21"></path><path d="M 7840.23 1830.17 C 7817.66 1877.27 7788.74 1921.05 7754.29 1960.30 C 7764.43 1968.69 7776.26 1974.79 7788.98 1978.18 C 7801.69 1981.57 7814.99 1982.17 7827.95 1979.95 L 7840.23 1830.17 Z" fill="#ed893e" fill-rule="nonzero" node-id="319" stroke="none" target-height="152" target-width="85.93994" target-x="7754.29" target-y="1830.17"></path><path d="M 7892.77 2027.33 C 7910.60 2026.63 7928.08 2022.25 7944.14 2014.48 C 7960.19 2006.70 7974.47 1995.70 7986.07 1982.15 C 7986.51 1981.72 7986.86 1981.21 7987.10 1980.64 C 7987.33 1980.07 7987.46 1979.46 7987.46 1978.84 C 7987.46 1978.22 7987.33 1977.61 7987.10 1977.04 C 7986.86 1976.48 7986.51 1975.96 7986.07 1975.53 C 7985.17 1974.70 7983.99 1974.24 7982.76 1974.24 C 7981.53 1974.24 7980.35 1974.70 7979.44 1975.53 C 7966.28 1990.30 7949.81 2001.76 7931.38 2008.97 C 7912.95 2016.18 7893.07 2018.94 7873.38 2017.02 C 7872.18 2016.95 7871.00 2017.35 7870.08 2018.12 C 7869.17 2018.90 7868.59 2020.00 7868.47 2021.19 C 7868.40 2021.81 7868.45 2022.43 7868.63 2023.02 C 7868.80 2023.61 7869.09 2024.16 7869.48 2024.64 C 7869.86 2025.12 7870.34 2025.52 7870.89 2025.81 C 7871.43 2026.11 7872.03 2026.29 7872.64 2026.35 C 7879.32 2027.14 7886.05 2027.47 7892.77 2027.33 Z" fill="#263238" fill-rule="nonzero" node-id="321" stroke="none" target-height="53.22998" target-width="119.06006" target-x="7868.4" target-y="1974.24"></path><path d="M 8022.66 1777.63 C 8024.25 1777.60 8025.79 1777.08 8027.08 1776.16 C 8028.11 1775.51 8029.00 1774.66 8029.69 1773.66 C 8030.39 1772.66 8030.88 1771.54 8031.13 1770.34 C 8031.38 1769.15 8031.39 1767.92 8031.16 1766.73 C 8030.93 1765.53 8030.46 1764.40 8029.78 1763.39 C 8021.99 1750.62 8011.21 1739.93 7998.39 1732.23 C 7985.56 1724.53 7971.05 1720.06 7956.12 1719.19 C 7953.64 1719.19 7951.27 1720.18 7949.52 1721.93 C 7947.77 1723.68 7946.79 1726.05 7946.79 1728.52 C 7946.79 1731.00 7947.77 1733.37 7949.52 1735.12 C 7951.27 1736.87 7953.64 1737.85 7956.12 1737.85 C 7967.80 1738.81 7979.08 1742.54 7989.03 1748.73 C 7998.98 1754.92 8007.31 1763.40 8013.33 1773.46 C 8014.31 1774.98 8015.71 1776.19 8017.37 1776.93 C 8019.03 1777.68 8020.86 1777.92 8022.66 1777.63 Z" fill="#263238" fill-rule="nonzero" node-id="323" stroke="none" target-height="58.730103" target-width="84.6001" target-x="7946.79" target-y="1719.19"></path><path d="M 7711.08 1750.87 C 7712.63 1750.75 7714.12 1750.26 7715.45 1749.45 C 7716.77 1748.64 7717.88 1747.53 7718.69 1746.20 C 7724.25 1735.83 7732.21 1726.94 7741.91 1720.28 C 7751.60 1713.61 7762.75 1709.37 7774.43 1707.90 C 7775.64 1707.84 7776.83 1707.53 7777.93 1707.00 C 7779.03 1706.47 7780.00 1705.73 7780.81 1704.81 C 7781.61 1703.89 7782.22 1702.83 7782.60 1701.67 C 7782.98 1700.51 7783.12 1699.29 7783.02 1698.08 C 7782.99 1696.86 7782.72 1695.67 7782.21 1694.56 C 7781.71 1693.45 7781.00 1692.46 7780.10 1691.64 C 7779.21 1690.81 7778.16 1690.17 7777.02 1689.76 C 7775.87 1689.35 7774.66 1689.17 7773.45 1689.24 C 7758.71 1690.97 7744.60 1696.16 7732.27 1704.40 C 7719.93 1712.63 7709.73 1723.68 7702.49 1736.63 C 7701.87 1737.69 7701.47 1738.86 7701.31 1740.08 C 7701.15 1741.30 7701.24 1742.54 7701.56 1743.72 C 7701.87 1744.91 7702.43 1746.02 7703.18 1747.00 C 7703.93 1747.97 7704.86 1748.78 7705.93 1749.39 C 7707.48 1750.33 7709.26 1750.84 7711.08 1750.87 Z" fill="#263238" fill-rule="nonzero" node-id="325" stroke="none" target-height="61.69995" target-width="81.970215" target-x="7701.15" target-y="1689.17"></path><path d="M 8423.61 8679.94 C 8441.00 8679.46 8458.29 8677.07 8475.17 8672.82 C 8476.10 8672.59 8476.94 8672.10 8477.60 8671.40 C 8478.25 8670.71 8478.69 8669.83 8478.85 8668.89 C 8478.92 8667.99 8478.76 8667.08 8478.37 8666.26 C 8477.98 8665.44 8477.39 8664.74 8476.64 8664.22 C 8469.52 8659.81 8405.93 8620.77 8384.08 8631.81 C 8381.66 8633.09 8379.63 8635.00 8378.21 8637.33 C 8376.78 8639.67 8376.01 8642.34 8375.97 8645.07 C 8375.52 8649.65 8376.18 8654.27 8377.89 8658.55 C 8379.60 8662.82 8382.31 8666.62 8385.80 8669.63 C 8396.89 8677.21 8410.20 8680.84 8423.61 8679.94 Z M 8461.66 8666.19 C 8428.27 8672.82 8402.49 8671.59 8391.69 8662.51 C 8389.31 8660.48 8387.48 8657.89 8386.37 8654.97 C 8385.25 8652.05 8384.89 8648.90 8385.30 8645.81 C 8385.23 8644.69 8385.47 8643.57 8385.99 8642.57 C 8386.51 8641.58 8387.29 8640.74 8388.25 8640.16 C 8399.55 8634.27 8435.88 8651.21 8461.66 8667.17 L 8461.66 8666.19 Z" fill="#429cfd" fill-rule="nonzero" node-id="327" stroke="none" target-height="60.070313" target-width="103.40039" target-x="8375.52" target-y="8620.77"></path><path d="M 8474.19 8672.82 C 8474.99 8673.04 8475.84 8673.04 8476.64 8672.82 C 8477.33 8672.37 8477.89 8671.74 8478.28 8671.02 C 8478.67 8670.29 8478.86 8669.47 8478.85 8668.65 C 8478.85 8666.19 8473.94 8609.23 8451.11 8590.57 C 8448.42 8588.19 8445.25 8586.44 8441.81 8585.42 C 8438.38 8584.40 8434.76 8584.15 8431.22 8584.67 C 8427.71 8584.61 8424.28 8585.77 8421.55 8587.97 C 8418.81 8590.17 8416.93 8593.26 8416.24 8596.71 C 8412.07 8618.80 8451.60 8662.02 8471.97 8673.06 L 8474.19 8672.82 Z M 8434.41 8593.51 C 8438.33 8593.49 8442.12 8594.99 8444.97 8597.69 C 8458.84 8615.37 8466.98 8636.88 8468.29 8659.32 C 8448.16 8643.85 8422.87 8610.21 8425.32 8598.42 C 8425.32 8597.20 8425.32 8594.25 8432.20 8593.51 L 8434.41 8593.51 Z" fill="#429cfd" fill-rule="nonzero" node-id="329" stroke="none" target-height="88.90918" target-width="66.79004" target-x="8412.07" target-y="8584.15"></path><path d="M 7483.23 8668.64 C 7484.07 8668.34 7484.81 8667.82 7485.37 8667.12 C 7485.93 8666.43 7486.30 8665.60 7486.42 8664.72 C 7486.53 8663.78 7486.36 8662.84 7485.92 8662.00 C 7485.48 8661.17 7484.80 8660.49 7483.97 8660.05 C 7475.13 8655.14 7396.56 8613.89 7372.50 8626.66 C 7370.23 8627.91 7368.32 8629.71 7366.95 8631.90 C 7365.57 8634.09 7364.78 8636.60 7364.64 8639.18 C 7364.07 8643.38 7364.53 8647.65 7365.98 8651.63 C 7367.44 8655.61 7369.84 8659.18 7372.99 8662.02 C 7394.10 8681.41 7450.82 8674.54 7482.74 8668.64 L 7483.23 8668.64 Z M 7378.64 8634.27 C 7393.37 8629.36 7436.09 8646.30 7467.27 8661.77 C 7423.57 8668.40 7391.16 8665.94 7379.13 8655.14 C 7377.08 8653.21 7375.52 8650.83 7374.59 8648.18 C 7373.65 8645.53 7373.35 8642.70 7373.73 8639.92 C 7373.73 8638.88 7374.03 8637.86 7374.60 8636.99 C 7375.16 8636.12 7375.97 8635.43 7376.92 8635.01 L 7378.64 8634.27 Z" fill="#429cfd" fill-rule="nonzero" node-id="331" stroke="none" target-height="67.52051" target-width="122.45996" target-x="7364.07" target-y="8613.89"></path><path d="M 7483.23 8668.64 L 7484.46 8668.64 C 7485.16 8668.22 7485.72 8667.60 7486.07 8666.85 C 7486.42 8666.11 7486.54 8665.28 7486.42 8664.47 C 7486.42 8662.26 7481.76 8608.98 7456.96 8588.11 C 7453.64 8585.14 7449.75 8582.87 7445.53 8581.44 C 7441.31 8580.00 7436.85 8579.43 7432.41 8579.76 C 7419.39 8579.76 7415.71 8587.13 7414.73 8592.53 C 7410.80 8614.63 7457.20 8658.09 7480.78 8669.14 C 7481.62 8669.16 7482.46 8668.99 7483.23 8668.64 Z M 7427.25 8589.09 L 7432.16 8589.09 C 7435.58 8588.77 7439.03 8589.18 7442.29 8590.28 C 7445.55 8591.38 7448.54 8593.15 7451.07 8595.48 C 7465.35 8612.84 7473.92 8634.19 7475.62 8656.61 C 7451.07 8641.64 7420.13 8607.51 7422.34 8594.25 C 7423.08 8593.51 7423.32 8590.32 7427.25 8589.09 Z" fill="#429cfd" fill-rule="nonzero" node-id="333" stroke="none" target-height="89.73047" target-width="75.740234" target-x="7410.8" target-y="8579.43"></path><path d="M 8635.25 2714.08 C 8704.00 2852.07 8765.63 2990.05 8822.35 3131.48 C 8851.07 3202.19 8877.59 3274.13 8903.62 3346.56 C 8916.38 3383.14 8928.17 3420.22 8940.45 3456.56 L 8949.28 3484.30 L 8958.86 3516.22 C 8965.73 3538.07 8969.66 3559.93 8974.82 3581.53 C 9001.90 3746.87 8994.21 3916.04 8952.23 4078.24 C 8934.03 4155.24 8910.98 4231.01 8883.24 4305.11 C 8869.24 4341.94 8854.26 4378.76 8838.31 4413.88 C 8822.35 4448.99 8806.14 4484.34 8786.25 4521.17 L 8650.48 4462.24 C 8669.38 4395.22 8688.53 4322.78 8702.04 4252.32 C 8715.54 4181.85 8728.06 4110.65 8735.92 4040.43 C 8743.67 3971.48 8746.46 3902.06 8744.27 3832.71 C 8742.95 3767.78 8733.88 3703.24 8717.26 3640.46 C 8712.59 3625.97 8708.91 3610.75 8703.26 3597.00 C 8700.32 3589.88 8698.60 3583.99 8694.92 3575.39 L 8684.60 3550.84 C 8670.85 3517.20 8655.88 3483.57 8641.64 3449.93 C 8612.91 3382.16 8581.73 3315.13 8551.77 3247.61 L 8366.40 2844.21 L 8635.25 2714.08 Z" fill="#ffb573" fill-rule="nonzero" node-id="335" stroke="none" target-height="1807.0898" target-width="635.5" target-x="8366.4" target-y="2714.08"></path><path d="M 8584.67 2591.31 C 8764.40 2647.78 8941.18 3257.43 8941.18 3257.43 L 8525.26 3439.37 C 8525.26 3439.37 8390.70 3144.73 8313.12 2913.94 C 8228.90 2662.27 8366.64 2523.06 8584.67 2591.31 Z" fill="#429cfd" fill-rule="nonzero" node-id="337" stroke="none" target-height="916.31006" target-width="712.2793" target-x="8228.9" target-y="2523.06"></path><path d="M 8584.67 2591.31 C 8764.40 2647.78 8941.18 3257.43 8941.18 3257.43 L 8525.26 3439.37 C 8525.26 3439.37 8390.70 3144.73 8313.12 2913.94 C 8228.90 2662.27 8366.64 2523.06 8584.67 2591.31 Z" fill="#000000" fill-opacity="0.2" fill-rule="nonzero" group-id="9" node-id="341" stroke="none" target-height="916.31006" target-width="712.2793" target-x="8228.9" target-y="2523.06"></path><path d="M 8661.52 4429.10 L 8564.54 4604.16 L 8793.13 4663.58 C 8793.13 4663.58 8862.12 4493.92 8780.61 4439.90 L 8661.52 4429.10 Z" fill="#ffb573" fill-rule="nonzero" node-id="344" stroke="none" target-height="234.47998" target-width="297.58008" target-x="8564.54" target-y="4429.1"></path><path d="M 8547.60 4802.79 L 8757.53 4820.23 L 8793.13 4663.58 L 8564.54 4604.16 L 8547.60 4802.79 Z" fill="#ffb573" fill-rule="nonzero" node-id="346" stroke="none" target-height="216.06982" target-width="245.53027" target-x="8547.6" target-y="4604.16"></path><path d="M 7286.07 5752.00 L 2091.17 5752.00 L 2457.50 557.35 L 7652.40 557.35 L 7286.07 5752.00 Z" fill="#429cfd" fill-opacity="0.19" fill-rule="nonzero" group-id="10" node-id="350" stroke="none" target-height="5194.65" target-width="5561.23" target-x="2091.17" target-y="557.35"></path><path d="M 3261.61 5752.00 L 2514.46 5752.00 L 4375.82 557.35 L 5122.96 557.35 L 3261.61 5752.00 Z" fill="#ffffff" fill-opacity="0.2" fill-rule="nonzero" group-id="11" node-id="355" stroke="none" target-height="5194.65" target-width="2608.5" target-x="2514.46" target-y="557.35"></path><path d="M 5076.31 5752.00 L 3428.32 5752.00 L 5289.68 557.35 L 6937.67 557.35 L 5076.31 5752.00 Z" fill="#ffffff" fill-opacity="0.2" fill-rule="nonzero" group-id="12" node-id="360" stroke="none" target-height="5194.65" target-width="3509.3499" target-x="3428.32" target-y="557.35"></path><path d="M 2471.25 1444.45 L 2319.02 1433.64 L 2386.30 480.99 L 3339.19 480.99 L 3339.19 633.71 L 2528.46 633.71 L 2471.25 1444.45 Z" fill="#429cfd" fill-rule="nonzero" node-id="363" stroke="none" target-height="963.45996" target-width="1020.1699" target-x="2319.02" target-y="480.99"></path><path d="M 2972.86 5828.36 L 2009.16 5828.36 L 2077.17 4865.15 L 2229.40 4875.96 L 2172.93 5675.65 L 2972.86 5675.65 L 2972.86 5828.36 Z" fill="#429cfd" fill-rule="nonzero" node-id="365" stroke="none" target-height="963.20996" target-width="963.7001" target-x="2009.16" target-y="4865.15"></path><path d="M 7666.15 1444.45 L 7514.17 1433.64 L 7570.39 633.71 L 6770.46 633.71 L 6770.46 480.99 L 7734.16 480.99 L 7666.15 1444.45 Z" fill="#429cfd" fill-rule="nonzero" node-id="367" stroke="none" target-height="963.45996" target-width="963.7002" target-x="6770.46" target-y="480.99"></path><path d="M 7357.03 5828.36 L 6404.13 5828.36 L 6404.13 5675.65 L 7214.87 5675.65 L 7272.08 4865.15 L 7424.30 4875.96 L 7357.03 5828.36 Z" fill="#429cfd" fill-rule="nonzero" node-id="369" stroke="none" target-height="963.20996" target-width="1020.1699" target-x="6404.13" target-y="4865.15"></path><path d="M 4769.40 4985.96 C 4764.88 4985.86 4760.44 4984.77 4756.39 4982.76 C 4754.91 4982.76 4718.82 4962.14 4658.17 4924.82 C 4633.62 4909.35 4602.68 4890.44 4569.05 4869.08 C 4462.24 4799.60 4359.37 4726.43 4262.87 4651.55 C 4238.32 4633.38 4216.22 4614.72 4192.41 4595.56 C 4103.52 4521.91 4020.54 4449.72 3948.35 4378.03 C 3929.69 4359.37 3911.28 4340.71 3892.86 4321.55 C 3825.82 4252.52 3762.85 4179.64 3704.29 4103.28 C 3690.05 4084.86 3676.30 4065.96 3662.80 4046.81 C 3612.86 3977.21 3568.29 3903.91 3529.48 3827.55 C 3520.15 3809.14 3510.82 3789.74 3502.22 3770.34 C 3469.99 3699.33 3444.82 3625.31 3427.09 3549.37 C 3422.67 3531.93 3418.74 3513.03 3415.31 3491.91 C 3412.61 3478.16 3410.40 3463.68 3408.68 3449.44 C 3401.07 3393.21 3394.68 3336.00 3388.54 3274.13 C 3386.58 3255.71 3384.86 3237.05 3383.14 3218.64 C 3376.76 3144.98 3371.36 3073.04 3367.43 3001.35 L 3367.43 2995.45 C 3367.43 2979.25 3365.46 2963.04 3364.73 2946.35 C 3361.29 2875.63 3358.84 2802.71 3357.36 2729.54 L 3357.36 2673.81 C 3357.36 2596.47 3357.36 2523.55 3357.36 2457.01 C 3357.36 2438.35 3357.36 2419.69 3358.59 2401.27 C 3360.31 2321.23 3363.01 2248.31 3366.20 2184.47 L 3366.20 2180.30 C 3366.20 2162.62 3367.67 2145.43 3368.66 2128.49 C 3373.08 2049.43 3378.23 1974.54 3383.63 1911.69 C 3385.35 1890.33 3386.83 1872.16 3388.54 1855.95 C 3394.19 1794.08 3398.37 1759.46 3398.37 1759.46 C 3398.87 1753.12 3401.62 1747.16 3406.12 1742.66 C 3410.62 1738.16 3416.58 1735.41 3422.92 1734.91 C 3427.34 1734.91 3880.34 1699.80 4362.80 1614.84 C 4461.01 1597.66 4555.79 1579.00 4645.65 1559.60 C 4777.99 1530.63 4899.04 1499.20 5005.84 1466.05 C 5011.19 1464.34 5016.94 1464.34 5022.29 1466.05 C 5124.19 1499.44 5240.81 1530.87 5368.98 1559.60 C 5456.14 1579.24 5548.46 1597.66 5643.97 1614.84 C 6114.41 1699.80 6562.50 1734.66 6566.92 1734.91 C 6573.75 1735.47 6580.11 1738.64 6584.68 1743.75 C 6589.25 1748.87 6591.68 1755.55 6591.47 1762.41 C 6591.47 1762.41 6591.47 1796.78 6587.79 1858.90 C 6587.79 1875.35 6586.07 1894.01 6584.84 1914.63 C 6581.16 1977.73 6575.76 2052.62 6569.13 2131.44 C 6567.65 2147.15 6566.18 2162.86 6564.71 2179.31 L 6564.71 2187.42 C 6559.06 2251.50 6551.20 2324.42 6541.87 2403.97 C 6539.66 2422.88 6537.45 2441.29 6535.00 2459.95 C 6526.65 2526.74 6516.58 2599.66 6504.80 2676.51 L 6496.45 2732.00 C 6484.66 2805.66 6471.90 2879.32 6458.64 2949.05 C 6455.69 2964.76 6452.50 2980.72 6449.31 2996.68 L 6447.59 3005.03 C 6433.59 3076.23 6418.13 3149.40 6401.43 3221.83 L 6388.17 3277.81 C 6373.19 3339.68 6358.71 3396.89 6343.48 3452.87 C 6339.31 3467.36 6335.14 3481.60 6330.72 3495.84 C 6324.09 3516.71 6317.70 3535.37 6310.83 3553.05 C 6282.04 3629.68 6246.54 3703.63 6204.76 3774.02 C 6193.71 3792.93 6181.93 3812.08 6169.65 3830.74 C 6119.94 3907.19 6065.23 3980.28 6005.88 4049.51 C 5989.68 4068.41 5973.47 4087.32 5956.78 4105.73 C 5887.66 4182.05 5814.73 4254.82 5738.26 4323.76 C 5717.14 4342.75 5696.03 4361.41 5674.91 4379.74 C 5591.68 4451.44 5499.60 4524.36 5400.65 4597.04 C 5374.14 4616.19 5348.11 4634.85 5322.33 4653.02 C 5215.28 4727.90 5101.35 4800.34 4985.96 4870.31 C 4949.13 4891.67 4916.47 4910.58 4887.74 4926.05 C 4821.94 4963.12 4783.15 4983.01 4781.68 4983.75 C 4777.81 4985.42 4773.61 4986.18 4769.40 4985.96 Z M 3449.19 1787.45 C 3447.47 1803.65 3445.02 1828.21 3442.07 1861.11 C 3440.35 1877.31 3438.88 1895.24 3437.40 1914.88 C 3432.00 1978.72 3426.85 2053.11 3422.43 2131.93 C 3422.43 2148.62 3420.71 2165.56 3419.73 2183.24 L 3419.73 2187.42 C 3416.29 2250.76 3413.83 2323.19 3412.12 2402.75 C 3412.12 2420.91 3412.12 2439.33 3410.89 2457.99 C 3410.89 2524.28 3410.89 2596.71 3410.89 2673.32 L 3410.89 2729.05 C 3412.36 2801.48 3414.82 2873.92 3418.25 2943.89 C 3418.25 2960.10 3419.73 2976.06 3420.71 2993.00 L 3420.71 3000.36 C 3424.64 3071.32 3429.79 3143.75 3436.18 3215.45 C 3437.90 3233.86 3439.61 3252.28 3441.58 3270.69 C 3447.47 3331.83 3454.10 3388.79 3461.47 3444.28 C 3463.19 3457.78 3465.15 3471.29 3467.60 3484.55 C 3471.04 3504.68 3474.73 3522.11 3478.90 3538.81 C 3495.93 3611.37 3520.02 3682.10 3550.84 3749.96 C 3559.19 3768.38 3567.78 3786.79 3576.86 3804.47 C 3614.50 3878.49 3657.68 3949.57 3706.01 4017.10 C 3719.27 4035.51 3732.53 4053.93 3746.53 4071.85 C 3803.89 4146.57 3865.46 4217.97 3930.92 4285.71 C 3949.09 4304.37 3967.26 4322.78 3985.67 4340.95 C 4057.37 4411.42 4138.14 4483.36 4225.80 4555.05 C 4250.35 4573.96 4272.45 4592.37 4295.53 4610.54 C 4390.55 4684.20 4491.95 4756.63 4597.53 4825.13 C 4630.68 4846.25 4660.38 4864.91 4685.67 4880.13 C 4724.71 4904.69 4753.69 4920.89 4769.15 4929.24 C 4785.60 4920.64 4818.26 4904.69 4860.49 4880.13 C 4888.24 4864.66 4920.40 4846.00 4956.74 4824.64 C 5071.65 4756.14 5183.61 4683.95 5289.43 4609.81 C 5313.98 4591.88 5340.74 4573.47 5367.02 4554.32 C 5465.23 4482.62 5555.83 4410.68 5637.10 4339.97 C 5657.97 4321.80 5678.84 4303.39 5699.46 4284.48 C 5774.72 4216.78 5846.51 4145.32 5914.55 4070.38 C 5931.00 4052.21 5946.96 4034.04 5963.65 4015.63 C 6021.55 3948.23 6074.87 3877.03 6123.25 3802.51 C 6135.28 3784.34 6147.80 3765.92 6157.13 3747.75 C 6197.91 3680.23 6232.66 3609.24 6260.99 3535.62 C 6267.62 3518.67 6273.75 3501.00 6279.89 3481.11 C 6284.31 3467.60 6288.24 3453.85 6291.92 3440.35 C 6307.15 3384.86 6321.63 3328.14 6336.36 3266.76 C 6341.03 3248.35 6345.20 3229.93 6349.62 3211.52 C 6366.07 3139.58 6381.54 3067.15 6395.29 2996.43 L 6397.01 2987.84 C 6400.20 2972.13 6403.15 2956.41 6406.09 2940.70 C 6419.35 2870.97 6432.12 2798.54 6443.66 2725.37 L 6452.25 2670.13 C 6463.79 2593.77 6473.86 2521.34 6482.21 2454.80 C 6484.66 2436.38 6486.63 2418.21 6488.84 2400.04 C 6498.17 2320.49 6506.02 2248.06 6511.67 2184.22 L 6511.67 2176.12 C 6513.15 2159.92 6514.62 2143.96 6515.85 2128.49 C 6522.48 2050.41 6527.88 1976.02 6531.31 1913.41 C 6532.54 1892.78 6533.52 1874.37 6534.51 1857.92 C 6535.73 1827.96 6536.72 1804.39 6537.21 1788.43 C 6435.07 1779.59 6043.20 1743.50 5634.64 1669.84 C 5538.40 1652.41 5445.34 1633.75 5357.44 1614.11 C 5230.99 1585.63 5115.59 1554.69 5013.70 1521.79 C 4907.39 1554.69 4787.57 1585.63 4656.95 1614.11 C 4566.59 1633.75 4470.84 1652.41 4372.13 1669.84 C 3948.10 1743.25 3546.66 1779.35 3449.19 1787.45 Z" fill="#429cfd" fill-opacity="0.3" fill-rule="nonzero" group-id="13" node-id="373" stroke="none" target-height="3521.8403" target-width="3234.32" target-x="3357.36" target-y="1464.34"></path><path d="M 5148.66 2868.45 C 5281.25 2740.46 5292.00 2536.50 5172.67 2412.89 C 5053.35 2289.28 4849.13 2292.83 4716.55 2420.82 C 4583.96 2548.81 4573.21 2752.78 4692.54 2876.38 C 4811.87 2999.99 5016.08 2996.44 5148.66 2868.45 Z" fill="#429cfd" fill-opacity="0.3" fill-rule="nonzero" group-id="13" node-id="375" stroke="none" target-height="710.70996" target-width="718.79004" target-x="4573.21" target-y="2289.28"></path><path d="M 5003.39 2757.04 L 4924.57 2757.04 L 4846.00 2757.04 L 4623.55 3794.65 L 5079.50 3794.65 L 5003.39 2757.04 Z" fill="#429cfd" fill-opacity="0.3" fill-rule="nonzero" group-id="13" node-id="377" stroke="none" target-height="1037.6099" target-width="455.9502" target-x="4623.55" target-y="2757.04"></path><path d="M 5639.06 1642.10 L 4367.47 1642.10 C 4461.75 1625.40 4557.26 1606.99 4651.30 1586.36 L 5363.33 1586.36 C 5454.42 1606.99 5547.23 1625.40 5639.06 1642.10 Z" fill="#429cfd" fill-opacity="0.060000002" fill-rule="nonzero" group-id="13,14" node-id="381" stroke="none" target-height="55.73999" target-width="1271.5898" target-x="4367.47" target-y="1586.36"></path><path d="M 6558.08 1913.65 L 3410.40 1913.65 C 3411.87 1893.03 3413.34 1874.61 3415.06 1857.92 L 6561.02 1857.92 C 6560.29 1874.61 6559.30 1893.03 6558.08 1913.65 Z" fill="#429cfd" fill-opacity="0.060000002" fill-rule="nonzero" group-id="13,14" node-id="383" stroke="none" target-height="55.72998" target-width="3150.62" target-x="3410.4" target-y="1857.92"></path><path d="M 6542.36 2129.47 C 6540.89 2147.64 6539.17 2166.30 6537.45 2185.45 L 3392.72 2185.45 C 3392.72 2166.30 3394.44 2147.64 3395.42 2129.47 L 6542.36 2129.47 Z" fill="#429cfd" fill-opacity="0.060000002" fill-rule="nonzero" group-id="13,14" node-id="385" stroke="none" target-height="55.97998" target-width="3149.64" target-x="3392.72" target-y="2129.47"></path><path d="M 6514.62 2401.27 C 6512.41 2419.69 6510.20 2438.35 6507.74 2457.01 L 3383.88 2457.01 C 3383.88 2438.35 3383.88 2419.69 3385.11 2401.27 L 6514.62 2401.27 Z" fill="#429cfd" fill-opacity="0.060000002" fill-rule="nonzero" group-id="13,14" node-id="387" stroke="none" target-height="55.73999" target-width="3130.7402" target-x="3383.88" target-y="2401.27"></path><path d="M 6477.79 2673.07 C 6474.84 2691.49 6472.14 2709.90 6469.20 2728.56 L 3384.12 2728.56 C 3384.12 2709.90 3384.12 2691.49 3384.12 2673.07 L 6477.79 2673.07 Z" fill="#429cfd" fill-opacity="0.060000002" fill-rule="nonzero" group-id="13,14" node-id="389" stroke="none" target-height="55.48999" target-width="3093.67" target-x="3384.12" target-y="2673.07"></path><path d="M 6432.86 2944.63 L 6421.81 3000.36 L 3394.44 3000.36 C 3394.44 2981.70 3392.23 2963.04 3391.49 2944.63 L 6432.86 2944.63 Z" fill="#429cfd" fill-opacity="0.060000002" fill-rule="nonzero" group-id="13,14" node-id="391" stroke="none" target-height="55.730225" target-width="3041.3699" target-x="3391.49" target-y="2944.63"></path><path d="M 6374.67 3216.43 L 6361.41 3271.92 L 3415.06 3271.92 C 3413.10 3253.50 3411.38 3234.84 3409.66 3216.43 L 6374.67 3216.43 Z" fill="#429cfd" fill-opacity="0.060000002" fill-rule="nonzero" group-id="13,14" node-id="393" stroke="none" target-height="55.48999" target-width="2965.01" target-x="3409.66" target-y="3216.43"></path><path d="M 6304.45 3487.98 C 6298.55 3506.64 6292.17 3525.30 6285.05 3543.72 L 3453.36 3543.72 C 3448.70 3525.30 3445.02 3506.64 3441.82 3487.98 L 6304.45 3487.98 Z" fill="#429cfd" fill-opacity="0.060000002" fill-rule="nonzero" group-id="13,14" node-id="395" stroke="none" target-height="55.73999" target-width="2862.6301" target-x="3441.82" target-y="3487.98"></path><path d="M 6180.94 3759.54 C 6170.14 3778.20 6158.36 3797.10 6146.57 3815.27 L 3553.54 3815.27 C 3544.21 3797.10 3535.37 3778.20 3527.02 3759.54 L 6180.94 3759.54 Z" fill="#429cfd" fill-opacity="0.060000002" fill-rule="nonzero" group-id="13,14" node-id="397" stroke="none" target-height="55.72998" target-width="2653.92" target-x="3527.02" target-y="3759.54"></path><path d="M 5984.77 4031.34 C 5968.81 4050.00 5952.85 4068.66 5935.66 4086.83 L 3725.90 4086.83 C 3711.66 4068.66 3698.16 4050.00 3684.90 4031.34 L 5984.77 4031.34 Z" fill="#429cfd" fill-opacity="0.060000002" fill-rule="nonzero" group-id="13,14" node-id="399" stroke="none" target-height="55.48999" target-width="2299.87" target-x="3684.9" target-y="4031.34"></path><path d="M 5719.10 4302.89 C 5698.23 4321.80 5677.36 4340.46 5656.25 4358.63 L 3967.26 4358.63 C 3948.84 4340.46 3930.43 4321.80 3912.26 4302.89 L 5719.10 4302.89 Z" fill="#429cfd" fill-opacity="0.060000002" fill-rule="nonzero" group-id="13,14" node-id="401" stroke="none" target-height="55.739746" target-width="1806.8401" target-x="3912.26" target-y="4302.89"></path><path d="M 5383.71 4574.45 C 5357.20 4593.60 5331.41 4612.26 5305.63 4630.18 L 4279.57 4630.18 C 4256.49 4612.26 4233.16 4593.60 4209.35 4574.45 L 5383.71 4574.45 Z" fill="#429cfd" fill-opacity="0.060000002" fill-rule="nonzero" group-id="13,14" node-id="403" stroke="none" target-height="55.72998" target-width="1174.3599" target-x="4209.35" target-y="4574.45"></path><path d="M 4971.22 4846.25 C 4934.64 4867.61 4902.23 4886.27 4874.49 4901.74 L 4672.41 4901.74 C 4647.86 4886.27 4616.93 4867.61 4583.53 4846.25 L 4971.22 4846.25 Z" fill="#429cfd" fill-opacity="0.060000002" fill-rule="nonzero" group-id="13,14" node-id="405" stroke="none" target-height="55.490234" target-width="387.69043" target-x="4583.53" target-y="4846.25"></path></svg>