<?xml version="1.0" standalone="no"?><!DOCTYPE svg PUBLIC "-//W3C//DTD SVG 1.1//EN" "http://www.w3.org/Graphics/SVG/1.1/DTD/svg11.dtd"><svg height="1116" node-id="1" sillyvg="true" template-height="1116" template-width="1238" version="1.1" viewBox="0 0 1238 1116" width="1238" xmlns="http://www.w3.org/2000/svg" xmlns:xlink="http://www.w3.org/1999/xlink"><defs node-id="118"><linearGradient gradientUnits="objectBoundingBox" id="linearGradient-1" node-id="7" spreadMethod="pad" x1="0.5" x2="0.5" y1="0" y2="0.860707"><stop offset="0" stop-color="#d2defb"></stop><stop offset="1" stop-color="#f3f4f8"></stop></linearGradient><linearGradient gradientUnits="objectBoundingBox" id="linearGradient-2" node-id="10" spreadMethod="pad" x1="0.5" x2="0.5" y1="0" y2="0.43909627"><stop offset="0" stop-color="#e5ecf8"></stop><stop offset="1" stop-color="#f3f4f6"></stop></linearGradient><linearGradient gradientUnits="objectBoundingBox" id="linearGradient-3" node-id="13" spreadMethod="pad" x1="0.5" x2="0.5" y1="0" y2="0.860707"><stop offset="0" stop-color="#d8e3fb"></stop><stop offset="1" stop-color="#f3f4f8"></stop></linearGradient><linearGradient gradientUnits="objectBoundingBox" id="linearGradient-4" node-id="16" spreadMethod="pad" x1="0.5" x2="0.5" y1="0" y2="0.43909627"><stop offset="0" stop-color="#e5ecf8"></stop><stop offset="1" stop-color="#f3f4f6"></stop></linearGradient><linearGradient gradientUnits="objectBoundingBox" id="linearGradient-5" node-id="19" spreadMethod="pad" x1="0.5" x2="0.5" y1="0" y2="0.860707"><stop offset="0" stop-color="#d8e3fb"></stop><stop offset="1" stop-color="#f3f4f8"></stop></linearGradient><linearGradient gradientUnits="objectBoundingBox" id="linearGradient-6" node-id="22" spreadMethod="pad" x1="0.5" x2="0.5" y1="0" y2="0.43909627"><stop offset="0" stop-color="#e5ecf8"></stop><stop offset="1" stop-color="#f3f4f6"></stop></linearGradient><linearGradient gradientUnits="objectBoundingBox" id="linearGradient-7" node-id="25" spreadMethod="pad" x1="0.5" x2="0.5" y1="0" y2="1"><stop offset="0" stop-color="#d4e0fc"></stop><stop offset="1" stop-color="#e0e8fe"></stop></linearGradient><linearGradient gradientUnits="objectBoundingBox" id="linearGradient-8" node-id="28" spreadMethod="pad" x1="0.5" x2="0.5" y1="0" y2="0.8802725"><stop offset="0" stop-color="#d0ddfc"></stop><stop offset="1" stop-color="#f3f4f8"></stop></linearGradient><linearGradient gradientUnits="objectBoundingBox" id="linearGradient-9" node-id="31" spreadMethod="pad" x1="0.5" x2="0.5" y1="0" y2="1"><stop offset="0" stop-color="#e8edf8"></stop><stop offset="1" stop-color="#f4f5f6"></stop></linearGradient><linearGradient gradientUnits="objectBoundingBox" id="linearGradient-10" node-id="34" spreadMethod="pad" x1="0.5" x2="0.5" y1="0" y2="0.8802725"><stop offset="0" stop-color="#d0ddfc"></stop><stop offset="1" stop-color="#f3f4f8"></stop></linearGradient><linearGradient gradientUnits="objectBoundingBox" id="linearGradient-11" node-id="37" spreadMethod="pad" x1="0.5" x2="0.5" y1="0" y2="1"><stop offset="0" stop-color="#e8edf8"></stop><stop offset="1" stop-color="#f4f5f6"></stop></linearGradient><linearGradient gradientUnits="objectBoundingBox" id="linearGradient-12" node-id="40" spreadMethod="pad" x1="0.5150312" x2="0.5" y1="0.45485553" y2="0.5489954"><stop offset="0" stop-color="#dbe7fc"></stop><stop offset="1" stop-color="#f3f5f6"></stop></linearGradient><linearGradient gradientUnits="objectBoundingBox" id="linearGradient-15" node-id="47" spreadMethod="pad" x1="0.5" x2="0.5949378" y1="0" y2="1"><stop offset="0" stop-color="#c4d5fa"></stop><stop offset="0.40355477" stop-color="#b7cefe"></stop><stop offset="1" stop-color="#97baff"></stop></linearGradient><filter height="2.102" id="filter-13" node-id="43" width="1.305" x="-0.153" y="-0.551"><feGaussianBlur color-interpolation-filters="linearRGB" in="SourceGraphic" result="result1" stdDeviation="9 9"></feGaussianBlur></filter><filter height="1.857" id="filter-14" node-id="45" width="1.188" x="-0.094" y="-0.429"><feGaussianBlur color-interpolation-filters="linearRGB" in="SourceGraphic" result="result1" stdDeviation="2 2"></feGaussianBlur></filter></defs><g node-id="207"><g node-id="208"><path d="M 72.00 135.77 L 1112.00 135.77 L 1112.00 846.77 L 72.00 846.77 Z" fill="#ffffff" fill-opacity="0" fill-rule="nonzero" group-id="1,2" id="矩形备份-18" node-id="54" stroke="none" target-height="711.00037" target-width="1039.9994" target-x="72.00029" target-y="135.76862"></path><text align="center" editable="true" ellipsis="false" fill="#5480e5" flags="1" font-family="'Noto Sans CJK SC'" font-size="48" font-stretch="normal" font-style="normal" font-weight="500" group-id="1,2" height="71.04" id="暂无数据" letter-spacing="0" node-id="55" stroke="none" target-x="476" target-y="891.32" vertical-align="center" width="192" x="476" xml:space="preserve" y="947"></text><g node-id="209"><g node-id="211"><path d="M 244.00 473.20 L 309.19 279.00 L 309.19 473.20 Z" fill="url(#linearGradient-1)" fill-opacity="0.35260883" fill-rule="evenodd" group-id="1,2,3,5" id="矩形" node-id="60" stroke="none" target-height="194.19989" target-width="65.18738" target-x="244" target-y="279"></path><path d="M 307.19 279.20 L 396.00 406.00 L 383.58 439.12 L 307.19 473.20 Z" fill="url(#linearGradient-2)" fill-opacity="0.35260883" fill-rule="evenodd" group-id="1,2,3,5" id="矩形备份-12" node-id="61" stroke="none" target-height="193.99997" target-width="88.81262" target-x="307.18738" target-y="279.19992"></path></g><g node-id="212"><path d="M 633.00 405.83 L 733.92 276.00 L 725.00 433.00 Z" fill="url(#linearGradient-3)" fill-rule="evenodd" group-id="1,2,3,6" id="矩形" node-id="63" stroke="none" target-height="157" target-width="100.92047" target-x="633" target-y="276"></path><path d="M 733.92 274.00 L 885.00 448.00 L 725.00 433.64 Z" fill="url(#linearGradient-4)" fill-rule="evenodd" group-id="1,2,3,6" id="矩形备份-12" node-id="64" stroke="none" target-height="174" target-width="160" target-x="725" target-y="274"></path></g><g node-id="213"><path d="M 811.00 541.83 L 884.00 412.00 L 877.55 569.00 Z" fill="url(#linearGradient-5)" fill-rule="evenodd" group-id="1,2,3,7" id="矩形" node-id="66" stroke="none" target-height="157" target-width="73" target-x="811" target-y="412"></path><path d="M 884.47 410.00 L 994.00 584.00 L 878.00 569.64 Z" fill="url(#linearGradient-6)" fill-rule="evenodd" group-id="1,2,3,7" id="矩形备份-12" node-id="67" stroke="none" target-height="174" target-width="116" target-x="878" target-y="410"></path></g><g node-id="214"><g node-id="222"><path d="M 498.60 248.00 L 563.41 248.00 L 563.41 277.21 L 563.41 303.58 L 569.58 344.38 L 607.00 470.32 L 597.68 475.10 L 588.60 479.23 L 579.74 482.73 L 571.09 485.64 L 562.64 487.97 L 554.36 489.75 L 546.24 491.01 L 538.26 491.75 L 530.41 492.00 L 522.46 491.75 L 514.50 490.98 L 506.51 489.70 L 498.47 487.89 L 490.36 485.54 L 482.17 482.63 L 473.89 479.14 L 465.51 475.05 L 457.00 470.32 L 490.88 344.38 L 498.60 302.86 L 498.60 276.45 L 498.60 248.00 Z" fill="url(#linearGradient-7)" fill-opacity="0.65229726" fill-rule="evenodd" group-id="1,2,3,8,16" id="矩形" node-id="70" stroke="none" target-height="243.99998" target-width="150" target-x="457" target-y="248.00002"></path><path d="M 565.00 248.00 L 564.73 249.27 L 563.92 250.55 L 562.41 251.89 L 560.64 252.97 L 558.32 254.03 L 555.33 255.07 L 550.62 256.26 L 544.85 257.21 L 538.76 257.79 L 532.00 258.00 L 525.24 257.79 L 519.15 257.21 L 513.38 256.26 L 508.67 255.07 L 505.68 254.03 L 503.36 252.97 L 501.59 251.89 L 500.08 250.55 L 499.27 249.27 L 499.00 248.00 L 499.27 246.73 L 500.08 245.45 L 501.59 244.11 L 503.36 243.03 L 505.68 241.97 L 508.67 240.93 L 513.38 239.74 L 519.15 238.79 L 525.24 238.21 L 532.00 238.00 L 538.76 238.21 L 544.85 238.79 L 550.62 239.74 L 555.33 240.93 L 558.32 241.97 L 560.64 243.03 L 562.41 244.11 L 563.92 245.45 L 564.73 246.73 L 565.00 248.00 Z" fill="#e1e7ff" fill-opacity="0.65229726" fill-rule="evenodd" group-id="1,2,3,8,16" id="椭圆形" node-id="71" stroke="none" target-height="19.999985" target-width="66" target-x="499" target-y="238.00002"></path><g node-id="232"><path d="M 499.00 286.00 L 499.26 287.28 L 500.05 288.56 L 501.51 289.89 L 503.23 290.97 L 505.48 292.03 L 508.37 293.07 L 512.95 294.26 L 518.54 295.21 L 524.44 295.79 L 531.00 296.00 L 537.56 295.79 L 543.46 295.21 L 549.05 294.26 L 553.63 293.07 L 556.52 292.03 L 558.77 290.97 L 560.49 289.89 L 561.95 288.56 L 562.74 287.28 L 563.00 286.00" fill="none" group-id="1,2,3,8,16,26" id="路径" node-id="72" stroke="#aeaceb" stroke-linecap="butt" stroke-opacity="0.2749604" stroke-width="2" target-height="10" target-width="64" target-x="499" target-y="286"></path></g><g node-id="233"><path d="M 499.00 310.00 L 499.26 311.28 L 500.05 312.56 L 501.51 313.89 L 503.23 314.97 L 505.48 316.03 L 508.37 317.07 L 512.95 318.26 L 518.54 319.21 L 524.44 319.79 L 531.00 320.00 L 537.56 319.79 L 543.46 319.21 L 549.05 318.26 L 553.63 317.07 L 556.52 316.03 L 558.77 314.97 L 560.49 313.89 L 561.95 312.56 L 562.74 311.28 L 563.00 310.00" fill="none" group-id="1,2,3,8,16,27" id="路径" node-id="73" stroke="#aeaceb" stroke-linecap="butt" stroke-opacity="0.2749604" stroke-width="2" target-height="10" target-width="64" target-x="499" target-y="310"></path></g><path d="M 493.00 334.00 L 493.29 335.25 L 494.19 336.53 L 495.91 337.89 L 497.88 338.96 L 500.48 340.03 L 503.84 341.07 L 509.12 342.26 L 515.60 343.21 L 522.41 343.79 L 530.00 344.00 L 537.59 343.79 L 544.40 343.21 L 550.88 342.26 L 556.16 341.07 L 559.52 340.03 L 562.12 338.96 L 564.09 337.89 L 565.81 336.53 L 566.71 335.25 L 567.00 334.00" fill="none" group-id="1,2,3,8,16,28" id="路径" node-id="74" stroke="#aeaceb" stroke-linecap="butt" stroke-opacity="0.2749604" stroke-width="2" target-height="10" target-width="74" target-x="493" target-y="334"></path></g><g node-id="223"><path d="M 537.46 248.00 L 539.30 247.76 L 540.60 247.16 L 541.51 246.24 L 542.15 245.03 L 542.62 243.50 L 542.89 241.56 L 543.10 234.90 L 543.24 231.16 L 543.65 227.18 L 544.15 224.55 L 544.94 221.94 L 546.04 219.34 L 547.45 216.91 L 549.34 214.56 L 551.77 212.28 L 554.50 210.37 L 557.98 208.58 L 562.36 206.95 L 566.15 206.08 L 569.79 205.72 L 573.32 205.85 L 578.54 206.70 L 583.47 208.13 L 588.22 209.91 L 592.53 211.71 L 596.70 213.40 L 600.24 214.55 L 602.56 215.00 L 604.56 214.98 L 606.30 214.57 L 607.81 213.70 L 609.19 212.15 L 610.45 209.72 L 613.63 202.25 L 616.76 195.98 L 619.83 190.76 L 623.27 185.75 L 626.55 181.63 L 629.67 178.30 L 633.06 175.20 L 636.18 172.72 L 639.05 170.79 L 643.44 168.32 L 647.02 166.68 L 652.64 164.41 L 653.97 163.71 L 654.69 163.06 L 654.98 162.43 L 654.93 161.74 L 654.41 160.72 L 653.10 159.19 L 651.48 157.92 L 648.98 156.60 L 645.31 155.23 L 639.42 153.67 L 631.71 152.25 L 623.47 151.21 L 614.04 150.45 L 604.31 150.06 L 594.04 150.04 L 583.70 150.42 L 573.45 151.22 L 563.37 152.49 L 554.01 154.21 L 547.90 155.68 L 542.40 157.35 L 537.46 159.19 L 533.54 161.12 L 530.04 163.34 L 526.92 165.87 L 524.07 168.70 L 521.57 171.66 L 519.39 174.76 L 516.60 179.64 L 514.48 184.40 L 512.85 189.17 L 511.81 193.31 L 511.17 197.23 L 511.00 200.00 L 511.17 204.56 L 511.64 209.12 L 512.43 213.70 L 514.13 220.41 L 516.35 226.69 L 518.16 230.73 L 520.12 234.36 L 522.21 237.63 L 524.58 240.70 L 526.98 243.20 L 529.43 245.18 L 532.12 246.76 L 534.78 247.67 L 537.46 248.00 Z" fill="#e0e8ff" fill-opacity="0.65229726" fill-rule="evenodd" group-id="1,2,3,8,17" id="椭圆形" node-id="76" stroke="none" target-height="97.9603" target-width="143.98267" target-x="511" target-y="150.0397"></path><path d="M 537.16 248.00 L 538.99 247.78 L 540.28 247.26 L 541.16 246.46 L 541.80 245.40 L 542.26 244.06 L 542.53 242.38 L 542.73 236.57 L 542.87 233.30 L 543.27 229.83 L 544.12 226.40 L 545.63 222.98 L 547.01 220.88 L 548.88 218.83 L 551.30 216.82 L 553.98 215.16 L 557.42 213.60 L 561.77 212.16 L 565.51 211.38 L 569.14 211.01 L 572.68 211.02 L 577.94 211.57 L 582.91 212.56 L 592.13 215.11 L 596.38 216.27 L 600.01 217.01 L 602.37 217.22 L 604.42 217.06 L 606.20 216.58 L 607.77 215.70 L 609.16 214.27 L 610.38 212.16 L 614.05 204.57 L 617.74 198.01 L 621.45 192.37 L 625.52 186.95 L 629.35 182.38 L 632.96 178.58 L 638.51 173.40 L 642.98 169.72 L 649.53 164.72 L 650.77 163.52 L 650.98 162.89 L 650.65 162.50 L 649.11 162.15 L 644.39 162.00 L 643.35 162.22 L 641.99 162.90 L 640.20 164.24 L 637.63 166.64 L 634.44 170.00 L 627.51 177.83 L 619.79 186.27 L 615.71 190.31 L 611.67 193.87 L 608.85 196.04 L 606.15 197.79 L 603.55 199.18 L 602.09 199.52 L 600.44 199.39 L 598.48 198.70 L 595.58 197.12 L 592.23 194.85 L 585.33 189.90 L 581.74 187.70 L 578.32 186.17 L 575.99 185.57 L 573.81 185.50 L 571.71 185.94 L 566.83 187.37 L 559.59 189.57 L 555.54 191.08 L 551.32 192.97 L 547.23 195.25 L 543.39 197.99 L 541.05 200.10 L 538.98 202.45 L 537.16 205.07 L 535.97 206.59 L 534.62 207.66 L 533.08 208.34 L 530.51 208.81 L 527.64 208.71 L 524.71 208.19 L 521.77 207.41 L 516.41 205.71 L 514.08 205.07 L 512.51 204.86 L 511.65 204.98 L 511.19 205.38 L 511.00 206.10 L 511.17 210.07 L 511.64 214.06 L 512.42 218.06 L 514.09 223.90 L 516.29 229.40 L 518.07 232.91 L 520.00 236.08 L 522.08 238.95 L 524.40 241.61 L 526.78 243.79 L 529.22 245.54 L 531.86 246.91 L 534.49 247.71 L 537.16 248.00 Z" fill="#d7ddf3" fill-opacity="0.65229726" fill-rule="evenodd" group-id="1,2,3,8,17" id="椭圆形备份-7" node-id="77" stroke="none" target-height="86" target-width="139.98083" target-x="511" target-y="162"></path></g></g><g node-id="215"><path d="M 219.00 468.00 L 219.00 737.00 L 141.00 737.00 Z" fill="url(#linearGradient-8)" fill-opacity="0.733538" fill-rule="evenodd" group-id="1,2,3,9" id="矩形" node-id="79" stroke="none" target-height="269" target-width="78" target-x="141" target-y="468"></path><path d="M 219.54 467.00 L 393.00 688.04 L 254.76 732.97 L 219.00 737.00 Z" fill="url(#linearGradient-9)" fill-opacity="0.733538" fill-rule="evenodd" group-id="1,2,3,9" id="矩形备份-11" node-id="80" stroke="none" target-height="270" target-width="174" target-x="219" target-y="467"></path></g><g node-id="216"><path d="M 322.26 519.27 L 323.04 512.30 L 324.39 504.89 L 326.35 497.01 L 328.97 488.61 L 332.32 479.66 L 336.45 470.12 L 341.44 459.94 L 347.34 449.09 L 354.24 437.51 L 362.22 425.17 L 371.36 412.01 L 381.74 398.00 L 387.00 619.00 L 365.41 615.52 L 357.82 607.34 L 351.11 599.33 L 345.22 591.50 L 340.08 583.83 L 335.67 576.30 L 331.93 568.90 L 328.83 561.61 L 326.34 554.42 L 324.43 547.31 L 323.08 540.26 L 322.27 533.25 L 322.00 526.26 L 322.26 519.27 Z" fill="url(#linearGradient-10)" fill-opacity="0.4562872" fill-rule="evenodd" group-id="1,2,3,10" id="矩形" node-id="82" stroke="none" target-height="221" target-width="64.99997" target-x="322.00003" target-y="398"></path><path d="M 382.00 398.00 L 484.00 488.74 L 465.93 567.17 L 382.00 621.00 Z" fill="url(#linearGradient-11)" fill-opacity="0.4562872" fill-rule="evenodd" group-id="1,2,3,10" id="矩形备份-11" node-id="83" stroke="none" target-height="223.00122" target-width="102" target-x="382" target-y="398"></path></g><path d="M 1063.00 646.00 L 1062.74 651.62 L 1061.99 657.21 L 1060.75 662.79 L 1059.00 668.40 L 1056.71 674.03 L 1053.87 679.71 L 1050.07 686.02 L 1045.56 692.38 L 1040.27 698.79 L 1034.16 705.27 L 1027.15 711.82 L 1020.12 717.70 L 1012.33 723.61 L 1003.73 729.53 L 994.26 735.47 L 983.87 741.43 L 973.73 746.76 L 962.82 752.05 L 951.10 757.30 L 938.52 762.49 L 925.05 767.62 L 911.81 772.27 L 897.98 776.76 L 883.55 781.09 L 868.48 785.25 L 848.42 790.28 L 827.48 794.96 L 805.63 799.29 L 783.71 803.11 L 761.09 806.53 L 737.76 809.56 L 714.38 812.09 L 690.51 814.20 L 666.13 815.86 L 641.72 817.04 L 617.01 817.76 L 592.00 818.00 L 566.99 817.76 L 542.28 817.04 L 517.87 815.86 L 493.49 814.20 L 469.62 812.09 L 446.24 809.56 L 422.91 806.53 L 400.29 803.11 L 378.37 799.29 L 356.52 794.96 L 335.58 790.28 L 315.52 785.25 L 300.45 781.09 L 286.02 776.76 L 272.19 772.27 L 258.95 767.62 L 245.48 762.49 L 232.90 757.30 L 221.18 752.05 L 210.27 746.76 L 200.13 741.43 L 189.74 735.47 L 180.27 729.53 L 171.67 723.61 L 163.88 717.70 L 156.85 711.82 L 149.84 705.27 L 143.73 698.79 L 138.44 692.38 L 133.93 686.02 L 130.13 679.71 L 127.29 674.03 L 125.00 668.40 L 123.25 662.79 L 122.01 657.21 L 121.26 651.62 L 121.00 646.00 L 121.26 640.38 L 122.01 634.79 L 123.25 629.21 L 125.00 623.60 L 127.29 617.97 L 130.13 612.29 L 133.93 605.98 L 138.44 599.62 L 143.73 593.21 L 149.84 586.73 L 156.85 580.18 L 163.88 574.30 L 171.67 568.39 L 180.27 562.47 L 189.74 556.53 L 200.13 550.57 L 210.27 545.24 L 221.18 539.95 L 232.90 534.70 L 245.48 529.51 L 258.95 524.38 L 272.19 519.73 L 286.02 515.24 L 300.45 510.91 L 315.52 506.75 L 335.58 501.72 L 356.52 497.04 L 378.37 492.71 L 400.29 488.89 L 422.91 485.47 L 446.24 482.44 L 469.62 479.91 L 493.49 477.80 L 517.87 476.14 L 542.28 474.96 L 566.99 474.24 L 592.00 474.00 L 617.01 474.24 L 641.72 474.96 L 666.13 476.14 L 690.51 477.80 L 714.38 479.91 L 737.76 482.44 L 761.09 485.47 L 783.71 488.89 L 805.63 492.71 L 827.48 497.04 L 848.42 501.72 L 868.48 506.75 L 883.55 510.91 L 897.98 515.24 L 911.81 519.73 L 925.05 524.38 L 938.52 529.51 L 951.10 534.70 L 962.82 539.95 L 973.73 545.24 L 983.87 550.57 L 994.26 556.53 L 1003.73 562.47 L 1012.33 568.39 L 1020.12 574.30 L 1027.15 580.18 L 1034.16 586.73 L 1040.27 593.21 L 1045.56 599.62 L 1050.07 605.98 L 1053.87 612.29 L 1056.71 617.97 L 1059.00 623.60 L 1060.75 629.21 L 1061.99 634.79 L 1062.74 640.38 L 1063.00 646.00 Z" fill="url(#linearGradient-12)" fill-rule="evenodd" group-id="1,2,3" id="椭圆形" node-id="84" stroke="none" target-height="344" target-width="942" target-x="121" target-y="474"></path><path d="M 237.00 616.00 L 249.00 616.00 L 249.00 636.00 L 237.00 636.00 Z" fill="#b3ccff" fill-rule="nonzero" group-id="1,2,3,11" id="路径" node-id="86" stroke="none" target-height="20" target-width="12" target-x="237" target-y="616"></path><path d="M 244.00 620.00 L 267.00 620.00 L 255.50 600.00 L 244.00 580.00 L 232.50 600.00 L 221.00 620.00 Z" fill="#a8c4fc" fill-rule="nonzero" group-id="1,2,3,11" id="路径" node-id="87" stroke="none" target-height="40" target-width="46" target-x="221" target-y="580"></path><path d="M 243.00 610.00 L 263.00 610.00 L 253.00 593.00 L 243.00 576.00 L 233.00 593.00 L 223.00 610.00 Z" fill="#b9d1ff" fill-rule="nonzero" group-id="1,2,3,11" id="路径" node-id="88" stroke="none" target-height="34" target-width="40" target-x="223" target-y="576"></path><path d="M 244.00 598.00 L 261.00 598.00 L 252.50 583.00 L 244.00 568.00 L 235.50 583.00 L 227.00 598.00 Z" fill="#caddfd" fill-rule="nonzero" group-id="1,2,3,11" id="路径" node-id="89" stroke="none" target-height="30" target-width="34" target-x="227" target-y="568"></path><path d="M 912.00 601.00 L 924.00 601.00 L 924.00 621.00 L 912.00 621.00 Z" fill="#b3ccff" fill-opacity="0.5768927" fill-rule="nonzero" group-id="1,2,3,12" id="路径" node-id="91" stroke="none" target-height="20" target-width="12" target-x="912" target-y="601"></path><path d="M 919.00 605.00 L 942.00 605.00 L 930.50 585.00 L 919.00 565.00 L 907.50 585.00 L 896.00 605.00 Z" fill="#a8c4fc" fill-opacity="0.5768927" fill-rule="nonzero" group-id="1,2,3,12" id="路径" node-id="92" stroke="none" target-height="40" target-width="46" target-x="896" target-y="565"></path><path d="M 918.00 595.00 L 938.00 595.00 L 928.00 578.00 L 918.00 561.00 L 908.00 578.00 L 898.00 595.00 Z" fill="#b9d1ff" fill-opacity="0.5768927" fill-rule="nonzero" group-id="1,2,3,12" id="路径" node-id="93" stroke="none" target-height="34" target-width="40" target-x="898" target-y="561"></path><path d="M 919.00 583.00 L 936.00 583.00 L 927.50 568.00 L 919.00 553.00 L 910.50 568.00 L 902.00 583.00 Z" fill="#caddfd" fill-opacity="0.5768927" fill-rule="nonzero" group-id="1,2,3,12" id="路径" node-id="94" stroke="none" target-height="30" target-width="34" target-x="902" target-y="553"></path></g><g node-id="210"><g node-id="219"><path d="M 564.99 761.96 L 564.75 763.86 L 564.00 765.77 L 562.66 767.73 L 560.61 769.78 L 557.54 772.04 L 553.46 774.36 L 548.17 776.72 L 542.74 778.68 L 536.42 780.56 L 529.10 782.36 L 521.75 783.83 L 513.69 785.14 L 504.87 786.26 L 496.05 787.09 L 486.75 787.67 L 476.93 788.00 L 467.10 788.02 L 457.78 787.76 L 448.94 787.24 L 440.09 786.43 L 431.99 785.40 L 424.59 784.18 L 417.21 782.65 L 410.83 780.98 L 405.34 779.21 L 399.96 777.04 L 395.81 774.87 L 392.66 772.71 L 390.54 770.73 L 389.13 768.82 L 388.32 766.94 L 388.01 765.04 L 388.25 763.14 L 389.00 761.23 L 390.34 759.27 L 392.39 757.22 L 395.46 754.96 L 399.54 752.64 L 404.83 750.28 L 410.26 748.32 L 416.58 746.44 L 423.90 744.64 L 431.25 743.17 L 439.31 741.86 L 448.13 740.74 L 456.95 739.91 L 466.25 739.33 L 476.07 739.00 L 485.90 738.98 L 495.22 739.24 L 504.06 739.76 L 512.91 740.58 L 521.01 741.60 L 528.41 742.82 L 535.79 744.36 L 542.17 746.02 L 547.66 747.79 L 553.04 749.96 L 557.19 752.13 L 560.34 754.29 L 562.46 756.27 L 563.87 758.18 L 564.68 760.06 L 564.99 761.96 Z" fill="#d2e0f9" fill-opacity="0.55803573" fill-rule="evenodd" filter="url(#filter-13)" group-id="1,2,4,13" id="椭圆形备份-2" node-id="96" stroke="none" target-height="49.032715" target-width="176.97302" target-x="388.0135" target-y="738.98364"></path></g><g node-id="220"><g node-id="224"><path d="M 797.00 680.00 L 796.76 680.85 L 796.01 681.74 L 794.49 682.72 L 791.75 683.84 L 787.63 684.95 L 783.06 685.78 L 777.46 686.45 L 771.56 686.85 L 765.00 687.00 L 758.44 686.85 L 752.54 686.45 L 746.94 685.78 L 742.37 684.95 L 738.25 683.84 L 735.51 682.72 L 733.99 681.74 L 733.24 680.85 L 733.00 680.00 L 733.24 679.15 L 733.99 678.26 L 735.51 677.28 L 738.25 676.16 L 742.37 675.05 L 746.94 674.22 L 752.54 673.55 L 758.44 673.15 L 765.00 673.00 L 771.56 673.15 L 777.46 673.55 L 783.06 674.22 L 787.63 675.05 L 791.75 676.16 L 794.49 677.28 L 796.01 678.26 L 796.76 679.15 L 797.00 680.00 Z" fill="#c3d5fb" fill-rule="evenodd" filter="url(#filter-14)" group-id="1,2,4,14,18" id="椭圆形" node-id="98" stroke="none" target-height="14" target-width="64" target-x="733" target-y="673"></path></g><g node-id="225"><path d="M 680.35 519.75 L 690.65 510.61 L 709.03 540.54 L 718.51 543.11 L 784.37 657.53 L 784.87 659.05 L 784.76 660.57 L 784.09 661.93 L 782.89 662.99 L 782.84 663.02 L 763.65 673.66 L 762.13 674.14 L 760.61 674.01 L 759.25 673.32 L 758.21 672.10 L 694.13 556.49 L 694.13 556.49 L 695.57 547.44 L 680.35 519.75 Z" fill="#8bb0fe" fill-rule="evenodd" group-id="1,2,4,14,19" id="矩形" node-id="99" stroke="none" target-height="163.5321" target-width="104.51868" target-x="680.3522" target-y="510.60803"></path></g><g node-id="226"><path d="M 669.77 526.97 L 679.28 518.26 L 697.57 548.24 L 706.64 551.04 L 772.37 665.53 L 772.88 667.05 L 772.76 668.57 L 772.10 669.94 L 770.89 670.99 L 770.84 671.02 L 753.40 680.69 L 751.88 681.17 L 750.36 681.04 L 749.00 680.35 L 747.96 679.13 L 683.88 563.52 L 683.88 563.52 L 684.99 554.65 L 669.77 526.97 Z" fill="#b9cffe" fill-rule="evenodd" group-id="1,2,4,14,20" id="矩形备份-22" node-id="100" stroke="none" target-height="162.91162" target-width="103.10962" target-x="669.7656" target-y="518.2589"></path></g><g node-id="227"><path d="M 670.62 528.17 L 678.19 523.96 L 684.97 519.63 L 691.01 515.20 L 696.36 510.67 L 701.08 506.03 L 704.79 501.76 L 708.05 497.33 L 710.87 492.71 L 713.28 487.90 L 715.28 482.88 L 716.87 477.64 L 717.98 472.43 L 718.72 466.89 L 719.04 460.99 L 718.94 454.69 L 718.37 447.98 L 717.32 440.80 L 715.65 432.83 L 713.33 424.16 L 710.29 414.72 L 706.46 404.47 L 701.76 393.33 L 697.63 385.02 L 693.23 377.18 L 688.56 369.77 L 683.62 362.78 L 678.24 356.01 L 672.69 349.84 L 666.98 344.25 L 661.10 339.19 L 654.80 334.54 L 648.44 330.59 L 641.99 327.31 L 635.44 324.67 L 630.01 323.01 L 624.55 321.85 L 619.07 321.18 L 613.52 321.00 L 607.89 321.30 L 602.40 322.10 L 596.86 323.46 L 591.24 325.40 L 585.52 327.96 L 579.69 331.18 L 572.74 334.86 L 566.51 338.66 L 560.94 342.55 L 555.99 346.54 L 551.61 350.62 L 547.41 355.17 L 543.73 359.82 L 540.56 364.57 L 537.86 369.43 L 535.61 374.43 L 533.77 379.62 L 532.31 384.94 L 531.25 390.41 L 530.59 396.04 L 530.33 401.85 L 530.52 409.04 L 531.25 416.48 L 532.53 424.18 L 534.39 432.18 L 536.65 439.95 L 539.40 447.95 L 542.64 456.19 L 546.41 464.68 L 549.84 471.57 L 553.53 478.14 L 557.47 484.40 L 561.66 490.36 L 566.18 496.13 L 570.86 501.53 L 575.70 506.55 L 580.70 511.22 L 586.00 515.65 L 591.37 519.63 L 596.81 523.20 L 602.33 526.36 L 608.09 529.18 L 613.83 531.52 L 619.58 533.41 L 625.33 534.84 L 631.21 535.83 L 637.01 536.30 L 642.77 536.28 L 648.50 535.75 L 654.14 534.71 L 659.69 533.11 L 665.17 530.94 L 670.62 528.17 Z" fill="url(#linearGradient-15)" fill-rule="evenodd" group-id="1,2,4,14,21" id="椭圆形" node-id="101" stroke="none" target-height="215.3034" target-width="188.70905" target-x="530.3317" target-y="320.99835"></path></g><g node-id="228"><path d="M 663.08 411.56 L 667.27 419.26 L 670.95 426.88 L 674.16 434.43 L 676.89 441.90 L 679.27 449.61 L 681.16 457.07 L 682.58 464.31 L 683.56 471.34 L 684.12 478.53 L 684.22 485.32 L 683.87 491.75 L 683.11 497.84 L 681.85 503.95 L 680.17 509.55 L 678.07 514.69 L 675.59 519.40 L 673.21 522.99 L 670.57 526.23 L 667.67 529.13 L 664.49 531.71 L 661.02 533.99 L 657.31 535.86 L 653.48 537.32 L 649.52 538.38 L 645.40 539.05 L 641.10 539.31 L 635.77 539.11 L 630.28 538.35 L 624.59 537.01 L 618.67 535.05 L 613.01 532.66 L 607.27 529.74 L 601.43 526.26 L 595.49 522.18 L 589.89 517.83 L 584.33 512.98 L 578.82 507.61 L 573.33 501.69 L 568.23 495.58 L 563.29 489.04 L 558.54 482.04 L 553.96 474.56 L 549.77 466.85 L 546.08 459.23 L 542.88 451.69 L 540.15 444.21 L 537.76 436.50 L 535.87 429.04 L 534.45 421.80 L 533.48 414.78 L 532.92 407.59 L 532.82 400.79 L 533.16 394.36 L 533.93 388.27 L 535.19 382.16 L 536.87 376.56 L 538.96 371.43 L 541.45 366.72 L 543.83 363.12 L 546.47 359.89 L 549.37 356.99 L 552.55 354.40 L 556.02 352.12 L 559.73 350.26 L 563.55 348.80 L 567.52 347.73 L 571.64 347.07 L 575.94 346.80 L 581.26 347.00 L 586.76 347.76 L 592.45 349.10 L 598.37 351.07 L 604.03 353.45 L 609.77 356.37 L 615.60 359.85 L 621.55 363.93 L 627.15 368.29 L 632.70 373.14 L 638.22 378.51 L 643.70 384.42 L 648.81 390.53 L 653.74 397.07 L 658.50 404.08 L 663.08 411.56 Z" fill="#cedefe" fill-rule="evenodd" group-id="1,2,4,14,22" id="椭圆形" node-id="102" stroke="none" target-height="192.50662" target-width="151.3966" target-x="532.8202" target-y="346.8032"></path></g><path d="M 648.49 422.29 L 652.73 430.19 L 656.31 437.97 L 659.26 445.63 L 661.71 453.47 L 663.52 460.97 L 664.72 468.15 L 665.37 475.41 L 665.40 482.11 L 664.87 488.32 L 664.04 492.96 L 662.89 497.20 L 661.43 501.06 L 659.68 504.59 L 657.52 507.92 L 655.05 510.82 L 652.27 513.32 L 649.15 515.44 L 645.75 517.08 L 642.20 518.24 L 638.46 518.93 L 634.50 519.13 L 630.57 518.88 L 626.49 518.21 L 622.25 517.09 L 617.81 515.49 L 612.17 512.85 L 606.38 509.47 L 600.42 505.28 L 594.80 500.65 L 589.21 495.33 L 583.65 489.29 L 578.49 482.90 L 573.54 475.91 L 568.82 468.29 L 564.58 460.38 L 561.00 452.61 L 558.05 444.94 L 555.59 437.10 L 553.78 429.61 L 552.58 422.42 L 551.93 415.17 L 551.90 408.47 L 552.44 402.26 L 553.27 397.61 L 554.42 393.38 L 555.87 389.51 L 557.63 385.99 L 559.79 382.66 L 562.25 379.76 L 565.03 377.26 L 568.15 375.14 L 571.55 373.50 L 575.10 372.34 L 578.84 371.65 L 582.81 371.45 L 586.74 371.69 L 590.81 372.36 L 595.06 373.49 L 599.49 375.09 L 605.14 377.73 L 610.93 381.11 L 616.88 385.30 L 622.51 389.93 L 628.09 395.24 L 633.66 401.29 L 638.82 407.68 L 643.76 414.67 L 648.49 422.29 Z" fill="#e1eafc" fill-rule="evenodd" group-id="1,2,4,14,23" id="椭圆形备份-15" node-id="103" stroke="none" target-height="147.68329" target-width="113.50079" target-x="551.90204" target-y="371.4469"></path></g><g node-id="221"><g node-id="230"><path d="M 430.16 470.27 L 434.34 472.29 L 437.26 474.00 L 439.18 475.45 L 439.73 476.12 L 440.24 477.18 L 441.40 479.81 L 442.31 481.25 L 443.69 482.81 L 445.62 485.30 L 446.70 487.12 L 447.94 489.63 L 447.94 490.45 L 447.92 490.83 L 447.67 491.54 L 446.08 491.54 L 446.11 493.17 L 446.35 494.81 L 447.08 496.24 L 448.47 497.54 L 449.00 501.09 L 448.90 501.62 L 448.64 501.97 L 447.67 502.45 L 438.39 502.45 L 438.39 512.27 L 424.06 512.27 L 424.06 497.00 L 420.88 478.45 L 430.16 470.27 Z" fill="#ffd2d2" fill-rule="nonzero" group-id="1,2,4,15,24" id="路径" node-id="106" stroke="none" target-height="42.00003" target-width="28.121216" target-x="420.87878" target-y="470.26877"></path><path d="M 441.97 470.51 L 441.37 469.58 L 439.71 468.37 L 437.66 467.29 L 435.23 466.23 L 430.81 464.60 L 428.70 463.94 L 425.23 464.17 L 422.58 464.69 L 420.61 465.43 L 418.77 466.50 L 417.39 467.62 L 416.39 468.81 L 415.20 470.75 L 414.45 472.41 L 413.93 474.90 L 413.90 477.65 L 414.35 480.43 L 415.28 483.24 L 416.63 485.88 L 418.41 488.30 L 424.74 499.94 L 428.43 499.58 L 429.75 499.41 L 429.75 495.18 L 426.32 488.83 L 426.61 487.76 L 427.48 486.91 L 428.78 486.39 L 430.81 486.18 L 431.35 486.04 L 431.61 485.73 L 431.65 485.17 L 431.42 484.14 L 430.90 482.69 L 429.80 479.55 L 429.51 477.94 L 429.62 476.56 L 429.95 475.76 L 430.58 475.09 L 431.60 474.53 L 434.36 473.79 L 436.13 473.63 L 438.36 473.67 L 438.71 473.42 L 438.67 472.41 L 441.97 470.51 Z" fill="#050237" fill-rule="nonzero" group-id="1,2,4,15,24" id="路径" node-id="107" stroke="none" target-height="36" target-width="28.071594" target-x="413.8981" target-y="463.9427"></path><path d="M 507.00 522.06 L 486.65 515.79 L 470.09 545.06 L 488.00 549.25 Z" fill="#000000" fill-rule="nonzero" group-id="1,2,4,15,24" id="路径" node-id="108" stroke="none" target-height="33.456482" target-width="36.90909" target-x="470.0909" target-y="515.7905"></path><path d="M 497.01 535.48 L 488.61 531.36 L 485.47 540.49 L 481.67 550.78 L 479.17 556.90 L 477.36 560.67 L 476.45 562.02 L 476.03 562.28 L 475.57 561.96 L 474.91 560.51 L 473.94 556.61 L 472.62 548.44 L 456.36 559.63 L 470.52 586.43 L 472.54 587.67 L 474.54 588.39 L 476.54 588.64 L 478.60 588.42 L 480.77 587.71 L 483.11 586.43 L 499.63 543.43 L 501.73 542.84 L 501.20 529.88 L 500.94 528.90 L 500.29 528.34 L 499.10 528.12 L 497.92 528.34 L 497.27 528.90 L 497.01 529.88 L 497.01 535.48 L 497.01 535.48 Z M 413.08 547.26 L 409.54 545.31 L 406.50 544.17 L 403.89 543.68 L 401.61 543.72 L 399.40 544.32 L 397.37 545.49 L 395.46 547.31 L 393.67 549.91 L 392.71 552.21 L 391.88 555.54 L 391.28 560.20 L 391.01 566.54 L 391.18 574.94 L 391.80 584.10 L 392.96 595.38 L 394.77 609.10 L 397.34 625.59 L 400.01 627.35 L 402.09 628.23 L 403.71 628.49 L 405.01 628.27 L 406.11 627.62 L 407.05 626.48 L 407.95 624.67 L 408.35 623.12 L 408.36 621.77 L 407.98 620.49 L 407.14 619.22 L 405.74 617.94 L 405.36 617.73 L 405.00 616.74 L 404.77 614.09 L 404.90 608.48 L 405.74 598.21 L 404.36 592.88 L 403.52 587.53 L 403.20 582.13 L 403.41 576.66 L 404.16 571.08 L 405.47 565.38 L 407.36 559.52 L 409.89 553.49 L 413.08 547.26 Z" fill="#ffd2d2" fill-rule="nonzero" group-id="1,2,4,15,24" id="形状" node-id="109" stroke="none" target-height="100.36963" target-width="110.71835" target-x="391.0089" target-y="528.1166"></path><path d="M 414.39 743.99 L 411.44 743.09 L 409.30 742.95 L 407.73 743.38 L 406.55 744.28 L 405.68 745.75 L 405.16 748.01 L 405.12 751.36 L 413.68 766.21 L 416.45 771.11 L 419.00 772.38 L 420.95 772.85 L 422.46 772.76 L 423.68 772.19 L 424.70 771.11 L 426.43 768.94 L 427.26 767.87 L 427.79 766.98 L 427.91 765.76 L 427.82 764.42 L 427.33 761.79 L 427.01 759.61 L 426.67 758.26 L 425.12 755.72 L 421.43 751.26 L 414.39 743.99 L 414.39 743.99 Z" fill="#000000" fill-rule="nonzero" group-id="1,2,4,15,24" id="路径" node-id="110" stroke="none" target-height="29.898987" target-width="22.79303" target-x="405.1158" target-y="742.9546"></path><path d="M 464.03 575.83 L 477.12 555.65 L 473.95 545.36 L 470.85 536.80 L 467.81 529.75 L 464.85 524.03 L 461.99 519.45 L 459.22 515.86 L 456.54 513.10 L 453.93 511.06 L 451.38 509.64 L 448.85 508.75 L 411.16 508.75 L 404.95 517.84 L 400.15 525.82 L 396.56 532.79 L 394.19 538.36 L 392.54 543.28 L 391.50 547.64 L 391.00 551.49 L 398.59 555.65 L 410.37 555.65 L 410.37 601.44 L 411.72 603.12 L 413.58 604.55 L 416.08 605.75 L 418.75 606.60 L 421.79 607.27 L 425.23 607.72 L 430.46 608.04 L 435.84 608.02 L 441.16 607.74 L 445.89 607.32 L 453.39 606.29 L 455.95 605.76 L 456.34 605.59 L 457.00 603.38 L 457.55 600.83 L 458.22 596.13 L 458.66 590.60 L 458.85 582.32 L 458.62 573.03 L 457.75 560.40 L 464.03 575.83 Z" fill="#ffffff" fill-rule="nonzero" group-id="1,2,4,15,24" id="路径" node-id="111" stroke="none" target-height="99.28903" target-width="86.121216" target-x="391" target-y="508.74704"></path><path d="M 459.08 706.24 L 457.52 717.69 L 455.27 738.63 L 454.09 751.94 L 452.84 768.45 L 451.08 769.64 L 449.47 770.45 L 447.80 770.95 L 446.09 771.12 L 444.08 770.86 L 441.77 770.02 L 439.07 768.45 L 435.17 680.99 L 435.17 650.85 L 432.05 650.85 L 432.50 664.79 L 432.63 675.66 L 432.47 685.46 L 432.05 692.03 L 431.44 699.49 L 430.36 715.98 L 427.89 763.71 L 421.13 763.71 L 418.57 763.49 L 416.63 762.78 L 415.15 761.64 L 411.50 734.01 L 409.05 711.87 L 407.58 694.43 L 406.91 680.99 L 406.46 668.57 L 405.87 653.21 L 405.39 636.59 L 405.30 620.41 L 405.49 612.82 L 405.85 606.34 L 406.49 600.35 L 407.30 596.08 L 408.15 593.49 L 409.03 592.02 L 409.92 591.30 L 412.04 590.41 L 413.40 589.98 L 414.64 589.78 L 415.75 589.81 L 418.56 590.31 L 423.46 590.97 L 426.91 591.19 L 432.05 591.30 L 440.90 591.02 L 446.51 590.36 L 450.40 589.57 L 454.08 588.91 L 456.20 588.72 L 459.08 588.64 L 460.00 588.98 L 460.91 590.08 L 461.82 592.45 L 462.67 596.56 L 463.34 602.73 L 463.71 609.49 L 463.88 617.68 L 463.85 626.22 L 463.65 635.53 L 462.89 654.51 L 461.83 672.85 L 460.69 688.77 L 459.70 700.49 L 459.08 706.24 Z" fill="#3484fe" fill-rule="nonzero" group-id="1,2,4,15,24" id="路径" node-id="112" stroke="none" target-height="182.48108" target-width="58.577423" target-x="405.30084" target-y="588.6355"></path><path d="M 463.04 768.52 L 466.95 769.56 L 469.66 770.60 L 470.81 771.16 L 472.32 772.12 L 473.76 773.30 L 475.03 774.70 L 475.94 776.30 L 476.28 778.00 L 476.06 779.66 L 475.52 780.91 L 474.71 781.94 L 473.77 782.70 L 471.78 783.63 L 469.63 784.37 L 466.48 785.11 L 437.89 785.11 L 437.50 783.19 L 437.10 781.26 L 437.01 780.04 L 437.25 778.68 L 437.89 777.11 L 439.29 776.00 L 440.01 774.74 L 440.32 773.07 L 440.32 771.19 L 440.28 770.30 L 443.64 768.92 L 447.16 768.00 L 450.86 767.52 L 454.62 767.47 L 458.66 767.79 L 463.04 768.52 L 463.04 768.52 Z M 483.65 548.24 L 490.80 550.32 L 498.21 534.02 L 489.48 529.88 L 479.95 547.35 L 483.65 548.24 Z" fill="#000000" fill-rule="nonzero" group-id="1,2,4,15,24" id="形状" node-id="113" stroke="none" target-height="255.23438" target-width="61.205048" target-x="437.00708" target-y="529.87744"></path><path d="M 441.97 601.44 L 442.16 572.81 L 442.84 551.61 L 443.85 536.44 L 445.06 526.02 L 446.35 519.23 L 447.63 515.10 L 448.84 512.83 L 449.94 511.75 L 451.00 511.44" fill="none" group-id="1,2,4,15,24" id="路径-86" node-id="114" stroke="#3484fe" stroke-linecap="butt" stroke-width="4" target-height="90" target-width="9.030304" target-x="441.9697" target-y="511.4427"></path><path d="M 414.57 601.44 L 417.00 510.90" fill="none" group-id="1,2,4,15,24" id="路径-86备份" node-id="115" stroke="#3484fe" stroke-linecap="butt" stroke-width="4" target-height="90.54712" target-width="2.4335327" target-x="414.56647" target-y="510.89557"></path></g><path d="M 443.24 472.96 L 445.74 471.75 L 446.58 471.09 L 447.02 470.20 L 447.07 469.15 L 446.69 467.93 L 445.95 466.87 L 445.10 466.26 L 444.13 466.06 L 443.09 466.32 L 440.59 467.54 L 438.82 465.30 L 436.88 463.41 L 434.77 461.85 L 432.46 460.60 L 430.12 459.75 L 427.72 459.29 L 425.30 459.24 L 422.93 459.64 L 420.58 460.51 L 418.45 461.83 L 416.68 463.44 L 415.22 465.39 L 414.11 467.56 L 413.34 469.93 L 412.90 472.51 L 412.83 475.14 L 413.12 477.83 L 413.80 480.61 L 411.30 481.83 L 410.46 482.48 L 410.02 483.38 L 409.97 484.42 L 410.35 485.65 L 411.09 486.71 L 411.94 487.31 L 412.91 487.51 L 413.95 487.25 L 443.24 472.96 Z" fill="#fbea34" fill-rule="nonzero" group-id="1,2,4,15,25" id="形状备份-9" node-id="116" stroke="none" target-height="28.267395" target-width="37.10083" target-x="409.96906" target-y="459.24292"></path></g></g></g></g></svg>